<svg xmlns="http://www.w3.org/2000/svg" xmlns:xlink="http://www.w3.org/1999/xlink" viewBox="0 0 401 401"><defs><style>.cls-1,.cls-4{fill:none;}.cls-1{stroke-miterlimit:10;stroke-dasharray:5.984 5.984;stroke:url(#linear-gradient);}.cls-2{fill:#f4ae35;}.cls-3{fill:#034e91;}</style><linearGradient id="linear-gradient" x1="58.725" y1="342.275" x2="342.275" y2="58.725" gradientUnits="userSpaceOnUse"><stop offset="0.15" stop-color="#034e91" stop-opacity="0"/><stop offset="1" stop-color="#034e91"/></linearGradient></defs><g id="Layer_2" data-name="Layer 2"><g id="Process"><circle class="cls-1" cx="200.5" cy="200.5" r="200"/><circle class="cls-2" cx="200.5" cy="200.5" r="180"/><path class="cls-3" d="M200.5,121.75c-7.075,0-12.041,5.032-14.524,11.25H138.625V273.625h123.75V133H215.024C212.541,126.782,207.575,121.75,200.5,121.75Zm0,11.25a5.526,5.526,0,0,1,5.625,5.625v5.625H223V155.5H178V144.25h16.875v-5.625A5.526,5.526,0,0,1,200.5,133Zm-50.625,11.25H166.75v22.5h67.5v-22.5h16.875V262.375H149.875Zm86.023,35.4-12.9,12.9-7.273-7.273-7.954,7.954L223,208.454,243.852,187.6Zm-74.773,9.6V200.5H200.5V189.25Zm57.415,32.585-7.955,7.955,7.273,7.272-7.273,7.273,7.955,7.955,7.273-7.273,7.272,7.273,7.955-7.955-7.273-7.273,7.273-7.272-7.955-7.955-7.272,7.273Zm-57.415,6.79v11.25H200.5v-11.25Z"/><rect class="cls-4" x="110.5" y="110.5" width="180" height="180"/></g></g></svg>