<svg xmlns="http://www.w3.org/2000/svg" viewBox="0 0 165.455 160"><defs><style>.cls-1{fill:#fff;}.cls-2{fill:#034e91;}.cls-3{fill:none;}</style></defs><g id="Layer_2" data-name="Layer 2"><g id="Home"><rect class="cls-1" width="165.455" height="160" rx="80"/><path class="cls-2" d="M82.727,45c-3.144,0-5.351,2.236-6.455,5H55.227v62.5h55V50H89.182C88.079,47.236,85.872,45,82.727,45Zm0,5a2.456,2.456,0,0,1,2.5,2.5V55h7.5v5h-20V55h7.5V52.5A2.456,2.456,0,0,1,82.727,50Zm-22.5,5h7.5V65h30V55h7.5v52.5h-45ZM98.46,70.732l-5.733,5.733L89.5,73.232,85.96,76.768l6.767,6.767L102,74.268ZM65.227,75v5h17.5V75ZM90.745,89.482,87.21,93.018l3.232,3.232L87.21,99.482l3.535,3.536,3.232-3.233,3.233,3.233,3.535-3.536L97.512,96.25l3.233-3.232L97.21,89.482l-3.233,3.233ZM65.227,92.5v5h17.5v-5Z"/><rect class="cls-3" x="42.727" y="40" width="80" height="80"/></g></g></svg>