<svg xmlns="http://www.w3.org/2000/svg" xmlns:xlink="http://www.w3.org/1999/xlink" viewBox="0 0 1400 245.135"><defs><style>.cls-1{fill:none;}.cls-2{clip-path:url(#clip-path);}.cls-3{fill:#fff;}.cls-4{fill:#f4ae35;}.cls-5{fill:#034e91;}</style><clipPath id="clip-path" transform="translate(0)"><rect class="cls-1" y="80.25" width="1400" height="2"/></clipPath></defs><g id="Layer_2" data-name="Layer 2"><g id="Home"><g class="cls-2"><path class="cls-3" d="M0,80.25v0Z" transform="translate(0)"/><rect class="cls-3" y="80.25" width="280" height="2"/><rect class="cls-3" x="280" y="80.25" width="840" height="2"/><rect class="cls-3" x="1120" y="80.25" width="280" height="2"/><path class="cls-3" d="M1400,82.25v0Z" transform="translate(0)"/></g><path class="cls-4" d="M135.436,197.022v-7.9H137.9v7.9Zm5.112,4.949a5.7,5.7,0,0,1-2.718-.612,4.294,4.294,0,0,1-1.773-1.718,5.274,5.274,0,0,1-.621-2.619H137.9a2.876,2.876,0,0,0,.333,1.412,2.284,2.284,0,0,0,.936.927,3.234,3.234,0,0,0,2.826,0,2.284,2.284,0,0,0,.936-.927,2.876,2.876,0,0,0,.333-1.412h2.466a5.164,5.164,0,0,1-.638,2.619,4.407,4.407,0,0,1-1.8,1.718A5.8,5.8,0,0,1,140.548,201.971Zm2.718-4.949v-7.9h2.466v7.9Z" transform="translate(0)"/><path class="cls-4" d="M148.126,201.719v-9h2.232l.144,1.656v7.344Zm5.958-4.608a3.86,3.86,0,0,0-.207-1.421,1.448,1.448,0,0,0-.585-.729,1.692,1.692,0,0,0-.882-.226,1.718,1.718,0,0,0-1.413.558,2.565,2.565,0,0,0-.5,1.711h-.792a6.232,6.232,0,0,1,.424-2.439,3.458,3.458,0,0,1,1.178-1.531,3.028,3.028,0,0,1,1.783-.53,3.154,3.154,0,0,1,2.51,1,4.508,4.508,0,0,1,.855,3.069Zm0,4.608v-4.608l2.376-.54v5.148Z" transform="translate(0)"/><path class="cls-4" d="M162.112,201.936a3.934,3.934,0,0,1-2.151-.577,3.819,3.819,0,0,1-1.413-1.638,6.485,6.485,0,0,1,0-5.013,3.835,3.835,0,0,1,1.413-1.629,3.933,3.933,0,0,1,2.151-.575,3.145,3.145,0,0,1,1.917.575,3.591,3.591,0,0,1,1.2,1.629,7.795,7.795,0,0,1,0,5.013,3.581,3.581,0,0,1-1.2,1.638A3.146,3.146,0,0,1,162.112,201.936Zm.612-2.178a1.9,1.9,0,0,0,1.089-.324,2.178,2.178,0,0,0,.747-.9,3.332,3.332,0,0,0,0-2.628,2.123,2.123,0,0,0-.747-.891,1.97,1.97,0,0,0-1.107-.315,2.046,2.046,0,0,0-1.134.315,2.224,2.224,0,0,0-.774.891,3.142,3.142,0,0,0,0,2.628,2.255,2.255,0,0,0,.783.9A2.048,2.048,0,0,0,162.724,199.758Zm2.214,1.961-.126-1.674V189.119h2.376v12.6Z" transform="translate(0)"/><path class="cls-4" d="M173.488,201.936a4.567,4.567,0,0,1-2.358-.6,4.3,4.3,0,0,1-1.611-1.664,5,5,0,0,1-.585-2.449,4.867,4.867,0,0,1,.6-2.447,4.363,4.363,0,0,1,1.656-1.665,4.775,4.775,0,0,1,2.421-.6,4.04,4.04,0,0,1,2.169.62,4.477,4.477,0,0,1,1.611,1.818,6.328,6.328,0,0,1,.612,2.908h-2.412a5.408,5.408,0,0,0-.243-1.9,2.036,2.036,0,0,0-.729-1.026,1.927,1.927,0,0,0-1.1-.315,2.283,2.283,0,0,0-1.188.289,1.763,1.763,0,0,0-.729.872,4.018,4.018,0,0,0-.243,1.521,2.585,2.585,0,0,0,.324,1.35,2.141,2.141,0,0,0,.864.82,2.549,2.549,0,0,0,1.188.278,1.971,1.971,0,0,0,1.143-.305,2.011,2.011,0,0,0,.675-.793l2.232.865a4.431,4.431,0,0,1-.981,1.305,4.136,4.136,0,0,1-1.431.837A5.764,5.764,0,0,1,173.488,201.936Zm-3.006-4.086L170.5,196h6.336v1.855Z" transform="translate(0)"/><path class="cls-4" d="M179.572,201.719v-9h2.376v9Zm1.674-4.734a4.663,4.663,0,0,1,.567-2.412,3.688,3.688,0,0,1,1.458-1.422,3.965,3.965,0,0,1,1.863-.467v2.3a5.89,5.89,0,0,0-1.558.2,2.578,2.578,0,0,0-1.178.647,1.558,1.558,0,0,0-.45,1.152Z" transform="translate(0)"/><path class="cls-4" d="M189.94,201.936a4.931,4.931,0,0,1-1.62-.262,4.038,4.038,0,0,1-1.332-.756,3.419,3.419,0,0,1-.9-1.215l2.034-.935a2.5,2.5,0,0,0,.738.746,1.881,1.881,0,0,0,1.08.315,1.988,1.988,0,0,0,.918-.171.535.535,0,0,0,.323-.495.514.514,0,0,0-.26-.477,2.636,2.636,0,0,0-.711-.26l-.828-.217a4.4,4.4,0,0,1-2.043-1.089,2.361,2.361,0,0,1-.747-1.719,2.651,2.651,0,0,1,.891-2.141,3.8,3.8,0,0,1,2.529-.756,4.794,4.794,0,0,1,1.575.252,3.785,3.785,0,0,1,1.251.7,2.356,2.356,0,0,1,.719,1.045l-1.961.9a1.075,1.075,0,0,0-.612-.585,2.3,2.3,0,0,0-.972-.224,1.175,1.175,0,0,0-.748.207.684.684,0,0,0-.26.566.446.446,0,0,0,.252.387,2.493,2.493,0,0,0,.72.262l1.17.287a3.226,3.226,0,0,1,1.413.693,2.973,2.973,0,0,1,1.016,2.205,2.287,2.287,0,0,1-.477,1.432,3.1,3.1,0,0,1-1.3.963A4.816,4.816,0,0,1,189.94,201.936Z" transform="translate(0)"/><path class="cls-4" d="M194.367,194.735v-2.016h6.084v2.016Zm4.482,7.2a3.124,3.124,0,0,1-2.258-.739,2.785,2.785,0,0,1-.766-2.1v-9.181H198.2v8.658a1.318,1.318,0,0,0,.252.873.912.912,0,0,0,.739.3,1.119,1.119,0,0,0,.4-.081,2.017,2.017,0,0,0,.449-.243l.829,1.782a4.12,4.12,0,0,1-.963.532A2.905,2.905,0,0,1,198.849,201.936Z" transform="translate(0)"/><path class="cls-4" d="M205.311,201.936a3.894,3.894,0,0,1-2.51-.721,2.463,2.463,0,0,1-.892-2.033,2.55,2.55,0,0,1,.963-2.17,4.408,4.408,0,0,1,2.709-.729h2.286v1.764h-1.458a3.33,3.33,0,0,0-1.62.279.877.877,0,0,0-.449.783.7.7,0,0,0,.36.622,2.184,2.184,0,0,0,2.033-.055,2.1,2.1,0,0,0,.712-.72,1.771,1.771,0,0,0,.26-.909h.63a4.969,4.969,0,0,1-.711,2.862A2.611,2.611,0,0,1,205.311,201.936Zm2.484-.217-.09-1.818v-2.736a4.591,4.591,0,0,0-.18-1.377,1.747,1.747,0,0,0-.549-.864,1.524,1.524,0,0,0-.981-.3,2.01,2.01,0,0,0-.972.234,1.974,1.974,0,0,0-.738.756l-2.16-.738a4.316,4.316,0,0,1,.739-1.125,3.67,3.67,0,0,1,1.269-.9,4.674,4.674,0,0,1,1.917-.35,4.745,4.745,0,0,1,2.258.485,3.087,3.087,0,0,1,1.359,1.431,5.194,5.194,0,0,1,.432,2.313l-.054,4.986Z" transform="translate(0)"/><path class="cls-4" d="M212.169,201.719v-9H214.4l.144,1.656v7.344Zm5.958-4.608a3.86,3.86,0,0,0-.207-1.421,1.448,1.448,0,0,0-.585-.729,1.692,1.692,0,0,0-.882-.226,1.718,1.718,0,0,0-1.413.558,2.565,2.565,0,0,0-.5,1.711h-.792a6.232,6.232,0,0,1,.424-2.439,3.458,3.458,0,0,1,1.178-1.531,3.028,3.028,0,0,1,1.783-.53,3.154,3.154,0,0,1,2.51,1,4.508,4.508,0,0,1,.855,3.069Zm0,4.608v-4.608l2.376-.54v5.148Z" transform="translate(0)"/><path class="cls-4" d="M226.155,201.936a3.934,3.934,0,0,1-2.151-.577,3.819,3.819,0,0,1-1.413-1.638,6.485,6.485,0,0,1,0-5.013A3.835,3.835,0,0,1,224,193.079a3.933,3.933,0,0,1,2.151-.575,3.145,3.145,0,0,1,1.917.575,3.591,3.591,0,0,1,1.2,1.629,7.795,7.795,0,0,1,0,5.013,3.581,3.581,0,0,1-1.2,1.638A3.146,3.146,0,0,1,226.155,201.936Zm.612-2.178a1.9,1.9,0,0,0,1.089-.324,2.178,2.178,0,0,0,.747-.9,3.332,3.332,0,0,0,0-2.628,2.123,2.123,0,0,0-.747-.891,1.97,1.97,0,0,0-1.107-.315,2.046,2.046,0,0,0-1.134.315,2.224,2.224,0,0,0-.774.891,3.142,3.142,0,0,0,0,2.628,2.255,2.255,0,0,0,.783.9A2.048,2.048,0,0,0,226.767,199.758Zm2.214,1.961-.126-1.674V189.119h2.376v12.6Z" transform="translate(0)"/><path class="cls-4" d="M234.8,191.262a1.325,1.325,0,0,1-.954-.405,1.328,1.328,0,0,1,0-1.927,1.359,1.359,0,1,1,.954,2.332Zm-1.188,10.457v-9h2.376v9Z" transform="translate(0)"/><path class="cls-4" d="M238.359,201.719v-9h2.232l.144,1.656v7.344Zm5.958-4.608a3.86,3.86,0,0,0-.207-1.421,1.453,1.453,0,0,0-.585-.729,1.692,1.692,0,0,0-.882-.226,1.717,1.717,0,0,0-1.413.558,2.565,2.565,0,0,0-.495,1.711h-.792a6.251,6.251,0,0,1,.423-2.439,3.467,3.467,0,0,1,1.179-1.531,3.027,3.027,0,0,1,1.782-.53,3.155,3.155,0,0,1,2.511,1,4.514,4.514,0,0,1,.855,3.069Zm0,4.608v-4.608l2.376-.54v5.148Z" transform="translate(0)"/><path class="cls-4" d="M252.345,201.467a4.141,4.141,0,0,1-2.151-.539,3.7,3.7,0,0,1-1.413-1.513,4.938,4.938,0,0,1-.5-2.3,5.517,5.517,0,0,1,.5-2.439,3.8,3.8,0,0,1,1.413-1.6,3.978,3.978,0,0,1,2.151-.566,3.133,3.133,0,0,1,1.872.566,3.629,3.629,0,0,1,1.224,1.612,6.469,6.469,0,0,1,.432,2.483,5.55,5.55,0,0,1-.432,2.269,3.445,3.445,0,0,1-1.224,1.5A3.277,3.277,0,0,1,252.345,201.467Zm.468,4.086a10.172,10.172,0,0,1-1.819-.144,6.127,6.127,0,0,1-1.332-.378,5.45,5.45,0,0,1-.881-.467l.936-1.909c.168.1.389.207.666.333a5.321,5.321,0,0,0,.99.325,5.927,5.927,0,0,0,1.331.134,2.764,2.764,0,0,0,1.269-.279,2,2,0,0,0,.865-.863,3.117,3.117,0,0,0,.315-1.486v-8.1h2.376v8.028a5.479,5.479,0,0,1-.577,2.6A3.847,3.847,0,0,1,255.324,205,5.3,5.3,0,0,1,252.813,205.553Zm.216-6.084a1.843,1.843,0,0,0,1.07-.315,2.069,2.069,0,0,0,.712-.864,2.979,2.979,0,0,0,.252-1.251,2.882,2.882,0,0,0-.261-1.26,2.074,2.074,0,0,0-.72-.845,1.888,1.888,0,0,0-1.071-.307,2.051,2.051,0,0,0-1.116.307,2.076,2.076,0,0,0-.757.845,2.881,2.881,0,0,0,0,2.511,2.107,2.107,0,0,0,.766.864A2.048,2.048,0,0,0,253.029,199.469Z" transform="translate(0)"/><path class="cls-4" d="M263.45,194.735v-2.016h6.084v2.016Zm4.482,7.2a3.124,3.124,0,0,1-2.258-.739,2.784,2.784,0,0,1-.765-2.1v-9.181h2.375v8.658a1.318,1.318,0,0,0,.252.873.912.912,0,0,0,.739.3,1.119,1.119,0,0,0,.4-.081,2.017,2.017,0,0,0,.449-.243l.829,1.782a4.12,4.12,0,0,1-.963.532A2.905,2.905,0,0,1,267.932,201.936Z" transform="translate(0)"/><path class="cls-4" d="M271.659,201.719l-.019-12.707h2.376l.018,12.707Zm5.976-4.608a3.714,3.714,0,0,0-.216-1.421,1.5,1.5,0,0,0-.594-.729,1.7,1.7,0,0,0-.882-.226,1.716,1.716,0,0,0-1.413.558,2.565,2.565,0,0,0-.5,1.711h-.792a6.269,6.269,0,0,1,.423-2.439,3.454,3.454,0,0,1,1.188-1.531,3.042,3.042,0,0,1,1.774-.53,3.151,3.151,0,0,1,2.52,1,4.61,4.61,0,0,1,.864,3.069Zm0,4.608v-4.608l2.376-.54v5.148Z" transform="translate(0)"/><path class="cls-4" d="M286.148,201.936a4.567,4.567,0,0,1-2.358-.6,4.3,4.3,0,0,1-1.611-1.664,5,5,0,0,1-.585-2.449,4.867,4.867,0,0,1,.6-2.447,4.363,4.363,0,0,1,1.656-1.665,4.775,4.775,0,0,1,2.421-.6,4.04,4.04,0,0,1,2.169.62,4.477,4.477,0,0,1,1.611,1.818,6.328,6.328,0,0,1,.612,2.908h-2.412a5.408,5.408,0,0,0-.243-1.9,2.036,2.036,0,0,0-.729-1.026,1.927,1.927,0,0,0-1.1-.315A2.283,2.283,0,0,0,285,194.9a1.763,1.763,0,0,0-.729.872,4.018,4.018,0,0,0-.243,1.521,2.585,2.585,0,0,0,.324,1.35,2.141,2.141,0,0,0,.864.82,2.549,2.549,0,0,0,1.188.278,1.971,1.971,0,0,0,1.143-.305,2.011,2.011,0,0,0,.675-.793l2.232.865a4.431,4.431,0,0,1-.981,1.305,4.127,4.127,0,0,1-1.431.837A5.764,5.764,0,0,1,286.148,201.936Zm-3.006-4.086L283.16,196H289.5v1.855Z" transform="translate(0)"/><path class="cls-4" d="M148.081,223.319v-12.6h2.376v10.927l-.126,1.673Zm5.095.216a3.137,3.137,0,0,1-1.917-.576,3.588,3.588,0,0,1-1.2-1.638,7.792,7.792,0,0,1,0-5.012,3.592,3.592,0,0,1,1.2-1.629,3.137,3.137,0,0,1,1.917-.576,3.919,3.919,0,0,1,2.15.576,3.837,3.837,0,0,1,1.414,1.629,6.494,6.494,0,0,1,0,5.012,3.827,3.827,0,0,1-1.414,1.638A3.919,3.919,0,0,1,153.176,223.535Zm-.613-2.177a2.032,2.032,0,0,0,1.143-.325,2.255,2.255,0,0,0,.784-.9,2.906,2.906,0,0,0,.288-1.314,2.976,2.976,0,0,0-.28-1.313,2.121,2.121,0,0,0-.774-.892,2.083,2.083,0,0,0-1.143-.315,1.929,1.929,0,0,0-1.1.324,2.175,2.175,0,0,0-.757.891,3.022,3.022,0,0,0-.27,1.3,3.07,3.07,0,0,0,.27,1.314,2.183,2.183,0,0,0,.747.9A1.888,1.888,0,0,0,152.563,221.358Z" transform="translate(0)"/><path class="cls-4" d="M163.057,223.535a4.566,4.566,0,0,1-2.358-.6,4.3,4.3,0,0,1-1.611-1.664,4.992,4.992,0,0,1-.585-2.449,4.877,4.877,0,0,1,.6-2.448,4.368,4.368,0,0,1,1.656-1.664,4.785,4.785,0,0,1,2.421-.6,4.032,4.032,0,0,1,2.169.621,4.465,4.465,0,0,1,1.611,1.818,6.322,6.322,0,0,1,.612,2.906h-2.412a5.4,5.4,0,0,0-.243-1.9,2.026,2.026,0,0,0-.729-1.027,1.927,1.927,0,0,0-1.1-.315,2.293,2.293,0,0,0-1.188.289,1.763,1.763,0,0,0-.729.872,4.018,4.018,0,0,0-.243,1.521,2.583,2.583,0,0,0,.324,1.35,2.134,2.134,0,0,0,.864.82,2.562,2.562,0,0,0,1.188.279,1.964,1.964,0,0,0,1.143-.307,2,2,0,0,0,.675-.792l2.232.865a4.414,4.414,0,0,1-.981,1.3,4.1,4.1,0,0,1-1.431.838A5.739,5.739,0,0,1,163.057,223.535Zm-3.006-4.086.018-1.853h6.336v1.853Z" transform="translate(0)"/><path class="cls-4" d="M169.141,223.319v-9h2.232l.144,1.656v7.344Zm5.958-4.608a3.873,3.873,0,0,0-.207-1.422,1.449,1.449,0,0,0-.585-.728,1.682,1.682,0,0,0-.882-.225,1.714,1.714,0,0,0-1.413.558,2.56,2.56,0,0,0-.5,1.71h-.792a6.26,6.26,0,0,1,.423-2.44,3.449,3.449,0,0,1,1.179-1.529,3.021,3.021,0,0,1,1.782-.531,3.156,3.156,0,0,1,2.511,1,4.507,4.507,0,0,1,.855,3.069Zm0,4.608v-4.608l2.376-.539v5.147Z" transform="translate(0)"/><path class="cls-4" d="M183.613,223.535a4.566,4.566,0,0,1-2.358-.6,4.3,4.3,0,0,1-1.611-1.664,4.992,4.992,0,0,1-.585-2.449,4.877,4.877,0,0,1,.6-2.448,4.368,4.368,0,0,1,1.656-1.664,4.785,4.785,0,0,1,2.421-.6,4.032,4.032,0,0,1,2.169.621,4.465,4.465,0,0,1,1.611,1.818,6.322,6.322,0,0,1,.612,2.906h-2.412a5.4,5.4,0,0,0-.243-1.9,2.026,2.026,0,0,0-.729-1.027,1.927,1.927,0,0,0-1.1-.315,2.293,2.293,0,0,0-1.188.289,1.763,1.763,0,0,0-.729.872,4.018,4.018,0,0,0-.243,1.521,2.583,2.583,0,0,0,.324,1.35,2.134,2.134,0,0,0,.864.82,2.562,2.562,0,0,0,1.188.279,1.964,1.964,0,0,0,1.143-.307,2,2,0,0,0,.675-.792l2.232.865a4.414,4.414,0,0,1-.981,1.3,4.107,4.107,0,0,1-1.431.838A5.739,5.739,0,0,1,183.613,223.535Zm-3.006-4.086.018-1.853h6.336v1.853Z" transform="translate(0)"/><path class="cls-4" d="M189.1,216.228v-1.909h6.084v1.909Zm1.493,7.091v-9.9a3.187,3.187,0,0,1,.739-2.242,2.916,2.916,0,0,1,2.25-.8,3.807,3.807,0,0,1,1.107.18,6.555,6.555,0,0,1,1.071.432l-.882,1.71a3.621,3.621,0,0,0-.522-.216,1.522,1.522,0,0,0-.432-.072.822.822,0,0,0-.72.333,1.9,1.9,0,0,0-.235,1.072v9.5Z" transform="translate(0)"/><path class="cls-4" d="M198.283,212.861a1.326,1.326,0,0,1-.955-.4,1.33,1.33,0,0,1,0-1.927,1.327,1.327,0,0,1,.955-.405,1.368,1.368,0,0,1,0,2.736ZM197.1,223.319v-9h2.376v9Z" transform="translate(0)"/><path class="cls-4" d="M201.073,216.336v-2.017h6.084v2.017Zm4.481,7.2a3.128,3.128,0,0,1-2.258-.738,2.784,2.784,0,0,1-.765-2.106v-9.179h2.376v8.658a1.319,1.319,0,0,0,.252.873.916.916,0,0,0,.738.3,1.122,1.122,0,0,0,.4-.082,2.1,2.1,0,0,0,.449-.242l.829,1.781a3.992,3.992,0,0,1-.963.531A2.864,2.864,0,0,1,205.554,223.535Z" transform="translate(0)"/><path class="cls-4" d="M217.092,223.535a4.931,4.931,0,0,1-1.62-.261,4.028,4.028,0,0,1-1.332-.755,3.443,3.443,0,0,1-.9-1.216l2.034-.936a2.5,2.5,0,0,0,.738.747,1.889,1.889,0,0,0,1.08.316,1.986,1.986,0,0,0,.918-.172.534.534,0,0,0,.324-.494.515.515,0,0,0-.261-.478,2.725,2.725,0,0,0-.711-.261l-.828-.215a4.413,4.413,0,0,1-2.043-1.089,2.364,2.364,0,0,1-.747-1.719,2.657,2.657,0,0,1,.891-2.143,3.8,3.8,0,0,1,2.529-.755,4.789,4.789,0,0,1,1.575.252,3.8,3.8,0,0,1,1.251.7,2.353,2.353,0,0,1,.72,1.045l-1.962.9a1.07,1.07,0,0,0-.612-.586,2.312,2.312,0,0,0-.972-.225,1.178,1.178,0,0,0-.747.208.684.684,0,0,0-.261.566.45.45,0,0,0,.252.388,2.509,2.509,0,0,0,.72.26l1.17.288a3.221,3.221,0,0,1,1.413.693,2.975,2.975,0,0,1,1.017,2.205,2.287,2.287,0,0,1-.477,1.432,3.094,3.094,0,0,1-1.3.962A4.779,4.779,0,0,1,217.092,223.535Z" transform="translate(0)"/><path class="cls-4" d="M226.632,223.535a5.112,5.112,0,0,1-2.5-.6,4.317,4.317,0,0,1-1.71-1.674,5.184,5.184,0,0,1,0-4.887,4.371,4.371,0,0,1,1.692-1.664,5.009,5.009,0,0,1,2.484-.6,4.722,4.722,0,0,1,2.466.666,3.826,3.826,0,0,1,1.62,1.925l-2.232.792a1.951,1.951,0,0,0-.783-.837,2.276,2.276,0,0,0-1.179-.314,2.117,2.117,0,0,0-1.962,1.188,2.786,2.786,0,0,0-.288,1.295,2.737,2.737,0,0,0,.288,1.288,2.2,2.2,0,0,0,2,1.2,2.124,2.124,0,0,0,1.179-.342,2.068,2.068,0,0,0,.783-.9l2.25.792a4.13,4.13,0,0,1-1.629,1.98A4.533,4.533,0,0,1,226.632,223.535Z" transform="translate(0)"/><path class="cls-4" d="M232.32,223.319l-.018-12.708h2.376l.018,12.708Zm5.976-4.608a3.726,3.726,0,0,0-.216-1.422,1.5,1.5,0,0,0-.594-.728,1.685,1.685,0,0,0-.882-.225,1.714,1.714,0,0,0-1.413.558,2.56,2.56,0,0,0-.5,1.71H233.9a6.279,6.279,0,0,1,.422-2.44,3.437,3.437,0,0,1,1.188-1.529,3.038,3.038,0,0,1,1.774-.531,3.152,3.152,0,0,1,2.52,1,4.6,4.6,0,0,1,.864,3.069Zm0,4.608v-4.608l2.376-.539v5.147Z" transform="translate(0)"/><path class="cls-4" d="M246.81,223.535a4.572,4.572,0,0,1-2.359-.6,4.286,4.286,0,0,1-1.61-1.664,4.981,4.981,0,0,1-.585-2.449,4.866,4.866,0,0,1,.6-2.448,4.372,4.372,0,0,1,1.655-1.664,4.791,4.791,0,0,1,2.422-.6,4.032,4.032,0,0,1,2.169.621,4.472,4.472,0,0,1,1.611,1.818,6.335,6.335,0,0,1,.611,2.906h-2.411a5.42,5.42,0,0,0-.243-1.9,2.031,2.031,0,0,0-.729-1.027,1.929,1.929,0,0,0-1.1-.315,2.293,2.293,0,0,0-1.188.289,1.763,1.763,0,0,0-.729.872,4,4,0,0,0-.243,1.521,2.583,2.583,0,0,0,.324,1.35,2.122,2.122,0,0,0,.864.82,2.562,2.562,0,0,0,1.188.279,1.96,1.96,0,0,0,1.142-.307,2,2,0,0,0,.676-.792l2.232.865a4.414,4.414,0,0,1-.981,1.3,4.116,4.116,0,0,1-1.431.838A5.743,5.743,0,0,1,246.81,223.535Zm-3.006-4.086.018-1.853h6.336v1.853Z" transform="translate(0)"/><path class="cls-4" d="M252.893,223.319v-9h2.232l.144,1.656v7.344Zm5.958-4.608a3.852,3.852,0,0,0-.207-1.422,1.449,1.449,0,0,0-.585-.728,1.681,1.681,0,0,0-.881-.225,1.717,1.717,0,0,0-1.414.558,2.56,2.56,0,0,0-.5,1.71h-.792a6.24,6.24,0,0,1,.424-2.44,3.44,3.44,0,0,1,1.178-1.529,3.024,3.024,0,0,1,1.783-.531,3.155,3.155,0,0,1,2.51,1,4.507,4.507,0,0,1,.855,3.069Zm0,4.608v-4.608l2.376-.539v5.147Zm5.976-4.608a3.729,3.729,0,0,0-.215-1.422,1.52,1.52,0,0,0-.585-.728,1.673,1.673,0,0,0-.891-.225,1.716,1.716,0,0,0-1.414.558,2.56,2.56,0,0,0-.5,1.71h-.792a6.24,6.24,0,0,1,.424-2.44,3.409,3.409,0,0,1,1.188-1.529,3.06,3.06,0,0,1,1.791-.531,3.131,3.131,0,0,1,2.5,1,4.608,4.608,0,0,1,.863,3.069Zm0,4.608v-4.608l2.376-.539v5.147Z" transform="translate(0)"/><path class="cls-4" d="M273.342,223.535a4.567,4.567,0,0,1-2.359-.6,4.3,4.3,0,0,1-1.611-1.664,4.992,4.992,0,0,1-.585-2.449,4.877,4.877,0,0,1,.6-2.448,4.375,4.375,0,0,1,1.656-1.664,4.786,4.786,0,0,1,2.422-.6,4.035,4.035,0,0,1,2.169.621,4.462,4.462,0,0,1,1.61,1.818,6.322,6.322,0,0,1,.612,2.906h-2.411a5.417,5.417,0,0,0-.244-1.9,2.026,2.026,0,0,0-.729-1.027,1.927,1.927,0,0,0-1.1-.315,2.293,2.293,0,0,0-1.188.289,1.769,1.769,0,0,0-.729.872,4.019,4.019,0,0,0-.242,1.521,2.583,2.583,0,0,0,.323,1.35,2.131,2.131,0,0,0,.865.82,2.556,2.556,0,0,0,1.188.279,1.963,1.963,0,0,0,1.142-.307,2,2,0,0,0,.675-.792l2.232.865a4.414,4.414,0,0,1-.981,1.3,4.1,4.1,0,0,1-1.431.838A5.737,5.737,0,0,1,273.342,223.535Zm-3.007-4.086.018-1.853h6.336v1.853Z" transform="translate(0)"/><rect class="cls-3" x="130" width="165.455" height="160" rx="80"/><path class="cls-5" d="M197.727,50V72.5h11.221l3.779,5.22,3.78-5.22h11.22V50Zm19.146,4.976,3.535,3.535L211.419,67.5l-6.49-6.489,3.536-3.535,2.954,2.954ZM200.227,77.5a9.928,9.928,0,0,0-7.5,3.184,10.526,10.526,0,0,0,0,13.632,9.3,9.3,0,0,0,2.388,1.719A14.94,14.94,0,0,0,185.227,110h5a10,10,0,1,1,20,0h.225a14.582,14.582,0,0,0-.225,2.5h5a10,10,0,1,1,20,0h5a14.915,14.915,0,0,0-10.073-14,36.2,36.2,0,0,0,4.336-2.72c2.735-1.966,4.907-3.921,4.907-3.921L241.472,90,239.4,88.14s-2.172-1.955-4.907-3.921a35.806,35.806,0,0,0-4.419-2.769A10.419,10.419,0,0,0,225.227,80a10.038,10.038,0,0,0-10,10,9.9,9.9,0,0,0,5.069,8.5,15.34,15.34,0,0,0-6.719,4.756,15.234,15.234,0,0,0-8.242-7.222,9.3,9.3,0,0,0,2.387-1.719,10.526,10.526,0,0,0,0-13.632A9.928,9.928,0,0,0,200.227,77.5Zm0,5a4.6,4.6,0,0,1,3.755,1.5,5.531,5.531,0,0,1,0,6.992,5.44,5.44,0,0,1-7.51,0,5.531,5.531,0,0,1,0-6.992A4.6,4.6,0,0,1,200.227,82.5Zm25,2.5a8.065,8.065,0,0,1,2.559.894,31.82,31.82,0,0,1,3.784,2.387c1.19.856,1.351,1.057,2.153,1.719-.8.662-.963.863-2.153,1.719a31.82,31.82,0,0,1-3.784,2.387,8.065,8.065,0,0,1-2.559.894,5,5,0,1,1,0-10Z" transform="translate(0)"/><rect class="cls-1" x="172.727" y="40" width="80" height="80"/><path class="cls-4" d="M379.028,201.719v-12.6h2.465v12.6Zm1.422-10.295v-2.305h2.609v2.305Zm0,10.295v-2.3h2.609v2.3Zm2.609,0v-2.3a4.119,4.119,0,0,0,1.6-.306,4.017,4.017,0,0,0,1.288-.845,3.885,3.885,0,0,0,.855-1.27,4.206,4.206,0,0,0,0-3.15,3.891,3.891,0,0,0-.855-1.269,4.02,4.02,0,0,0-1.288-.846,4.137,4.137,0,0,0-1.6-.305v-2.305a7,7,0,0,1,3.412.811,5.952,5.952,0,0,1,2.321,2.222,6.744,6.744,0,0,1-.008,6.526,6.033,6.033,0,0,1-2.323,2.231A6.954,6.954,0,0,1,383.059,201.719Z" transform="translate(0)"/><path class="cls-4" d="M394.381,201.936a3.9,3.9,0,0,1-2.511-.721,2.466,2.466,0,0,1-.891-2.033,2.55,2.55,0,0,1,.963-2.17,4.408,4.408,0,0,1,2.709-.729h2.286v1.764h-1.458a3.33,3.33,0,0,0-1.62.279.876.876,0,0,0-.45.783.7.7,0,0,0,.36.622,2.186,2.186,0,0,0,2.034-.055,2.093,2.093,0,0,0,.711-.72,1.763,1.763,0,0,0,.261-.909h.63a4.969,4.969,0,0,1-.711,2.862A2.611,2.611,0,0,1,394.381,201.936Zm2.484-.217-.09-1.818v-2.736a4.591,4.591,0,0,0-.18-1.377,1.753,1.753,0,0,0-.549-.864,1.524,1.524,0,0,0-.981-.3,2.007,2.007,0,0,0-.972.234,1.96,1.96,0,0,0-.738.756l-2.16-.738a4.337,4.337,0,0,1,.738-1.125,3.679,3.679,0,0,1,1.269-.9,4.677,4.677,0,0,1,1.917-.35,4.749,4.749,0,0,1,2.259.485,3.087,3.087,0,0,1,1.359,1.431,5.194,5.194,0,0,1,.432,2.313l-.054,4.986Z" transform="translate(0)"/><path class="cls-4" d="M400.465,194.735v-2.016h6.084v2.016Zm4.482,7.2a3.128,3.128,0,0,1-2.259-.739,2.788,2.788,0,0,1-.765-2.1v-9.181H404.3v8.658a1.318,1.318,0,0,0,.252.873.911.911,0,0,0,.738.3,1.114,1.114,0,0,0,.4-.081,2.044,2.044,0,0,0,.45-.243l.828,1.782a4.08,4.08,0,0,1-.963.532A2.9,2.9,0,0,1,404.947,201.936Z" transform="translate(0)"/><path class="cls-4" d="M411.409,201.936a3.9,3.9,0,0,1-2.511-.721,2.466,2.466,0,0,1-.891-2.033,2.55,2.55,0,0,1,.963-2.17,4.408,4.408,0,0,1,2.709-.729h2.286v1.764h-1.458a3.33,3.33,0,0,0-1.62.279.876.876,0,0,0-.45.783.7.7,0,0,0,.36.622,2.186,2.186,0,0,0,2.034-.055,2.093,2.093,0,0,0,.711-.72,1.763,1.763,0,0,0,.261-.909h.63a4.969,4.969,0,0,1-.711,2.862A2.611,2.611,0,0,1,411.409,201.936Zm2.484-.217-.09-1.818v-2.736a4.591,4.591,0,0,0-.18-1.377,1.753,1.753,0,0,0-.549-.864,1.524,1.524,0,0,0-.981-.3,2.007,2.007,0,0,0-.972.234,1.96,1.96,0,0,0-.738.756l-2.16-.738a4.337,4.337,0,0,1,.738-1.125,3.679,3.679,0,0,1,1.269-.9,4.677,4.677,0,0,1,1.917-.35,4.749,4.749,0,0,1,2.259.485,3.087,3.087,0,0,1,1.359,1.431,5.194,5.194,0,0,1,.432,2.313l-.054,4.986Z" transform="translate(0)"/><path class="cls-4" d="M422.731,201.719v-9h2.376v9Zm1.674-4.734a4.663,4.663,0,0,1,.567-2.412,3.688,3.688,0,0,1,1.458-1.422,3.965,3.965,0,0,1,1.863-.467v2.3a5.877,5.877,0,0,0-1.557.2,2.576,2.576,0,0,0-1.179.647,1.561,1.561,0,0,0-.45,1.152Z" transform="translate(0)"/><path class="cls-4" d="M433.8,201.936a4.567,4.567,0,0,1-2.358-.6,4.3,4.3,0,0,1-1.611-1.664,5,5,0,0,1-.585-2.449,4.867,4.867,0,0,1,.6-2.447,4.363,4.363,0,0,1,1.656-1.665,4.775,4.775,0,0,1,2.421-.6,4.04,4.04,0,0,1,2.169.62,4.477,4.477,0,0,1,1.611,1.818,6.328,6.328,0,0,1,.612,2.908h-2.412a5.408,5.408,0,0,0-.243-1.9,2.036,2.036,0,0,0-.729-1.026,1.927,1.927,0,0,0-1.1-.315,2.283,2.283,0,0,0-1.188.289,1.763,1.763,0,0,0-.729.872,4.018,4.018,0,0,0-.243,1.521,2.585,2.585,0,0,0,.324,1.35,2.141,2.141,0,0,0,.864.82,2.549,2.549,0,0,0,1.188.278,1.971,1.971,0,0,0,1.143-.305,2.011,2.011,0,0,0,.675-.793l2.232.865a4.431,4.431,0,0,1-.981,1.305,4.136,4.136,0,0,1-1.431.837A5.764,5.764,0,0,1,433.8,201.936ZM430.8,197.85l.018-1.855h6.336v1.855Z" transform="translate(0)"/><path class="cls-4" d="M443.467,201.936a3.931,3.931,0,0,1-2.151-.577,3.819,3.819,0,0,1-1.413-1.638,6.485,6.485,0,0,1,0-5.013,3.835,3.835,0,0,1,1.413-1.629,3.931,3.931,0,0,1,2.151-.575,3.147,3.147,0,0,1,1.917.575,3.6,3.6,0,0,1,1.2,1.629,7.795,7.795,0,0,1,0,5.013,3.588,3.588,0,0,1-1.2,1.638A3.148,3.148,0,0,1,443.467,201.936Zm.612-2.178a1.9,1.9,0,0,0,1.089-.324,2.178,2.178,0,0,0,.747-.9,3.332,3.332,0,0,0,0-2.628,2.123,2.123,0,0,0-.747-.891,1.973,1.973,0,0,0-1.107-.315,2.046,2.046,0,0,0-1.134.315,2.224,2.224,0,0,0-.774.891,3.142,3.142,0,0,0,0,2.628,2.247,2.247,0,0,0,.783.9A2.045,2.045,0,0,0,444.079,199.758Zm2.106,5.561V194.393l.126-1.674h2.25v12.6Z" transform="translate(0)"/><path class="cls-4" d="M450.558,197.867v-5.148h2.377v4.608Zm2.377-.54a3.9,3.9,0,0,0,.206,1.413,1.443,1.443,0,0,0,.595.739,1.969,1.969,0,0,0,2.3-.342,2.6,2.6,0,0,0,.485-1.7h.81a6.268,6.268,0,0,1-.422,2.438,3.44,3.44,0,0,1-1.188,1.53,3.065,3.065,0,0,1-1.791.532,3.136,3.136,0,0,1-2.494-1,4.569,4.569,0,0,1-.873-3.069Zm3.725,4.392-.144-1.655v-7.345h2.377v9Z" transform="translate(0)"/><path class="cls-4" d="M462.456,191.262a1.325,1.325,0,0,1-.954-.405,1.33,1.33,0,0,1,0-1.927,1.359,1.359,0,1,1,.954,2.332Zm-1.188,10.457v-9h2.376v9Z" transform="translate(0)"/><path class="cls-4" d="M466.02,201.719v-9H468.4v9Zm1.675-4.734a4.663,4.663,0,0,1,.567-2.412,3.675,3.675,0,0,1,1.458-1.422,3.958,3.958,0,0,1,1.862-.467v2.3a5.888,5.888,0,0,0-1.557.2,2.576,2.576,0,0,0-1.179.647,1.561,1.561,0,0,0-.45,1.152Z" transform="translate(0)"/><path class="cls-4" d="M477.091,201.936a4.568,4.568,0,0,1-2.359-.6,4.3,4.3,0,0,1-1.611-1.664,5,5,0,0,1-.585-2.449,4.867,4.867,0,0,1,.6-2.447,4.37,4.37,0,0,1,1.656-1.665,4.776,4.776,0,0,1,2.422-.6,4.042,4.042,0,0,1,2.169.62,4.475,4.475,0,0,1,1.61,1.818,6.328,6.328,0,0,1,.612,2.908H479.2a5.429,5.429,0,0,0-.244-1.9,2.036,2.036,0,0,0-.729-1.026,1.927,1.927,0,0,0-1.1-.315,2.288,2.288,0,0,0-1.188.289,1.769,1.769,0,0,0-.729.872,4.019,4.019,0,0,0-.242,1.521,2.6,2.6,0,0,0,.323,1.35,2.137,2.137,0,0,0,.865.82,2.543,2.543,0,0,0,1.188.278,1.97,1.97,0,0,0,1.142-.305,2.011,2.011,0,0,0,.675-.793l2.232.865a4.431,4.431,0,0,1-.981,1.305,4.127,4.127,0,0,1-1.431.837A5.758,5.758,0,0,1,477.091,201.936Zm-3.007-4.086L474.1,196h6.336v1.855Z" transform="translate(0)"/><path class="cls-4" d="M483.174,201.719v-9h2.232l.144,1.656v7.344Zm5.958-4.608a3.86,3.86,0,0,0-.207-1.421,1.448,1.448,0,0,0-.585-.729,1.692,1.692,0,0,0-.882-.226,1.717,1.717,0,0,0-1.413.558,2.565,2.565,0,0,0-.5,1.711h-.792a6.251,6.251,0,0,1,.423-2.439,3.467,3.467,0,0,1,1.179-1.531,3.027,3.027,0,0,1,1.782-.53,3.155,3.155,0,0,1,2.511,1,4.508,4.508,0,0,1,.855,3.069Zm0,4.608v-4.608l2.376-.54v5.148Zm5.976-4.608a3.714,3.714,0,0,0-.216-1.421,1.512,1.512,0,0,0-.585-.729,1.68,1.68,0,0,0-.891-.226,1.717,1.717,0,0,0-1.413.558,2.565,2.565,0,0,0-.5,1.711h-.792a6.251,6.251,0,0,1,.423-2.439,3.44,3.44,0,0,1,1.188-1.531,3.069,3.069,0,0,1,1.791-.53,3.127,3.127,0,0,1,2.5,1,4.6,4.6,0,0,1,.864,3.069Zm0,4.608v-4.608l2.376-.54v5.148Z" transform="translate(0)"/><path class="cls-4" d="M503.622,201.936a4.567,4.567,0,0,1-2.358-.6,4.3,4.3,0,0,1-1.611-1.664,5,5,0,0,1-.585-2.449,4.867,4.867,0,0,1,.6-2.447,4.363,4.363,0,0,1,1.656-1.665,4.775,4.775,0,0,1,2.421-.6,4.04,4.04,0,0,1,2.169.62,4.477,4.477,0,0,1,1.611,1.818,6.328,6.328,0,0,1,.612,2.908h-2.412a5.408,5.408,0,0,0-.243-1.9,2.036,2.036,0,0,0-.729-1.026,1.927,1.927,0,0,0-1.1-.315,2.283,2.283,0,0,0-1.188.289,1.763,1.763,0,0,0-.729.872,4.018,4.018,0,0,0-.243,1.521,2.585,2.585,0,0,0,.324,1.35,2.141,2.141,0,0,0,.864.82,2.549,2.549,0,0,0,1.188.278,1.971,1.971,0,0,0,1.143-.305,2.011,2.011,0,0,0,.675-.793l2.232.865a4.431,4.431,0,0,1-.981,1.305,4.127,4.127,0,0,1-1.431.837A5.764,5.764,0,0,1,503.622,201.936Zm-3.006-4.086.018-1.855h6.336v1.855Z" transform="translate(0)"/><path class="cls-4" d="M509.705,201.719v-9h2.232l.144,1.656v7.344Zm5.958-4.608a3.839,3.839,0,0,0-.207-1.421,1.448,1.448,0,0,0-.585-.729,1.691,1.691,0,0,0-.881-.226,1.72,1.72,0,0,0-1.414.558,2.565,2.565,0,0,0-.5,1.711h-.792a6.232,6.232,0,0,1,.424-2.439,3.465,3.465,0,0,1,1.178-1.531,3.031,3.031,0,0,1,1.783-.53,3.154,3.154,0,0,1,2.51,1,4.508,4.508,0,0,1,.855,3.069Zm0,4.608v-4.608l2.376-.54v5.148Z" transform="translate(0)"/><path class="cls-4" d="M519.336,194.735v-2.016h6.084v2.016Zm4.482,7.2a3.128,3.128,0,0,1-2.259-.739,2.788,2.788,0,0,1-.765-2.1v-9.181h2.376v8.658a1.318,1.318,0,0,0,.252.873.911.911,0,0,0,.738.3,1.114,1.114,0,0,0,.4-.081,2.044,2.044,0,0,0,.45-.243l.828,1.782a4.1,4.1,0,0,1-.963.532A2.9,2.9,0,0,1,523.818,201.936Z" transform="translate(0)"/><path class="cls-4" d="M530.891,201.936a4.931,4.931,0,0,1-1.62-.262,4.048,4.048,0,0,1-1.332-.756,3.431,3.431,0,0,1-.9-1.215l2.035-.935a2.479,2.479,0,0,0,.737.746,1.881,1.881,0,0,0,1.08.315,1.985,1.985,0,0,0,.918-.171.536.536,0,0,0,.324-.495.515.515,0,0,0-.261-.477,2.623,2.623,0,0,0-.711-.26l-.828-.217a4.409,4.409,0,0,1-2.043-1.089,2.361,2.361,0,0,1-.747-1.719,2.654,2.654,0,0,1,.891-2.141,3.8,3.8,0,0,1,2.529-.756,4.785,4.785,0,0,1,1.575.252,3.785,3.785,0,0,1,1.251.7,2.358,2.358,0,0,1,.72,1.045l-1.962.9a1.072,1.072,0,0,0-.612-.585,2.3,2.3,0,0,0-.972-.224,1.172,1.172,0,0,0-.747.207.682.682,0,0,0-.261.566.446.446,0,0,0,.252.387,2.5,2.5,0,0,0,.721.262l1.169.287a3.23,3.23,0,0,1,1.414.693,2.983,2.983,0,0,1,1.016,2.205,2.287,2.287,0,0,1-.477,1.432,3.1,3.1,0,0,1-1.3.963A4.816,4.816,0,0,1,530.891,201.936Z" transform="translate(0)"/><path class="cls-4" d="M400.942,223.535a3.9,3.9,0,0,1-2.511-.719,2.468,2.468,0,0,1-.891-2.035,2.549,2.549,0,0,1,.963-2.169,4.415,4.415,0,0,1,2.709-.729H403.5v1.765H402.04a3.32,3.32,0,0,0-1.62.278.874.874,0,0,0-.449.783.7.7,0,0,0,.359.621,2.182,2.182,0,0,0,2.034-.054,2.09,2.09,0,0,0,.711-.719,1.768,1.768,0,0,0,.261-.909h.63a4.976,4.976,0,0,1-.711,2.862A2.615,2.615,0,0,1,400.942,223.535Zm2.484-.216-.09-1.817v-2.736a4.581,4.581,0,0,0-.18-1.377,1.757,1.757,0,0,0-.549-.865,1.518,1.518,0,0,0-.981-.3,2.018,2.018,0,0,0-.972.233,1.953,1.953,0,0,0-.738.756l-2.16-.737a4.32,4.32,0,0,1,.738-1.125,3.678,3.678,0,0,1,1.269-.9,4.694,4.694,0,0,1,1.917-.35,4.749,4.749,0,0,1,2.259.486,3.082,3.082,0,0,1,1.359,1.431,5.188,5.188,0,0,1,.432,2.313l-.054,4.985Z" transform="translate(0)"/><path class="cls-4" d="M407.8,223.319v-9h2.232l.144,1.656v7.344Zm5.958-4.608a3.873,3.873,0,0,0-.207-1.422,1.449,1.449,0,0,0-.585-.728,1.682,1.682,0,0,0-.882-.225,1.714,1.714,0,0,0-1.413.558,2.56,2.56,0,0,0-.5,1.71h-.792a6.26,6.26,0,0,1,.423-2.44,3.449,3.449,0,0,1,1.179-1.529,3.021,3.021,0,0,1,1.782-.531,3.156,3.156,0,0,1,2.511,1,4.507,4.507,0,0,1,.855,3.069Zm0,4.608v-4.608l2.376-.539v5.147Z" transform="translate(0)"/><path class="cls-4" d="M421.786,223.535a3.925,3.925,0,0,1-2.151-.576,3.825,3.825,0,0,1-1.413-1.638,6.482,6.482,0,0,1,0-5.012,3.835,3.835,0,0,1,1.413-1.629,3.925,3.925,0,0,1,2.151-.576,3.139,3.139,0,0,1,1.917.576,3.591,3.591,0,0,1,1.2,1.629,7.792,7.792,0,0,1,0,5.012,3.587,3.587,0,0,1-1.2,1.638A3.139,3.139,0,0,1,421.786,223.535Zm.612-2.177a1.886,1.886,0,0,0,1.089-.325,2.168,2.168,0,0,0,.747-.9,3.33,3.33,0,0,0,0-2.627,2.108,2.108,0,0,0-.747-.892,1.962,1.962,0,0,0-1.107-.315,2.038,2.038,0,0,0-1.134.315,2.207,2.207,0,0,0-.774.892,3.139,3.139,0,0,0,0,2.627,2.245,2.245,0,0,0,.783.9A2.032,2.032,0,0,0,422.4,221.358Zm2.214,1.961-.126-1.673V210.719h2.376v12.6Z" transform="translate(0)"/><path class="cls-4" d="M436.347,223.319l-3.689-9h2.448l3.42,9Zm.2,0,3.42-9h2.447l-3.69,9Z" transform="translate(0)"/><path class="cls-4" d="M446.374,223.535a3.9,3.9,0,0,1-2.511-.719,2.468,2.468,0,0,1-.891-2.035,2.549,2.549,0,0,1,.963-2.169,4.415,4.415,0,0,1,2.709-.729h2.286v1.765h-1.458a3.32,3.32,0,0,0-1.62.278.875.875,0,0,0-.45.783.7.7,0,0,0,.36.621,2.182,2.182,0,0,0,2.034-.054,2.09,2.09,0,0,0,.711-.719,1.768,1.768,0,0,0,.261-.909h.63a4.976,4.976,0,0,1-.711,2.862A2.615,2.615,0,0,1,446.374,223.535Zm2.484-.216-.09-1.817v-2.736a4.581,4.581,0,0,0-.18-1.377,1.757,1.757,0,0,0-.549-.865,1.518,1.518,0,0,0-.981-.3,2.018,2.018,0,0,0-.972.233,1.946,1.946,0,0,0-.738.756l-2.16-.737a4.32,4.32,0,0,1,.738-1.125,3.668,3.668,0,0,1,1.269-.9,4.694,4.694,0,0,1,1.917-.35,4.749,4.749,0,0,1,2.259.486,3.082,3.082,0,0,1,1.359,1.431,5.188,5.188,0,0,1,.432,2.313l-.054,4.985Z" transform="translate(0)"/><path class="cls-4" d="M453.231,223.319v-12.6h2.376v12.6Z" transform="translate(0)"/><path class="cls-4" d="M459.171,212.861a1.324,1.324,0,0,1-.954-.4,1.33,1.33,0,0,1,0-1.927,1.359,1.359,0,1,1,.954,2.331Zm-1.188,10.458v-9h2.376v9Z" transform="translate(0)"/><path class="cls-4" d="M466.317,223.535a3.925,3.925,0,0,1-2.151-.576,3.825,3.825,0,0,1-1.413-1.638,6.482,6.482,0,0,1,0-5.012,3.835,3.835,0,0,1,1.413-1.629,3.925,3.925,0,0,1,2.151-.576,3.139,3.139,0,0,1,1.917.576,3.591,3.591,0,0,1,1.2,1.629,7.774,7.774,0,0,1,0,5.012,3.587,3.587,0,0,1-1.2,1.638A3.139,3.139,0,0,1,466.317,223.535Zm.612-2.177a1.886,1.886,0,0,0,1.089-.325,2.168,2.168,0,0,0,.747-.9,3.33,3.33,0,0,0,0-2.627,2.108,2.108,0,0,0-.747-.892,1.962,1.962,0,0,0-1.107-.315,2.038,2.038,0,0,0-1.134.315,2.207,2.207,0,0,0-.774.892,3.139,3.139,0,0,0,0,2.627,2.245,2.245,0,0,0,.783.9A2.032,2.032,0,0,0,466.929,221.358Zm2.214,1.961-.126-1.673V210.719h2.376v12.6Z" transform="translate(0)"/><path class="cls-4" d="M476.541,223.535a3.9,3.9,0,0,1-2.511-.719,2.468,2.468,0,0,1-.891-2.035,2.549,2.549,0,0,1,.963-2.169,4.415,4.415,0,0,1,2.709-.729H479.1v1.765h-1.458a3.32,3.32,0,0,0-1.62.278.875.875,0,0,0-.45.783.7.7,0,0,0,.36.621,2.182,2.182,0,0,0,2.034-.054,2.09,2.09,0,0,0,.711-.719,1.768,1.768,0,0,0,.261-.909h.63a4.976,4.976,0,0,1-.711,2.862A2.615,2.615,0,0,1,476.541,223.535Zm2.484-.216-.09-1.817v-2.736a4.581,4.581,0,0,0-.18-1.377,1.757,1.757,0,0,0-.549-.865,1.518,1.518,0,0,0-.981-.3,2.018,2.018,0,0,0-.972.233,1.946,1.946,0,0,0-.738.756l-2.16-.737a4.32,4.32,0,0,1,.738-1.125,3.668,3.668,0,0,1,1.269-.9,4.694,4.694,0,0,1,1.917-.35,4.749,4.749,0,0,1,2.259.486,3.082,3.082,0,0,1,1.359,1.431,5.188,5.188,0,0,1,.432,2.313l-.054,4.985Z" transform="translate(0)"/><path class="cls-4" d="M482.625,216.336v-2.017h6.084v2.017Zm4.482,7.2a3.132,3.132,0,0,1-2.259-.738,2.788,2.788,0,0,1-.765-2.106v-9.179h2.376v8.658a1.319,1.319,0,0,0,.252.873.917.917,0,0,0,.738.3,1.117,1.117,0,0,0,.4-.082,2.125,2.125,0,0,0,.45-.242l.828,1.781a3.992,3.992,0,0,1-.963.531A2.863,2.863,0,0,1,487.107,223.535Z" transform="translate(0)"/><path class="cls-4" d="M492.146,212.861a1.324,1.324,0,0,1-.954-.4,1.33,1.33,0,0,1,0-1.927,1.359,1.359,0,1,1,.954,2.331Zm-1.188,10.458v-9h2.376v9Z" transform="translate(0)"/><path class="cls-4" d="M499.94,223.535a4.885,4.885,0,0,1-2.439-.6,4.332,4.332,0,0,1-1.674-1.664,4.872,4.872,0,0,1-.6-2.449,4.935,4.935,0,0,1,.594-2.448,4.286,4.286,0,0,1,1.656-1.664,5.234,5.234,0,0,1,4.878,0,4.288,4.288,0,0,1,1.657,1.664,5.351,5.351,0,0,1,0,4.9,4.306,4.306,0,0,1-1.648,1.664A4.785,4.785,0,0,1,499.94,223.535Zm0-2.195a2.116,2.116,0,0,0,1.17-.324,2.189,2.189,0,0,0,.783-.891,2.924,2.924,0,0,0,.279-1.306,2.861,2.861,0,0,0-.287-1.3,2.233,2.233,0,0,0-.8-.891,2.157,2.157,0,0,0-1.178-.324,2.129,2.129,0,0,0-1.162.324,2.23,2.23,0,0,0-.8.891,3.113,3.113,0,0,0,0,2.611,2.178,2.178,0,0,0,2,1.215Z" transform="translate(0)"/><path class="cls-4" d="M506.348,223.319v-9h2.232l.144,1.656v7.344Zm5.958-4.608a3.852,3.852,0,0,0-.207-1.422,1.449,1.449,0,0,0-.585-.728,1.676,1.676,0,0,0-.881-.225,1.714,1.714,0,0,0-1.413.558,2.555,2.555,0,0,0-.5,1.71h-.792a6.259,6.259,0,0,1,.424-2.44,3.454,3.454,0,0,1,1.178-1.529,3.024,3.024,0,0,1,1.783-.531,3.154,3.154,0,0,1,2.51,1,4.507,4.507,0,0,1,.855,3.069Zm0,4.608v-4.608l2.376-.539v5.147Z" transform="translate(0)"/><rect class="cls-3" x="373.636" width="165.455" height="160" rx="80"/><path class="cls-5" d="M431.364,50v60H459.1a19.964,19.964,0,1,0,22.266-29.3V50Zm5,5h40V67.5h-40Zm0,17.5h40V80a19.872,19.872,0,0,0-15.547,7.5H436.364Zm40,12.5a15,15,0,1,1-15,15A14.967,14.967,0,0,1,476.364,85Zm-40,7.5h21.484a19.046,19.046,0,0,0-.781,12.5h-20.7Zm48.2.7-8.2,8.2-5.7-5.7L467.067,99.3l7.5,7.5,1.8,1.719,1.8-1.719,10-10Z" transform="translate(0)"/><rect class="cls-1" x="416.364" y="40" width="80" height="80"/><path class="cls-4" d="M645.218,201.719l4.967-12.6h2.467l-4.825,12.6Zm2.339-2.772V196.77h7.9v2.177Zm7.615,2.772-4.825-12.6h2.467l4.968,12.6Z" transform="translate(0)"/><path class="cls-4" d="M662.5,201.936a4.931,4.931,0,0,1-1.62-.262,4.048,4.048,0,0,1-1.332-.756,3.431,3.431,0,0,1-.9-1.215l2.034-.935a2.5,2.5,0,0,0,.738.746,1.881,1.881,0,0,0,1.08.315,1.985,1.985,0,0,0,.918-.171.536.536,0,0,0,.324-.495.515.515,0,0,0-.261-.477,2.623,2.623,0,0,0-.711-.26l-.828-.217a4.4,4.4,0,0,1-2.043-1.089,2.361,2.361,0,0,1-.747-1.719,2.654,2.654,0,0,1,.891-2.141,3.8,3.8,0,0,1,2.529-.756,4.785,4.785,0,0,1,1.575.252,3.785,3.785,0,0,1,1.251.7,2.358,2.358,0,0,1,.72,1.045l-1.962.9a1.072,1.072,0,0,0-.612-.585,2.3,2.3,0,0,0-.972-.224,1.172,1.172,0,0,0-.747.207.682.682,0,0,0-.261.566.446.446,0,0,0,.252.387,2.5,2.5,0,0,0,.721.262l1.169.287a3.23,3.23,0,0,1,1.414.693,2.983,2.983,0,0,1,1.016,2.205,2.287,2.287,0,0,1-.477,1.432,3.1,3.1,0,0,1-1.3.963A4.816,4.816,0,0,1,662.5,201.936Z" transform="translate(0)"/><path class="cls-4" d="M671.047,201.936a4.931,4.931,0,0,1-1.62-.262,4.048,4.048,0,0,1-1.332-.756,3.431,3.431,0,0,1-.9-1.215l2.034-.935a2.5,2.5,0,0,0,.738.746,1.881,1.881,0,0,0,1.08.315,1.988,1.988,0,0,0,.918-.171.536.536,0,0,0,.324-.495.515.515,0,0,0-.261-.477,2.623,2.623,0,0,0-.711-.26l-.828-.217a4.4,4.4,0,0,1-2.043-1.089,2.361,2.361,0,0,1-.747-1.719,2.654,2.654,0,0,1,.891-2.141,3.8,3.8,0,0,1,2.529-.756,4.789,4.789,0,0,1,1.575.252,3.785,3.785,0,0,1,1.251.7,2.358,2.358,0,0,1,.72,1.045l-1.962.9a1.072,1.072,0,0,0-.612-.585,2.3,2.3,0,0,0-.972-.224,1.172,1.172,0,0,0-.747.207.682.682,0,0,0-.261.566.446.446,0,0,0,.252.387,2.5,2.5,0,0,0,.72.262l1.17.287a3.221,3.221,0,0,1,1.413.693,2.98,2.98,0,0,1,1.017,2.205,2.287,2.287,0,0,1-.477,1.432,3.1,3.1,0,0,1-1.3.963A4.816,4.816,0,0,1,671.047,201.936Z" transform="translate(0)"/><path class="cls-4" d="M676.087,197.867v-5.148h2.376v4.608Zm2.376-.54a3.875,3.875,0,0,0,.207,1.413,1.441,1.441,0,0,0,.594.739,1.969,1.969,0,0,0,2.295-.342,2.6,2.6,0,0,0,.486-1.7h.81a6.249,6.249,0,0,1-.423,2.438,3.426,3.426,0,0,1-1.188,1.53,3.063,3.063,0,0,1-1.791.532,3.134,3.134,0,0,1-2.493-1,4.569,4.569,0,0,1-.873-3.069Zm3.726,4.392-.144-1.655v-7.345h2.376v9Z" transform="translate(0)"/><path class="cls-4" d="M686.653,201.719v-9h2.232l.144,1.656v7.344Zm5.958-4.608a3.86,3.86,0,0,0-.207-1.421,1.453,1.453,0,0,0-.585-.729,1.692,1.692,0,0,0-.882-.226,1.717,1.717,0,0,0-1.413.558,2.565,2.565,0,0,0-.5,1.711h-.792a6.251,6.251,0,0,1,.423-2.439,3.467,3.467,0,0,1,1.179-1.531,3.027,3.027,0,0,1,1.782-.53,3.155,3.155,0,0,1,2.511,1,4.514,4.514,0,0,1,.855,3.069Zm0,4.608v-4.608l2.376-.54v5.148Zm5.976-4.608a3.714,3.714,0,0,0-.216-1.421,1.512,1.512,0,0,0-.585-.729,1.683,1.683,0,0,0-.891-.226,1.717,1.717,0,0,0-1.413.558,2.565,2.565,0,0,0-.5,1.711H694.2a6.251,6.251,0,0,1,.423-2.439,3.44,3.44,0,0,1,1.188-1.531,3.069,3.069,0,0,1,1.791-.53,3.127,3.127,0,0,1,2.5,1,4.6,4.6,0,0,1,.864,3.069Zm0,4.608v-4.608l2.376-.54v5.148Z" transform="translate(0)"/><path class="cls-4" d="M703.123,205.319v-12.6h2.232l.144,1.656v10.944Zm5.094-3.383a3.146,3.146,0,0,1-1.917-.577,3.581,3.581,0,0,1-1.2-1.638,7.795,7.795,0,0,1,0-5.013,3.591,3.591,0,0,1,1.2-1.629,3.145,3.145,0,0,1,1.917-.575,3.927,3.927,0,0,1,2.15.575,3.837,3.837,0,0,1,1.414,1.629,6.5,6.5,0,0,1,0,5.013,3.821,3.821,0,0,1-1.414,1.638A3.928,3.928,0,0,1,708.217,201.936Zm-.612-2.178a2.052,2.052,0,0,0,1.143-.324,2.262,2.262,0,0,0,.783-.9,2.912,2.912,0,0,0,.288-1.314,2.994,2.994,0,0,0-.279-1.314,2.139,2.139,0,0,0-.775-.891,2.09,2.09,0,0,0-1.142-.315,1.926,1.926,0,0,0-1.1.325,2.144,2.144,0,0,0-.756.89,3.008,3.008,0,0,0-.27,1.305,3.061,3.061,0,0,0,.27,1.314,2.183,2.183,0,0,0,.746.9A1.9,1.9,0,0,0,707.605,199.758Z" transform="translate(0)"/><path class="cls-4" d="M713.257,194.735v-2.016h6.084v2.016Zm4.482,7.2a3.127,3.127,0,0,1-2.259-.739,2.788,2.788,0,0,1-.765-2.1v-9.181h2.376v8.658a1.318,1.318,0,0,0,.252.873.911.911,0,0,0,.738.3,1.119,1.119,0,0,0,.4-.081,2.044,2.044,0,0,0,.45-.243l.828,1.782a4.1,4.1,0,0,1-.963.532A2.9,2.9,0,0,1,717.739,201.936Z" transform="translate(0)"/><path class="cls-4" d="M722.779,191.262a1.323,1.323,0,0,1-.954-.405,1.328,1.328,0,0,1,0-1.927,1.359,1.359,0,1,1,.954,2.332Zm-1.188,10.457v-9h2.376v9Z" transform="translate(0)"/><path class="cls-4" d="M730.573,201.936a4.88,4.88,0,0,1-2.439-.6,4.338,4.338,0,0,1-1.674-1.664,4.865,4.865,0,0,1-.6-2.449,4.926,4.926,0,0,1,.593-2.447,4.284,4.284,0,0,1,1.657-1.665,5.234,5.234,0,0,1,4.878,0,4.282,4.282,0,0,1,1.656,1.665,5.341,5.341,0,0,1,0,4.9,4.306,4.306,0,0,1-1.648,1.664A4.779,4.779,0,0,1,730.573,201.936Zm0-2.2a2.112,2.112,0,0,0,1.169-.324,2.179,2.179,0,0,0,.784-.891,2.916,2.916,0,0,0,.278-1.305,2.861,2.861,0,0,0-.287-1.305,2.208,2.208,0,0,0-.8-.89,2.155,2.155,0,0,0-1.179-.325,2.121,2.121,0,0,0-1.161.325,2.2,2.2,0,0,0-.8.89,3.1,3.1,0,0,0,0,2.61,2.182,2.182,0,0,0,.81.891A2.206,2.206,0,0,0,730.573,199.739Z" transform="translate(0)"/><path class="cls-4" d="M736.98,201.719v-9h2.232l.144,1.656v7.344Zm5.958-4.608a3.86,3.86,0,0,0-.207-1.421,1.448,1.448,0,0,0-.585-.729,1.692,1.692,0,0,0-.882-.226,1.718,1.718,0,0,0-1.413.558,2.565,2.565,0,0,0-.5,1.711h-.792a6.232,6.232,0,0,1,.424-2.439,3.458,3.458,0,0,1,1.178-1.531,3.028,3.028,0,0,1,1.783-.53,3.154,3.154,0,0,1,2.51,1,4.508,4.508,0,0,1,.855,3.069Zm0,4.608v-4.608l2.376-.54v5.148Z" transform="translate(0)"/><path class="cls-4" d="M750.75,201.936a4.931,4.931,0,0,1-1.62-.262,4.048,4.048,0,0,1-1.332-.756,3.431,3.431,0,0,1-.9-1.215l2.034-.935a2.5,2.5,0,0,0,.738.746,1.881,1.881,0,0,0,1.08.315,1.988,1.988,0,0,0,.918-.171.536.536,0,0,0,.324-.495.515.515,0,0,0-.261-.477,2.623,2.623,0,0,0-.711-.26l-.828-.217a4.4,4.4,0,0,1-2.043-1.089,2.361,2.361,0,0,1-.747-1.719,2.654,2.654,0,0,1,.891-2.141,3.8,3.8,0,0,1,2.529-.756,4.789,4.789,0,0,1,1.575.252,3.785,3.785,0,0,1,1.251.7,2.358,2.358,0,0,1,.72,1.045l-1.962.9a1.072,1.072,0,0,0-.612-.585,2.3,2.3,0,0,0-.972-.224,1.172,1.172,0,0,0-.747.207.682.682,0,0,0-.261.566.446.446,0,0,0,.252.387,2.5,2.5,0,0,0,.72.262l1.17.287a3.221,3.221,0,0,1,1.413.693,2.98,2.98,0,0,1,1.017,2.205,2.287,2.287,0,0,1-.477,1.432,3.1,3.1,0,0,1-1.3.963A4.816,4.816,0,0,1,750.75,201.936Z" transform="translate(0)"/><path class="cls-4" d="M674.468,223.535a4.932,4.932,0,0,1-1.621-.261,4.038,4.038,0,0,1-1.332-.755,3.429,3.429,0,0,1-.9-1.216l2.034-.936a2.474,2.474,0,0,0,.738.747,1.887,1.887,0,0,0,1.08.316,1.986,1.986,0,0,0,.918-.172.535.535,0,0,0,.323-.494.517.517,0,0,0-.26-.478,2.753,2.753,0,0,0-.711-.261l-.829-.215a4.409,4.409,0,0,1-2.042-1.089,2.362,2.362,0,0,1-.748-1.719,2.654,2.654,0,0,1,.892-2.143,3.8,3.8,0,0,1,2.528-.755,4.8,4.8,0,0,1,1.576.252,3.823,3.823,0,0,1,1.251.7,2.358,2.358,0,0,1,.719,1.045l-1.962.9a1.071,1.071,0,0,0-.611-.586,2.316,2.316,0,0,0-.973-.225,1.18,1.18,0,0,0-.747.208.683.683,0,0,0-.26.566.45.45,0,0,0,.252.388,2.487,2.487,0,0,0,.72.26l1.17.288a3.226,3.226,0,0,1,1.413.693A2.969,2.969,0,0,1,678.1,220.8a2.287,2.287,0,0,1-.477,1.432,3.094,3.094,0,0,1-1.3.962A4.777,4.777,0,0,1,674.468,223.535Z" transform="translate(0)"/><path class="cls-4" d="M683.738,223.535a4.567,4.567,0,0,1-2.359-.6,4.3,4.3,0,0,1-1.611-1.664,4.992,4.992,0,0,1-.585-2.449,4.877,4.877,0,0,1,.6-2.448,4.375,4.375,0,0,1,1.656-1.664,4.786,4.786,0,0,1,2.422-.6,4.035,4.035,0,0,1,2.169.621,4.462,4.462,0,0,1,1.61,1.818,6.322,6.322,0,0,1,.612,2.906h-2.411a5.417,5.417,0,0,0-.244-1.9,2.026,2.026,0,0,0-.729-1.027,1.927,1.927,0,0,0-1.1-.315,2.293,2.293,0,0,0-1.188.289,1.769,1.769,0,0,0-.729.872,4.019,4.019,0,0,0-.242,1.521,2.583,2.583,0,0,0,.323,1.35,2.131,2.131,0,0,0,.865.82,2.556,2.556,0,0,0,1.188.279,1.963,1.963,0,0,0,1.142-.307,2,2,0,0,0,.675-.792l2.232.865a4.414,4.414,0,0,1-.981,1.3,4.1,4.1,0,0,1-1.431.838A5.737,5.737,0,0,1,683.738,223.535Zm-3.007-4.086.018-1.853h6.336v1.853Z" transform="translate(0)"/><path class="cls-4" d="M689.047,216.336v-2.017h6.084v2.017Zm4.482,7.2a3.132,3.132,0,0,1-2.259-.738,2.788,2.788,0,0,1-.765-2.106v-9.179h2.376v8.658a1.319,1.319,0,0,0,.252.873.917.917,0,0,0,.738.3,1.117,1.117,0,0,0,.4-.082,2.125,2.125,0,0,0,.45-.242l.828,1.781a3.973,3.973,0,0,1-.963.531A2.863,2.863,0,0,1,693.529,223.535Z" transform="translate(0)"/><path class="cls-4" d="M696.463,216.336v-2.017h6.084v2.017Zm4.482,7.2a3.132,3.132,0,0,1-2.259-.738,2.788,2.788,0,0,1-.765-2.106v-9.179H700.3v8.658a1.319,1.319,0,0,0,.252.873.917.917,0,0,0,.738.3,1.117,1.117,0,0,0,.4-.082,2.125,2.125,0,0,0,.45-.242l.828,1.781a3.992,3.992,0,0,1-.963.531A2.863,2.863,0,0,1,700.945,223.535Z" transform="translate(0)"/><path class="cls-4" d="M705.985,212.861a1.322,1.322,0,0,1-.954-.4,1.328,1.328,0,0,1,0-1.927,1.359,1.359,0,1,1,.954,2.331ZM704.8,223.319v-9h2.376v9Z" transform="translate(0)"/><path class="cls-4" d="M709.549,223.319v-9h2.232l.144,1.656v7.344Zm5.958-4.608a3.873,3.873,0,0,0-.207-1.422,1.455,1.455,0,0,0-.585-.728,1.682,1.682,0,0,0-.882-.225,1.714,1.714,0,0,0-1.413.558,2.56,2.56,0,0,0-.5,1.71h-.792a6.26,6.26,0,0,1,.423-2.44,3.449,3.449,0,0,1,1.179-1.529,3.021,3.021,0,0,1,1.782-.531,3.156,3.156,0,0,1,2.511,1,4.512,4.512,0,0,1,.855,3.069Zm0,4.608v-4.608l2.376-.539v5.147Z" transform="translate(0)"/><path class="cls-4" d="M723.534,223.067a4.131,4.131,0,0,1-2.15-.54,3.682,3.682,0,0,1-1.413-1.511,4.948,4.948,0,0,1-.5-2.3,5.51,5.51,0,0,1,.5-2.438,3.791,3.791,0,0,1,1.413-1.6,3.986,3.986,0,0,1,2.15-.566,3.14,3.14,0,0,1,1.873.566,3.643,3.643,0,0,1,1.224,1.611,6.487,6.487,0,0,1,.432,2.485,5.54,5.54,0,0,1-.432,2.267,3.431,3.431,0,0,1-1.224,1.5A3.278,3.278,0,0,1,723.534,223.067Zm.469,4.086a10.272,10.272,0,0,1-1.819-.143,6.238,6.238,0,0,1-1.332-.379,5.408,5.408,0,0,1-.881-.467l.936-1.908c.168.1.389.207.666.332a5.227,5.227,0,0,0,.99.324,5.866,5.866,0,0,0,1.331.135,2.777,2.777,0,0,0,1.269-.278,2.007,2.007,0,0,0,.865-.865,3.108,3.108,0,0,0,.315-1.484v-8.1h2.376v8.029a5.475,5.475,0,0,1-.577,2.6,3.851,3.851,0,0,1-1.629,1.648A5.3,5.3,0,0,1,724,227.153Zm.216-6.084a1.836,1.836,0,0,0,1.07-.315,2.066,2.066,0,0,0,.712-.863,2.987,2.987,0,0,0,.252-1.252,2.882,2.882,0,0,0-.261-1.26,2.091,2.091,0,0,0-.72-.846,1.9,1.9,0,0,0-1.072-.3,2.057,2.057,0,0,0-1.115.3,2.085,2.085,0,0,0-.757.846,2.883,2.883,0,0,0,0,2.512,2.1,2.1,0,0,0,.766.863A2.04,2.04,0,0,0,724.219,221.069Z" transform="translate(0)"/><rect class="cls-3" x="617.273" width="165.455" height="160" rx="80"/><path class="cls-5" d="M680,52.5a15.044,15.044,0,0,0-15,15,14.453,14.453,0,0,0,6.25,12A20.321,20.321,0,0,0,660,97.5h5a15,15,0,0,1,30,0h5a15.116,15.116,0,0,1,14.5-15h.5a14.9,14.9,0,0,0,13.75-9,.243.243,0,0,1,.249-.249,1.5,1.5,0,0,0,.249-1c0-.25,0-.253.254-.5,0-.25.249-.746.249-1A.921.921,0,0,1,730,70a.921.921,0,0,1,.249-.752v-1.5a15,15,0,0,0-30,0,14.453,14.453,0,0,0,6.25,12A19.944,19.944,0,0,0,697.749,88,19.944,19.944,0,0,0,689,79.751,15.775,15.775,0,0,0,695,67.5,15.044,15.044,0,0,0,680,52.5Zm0,5a10,10,0,1,1-10,10A10.029,10.029,0,0,1,680,57.5Zm35,0a10,10,0,1,1-10,10A10.029,10.029,0,0,1,715,57.5ZM720.249,85v5.249A12.73,12.73,0,0,0,716,92l-3.75-3.75-3.5,3.5,3.75,3.75a8.991,8.991,0,0,0-1.748,4.5H705v5h5.249A16.773,16.773,0,0,0,712,109.5l-3.75,3.75,3.5,3.5L715.5,113a12.755,12.755,0,0,0,4.253,1.753V120h5v-5.249A12.73,12.73,0,0,0,729,113l3.75,3.75,3.5-3.5-3.75-3.75a8.991,8.991,0,0,0,1.748-4.5H740v-5h-5.249A16.773,16.773,0,0,0,733,95.5l3.75-3.75-3.5-3.5L729.5,92a12.755,12.755,0,0,0-4.253-1.753V85ZM722.5,95a7.5,7.5,0,1,1-7.5,7.5A7.366,7.366,0,0,1,722.5,95Zm0,5a2.174,2.174,0,0,0-.918.215,2.894,2.894,0,0,0-1.367,1.367,2.067,2.067,0,0,0,0,1.836,2.894,2.894,0,0,0,1.367,1.367,2.174,2.174,0,0,0,.918.215,2.5,2.5,0,0,0,0-5Z" transform="translate(0)"/><rect class="cls-1" x="660" y="40" width="80" height="80"/><path class="cls-4" d="M864.284,201.719l4.968-12.6h2.467l-4.825,12.6Zm2.34-2.772V196.77h7.9v2.177Zm7.614,2.772-4.824-12.6h2.467l4.967,12.6Z" transform="translate(0)"/><path class="cls-4" d="M882.338,201.936a5.112,5.112,0,0,1-2.5-.6,4.323,4.323,0,0,1-1.71-1.674,5.182,5.182,0,0,1,0-4.886,4.374,4.374,0,0,1,1.692-1.665,5,5,0,0,1,2.485-.6,4.721,4.721,0,0,1,2.465.666,3.815,3.815,0,0,1,1.62,1.926l-2.232.791a1.938,1.938,0,0,0-.783-.836,2.259,2.259,0,0,0-1.179-.316,2.153,2.153,0,0,0-1.17.316,2.176,2.176,0,0,0-.792.873,2.783,2.783,0,0,0-.288,1.295,2.73,2.73,0,0,0,.288,1.287,2.2,2.2,0,0,0,2,1.2,2.124,2.124,0,0,0,1.179-.342,2.058,2.058,0,0,0,.783-.9l2.25.793a4.109,4.109,0,0,1-1.629,1.979A4.526,4.526,0,0,1,882.338,201.936Z" transform="translate(0)"/><path class="cls-4" d="M887.234,194.735v-2.016h6.084v2.016Zm4.482,7.2a3.128,3.128,0,0,1-2.259-.739,2.788,2.788,0,0,1-.765-2.1v-9.181h2.376v8.658a1.318,1.318,0,0,0,.252.873.911.911,0,0,0,.738.3,1.114,1.114,0,0,0,.4-.081,2.044,2.044,0,0,0,.45-.243l.828,1.782a4.08,4.08,0,0,1-.963.532A2.9,2.9,0,0,1,891.716,201.936Z" transform="translate(0)"/><path class="cls-4" d="M895.262,197.867v-5.148h2.376v4.608Zm2.376-.54a3.875,3.875,0,0,0,.207,1.413,1.436,1.436,0,0,0,.594.739,1.969,1.969,0,0,0,2.3-.342,2.6,2.6,0,0,0,.486-1.7h.81a6.268,6.268,0,0,1-.423,2.438,3.426,3.426,0,0,1-1.188,1.53,3.063,3.063,0,0,1-1.791.532,3.134,3.134,0,0,1-2.493-1,4.569,4.569,0,0,1-.873-3.069Zm3.726,4.392-.144-1.655v-7.345H903.6v9Z" transform="translate(0)"/><path class="cls-4" d="M908.744,201.936a3.9,3.9,0,0,1-2.511-.721,2.463,2.463,0,0,1-.891-2.033,2.552,2.552,0,0,1,.962-2.17,4.41,4.41,0,0,1,2.709-.729H911.3v1.764h-1.458a3.332,3.332,0,0,0-1.621.279.877.877,0,0,0-.449.783.7.7,0,0,0,.36.622,2.186,2.186,0,0,0,2.034-.055,2.093,2.093,0,0,0,.711-.72,1.763,1.763,0,0,0,.261-.909h.629a4.961,4.961,0,0,1-.711,2.862A2.61,2.61,0,0,1,908.744,201.936Zm2.483-.217-.089-1.818v-2.736a4.591,4.591,0,0,0-.18-1.377,1.753,1.753,0,0,0-.549-.864,1.524,1.524,0,0,0-.981-.3,2.007,2.007,0,0,0-.972.234,1.96,1.96,0,0,0-.738.756l-2.161-.738a4.316,4.316,0,0,1,.739-1.125,3.679,3.679,0,0,1,1.269-.9,4.674,4.674,0,0,1,1.917-.35,4.749,4.749,0,0,1,2.259.485,3.085,3.085,0,0,1,1.358,1.431,5.193,5.193,0,0,1,.433,2.313l-.055,4.986Z" transform="translate(0)"/><path class="cls-4" d="M915.6,201.719v-9h2.376v9Zm1.675-4.734a4.663,4.663,0,0,1,.567-2.412,3.688,3.688,0,0,1,1.458-1.422,3.959,3.959,0,0,1,1.863-.467v2.3a5.89,5.89,0,0,0-1.558.2,2.573,2.573,0,0,0-1.178.647,1.562,1.562,0,0,0-.451,1.152Z" transform="translate(0)"/><path class="cls-4" d="M923.935,191.262a1.328,1.328,0,0,1-.954-.405,1.33,1.33,0,0,1,0-1.927,1.328,1.328,0,0,1,.954-.405,1.369,1.369,0,0,1,0,2.737Zm-1.187,10.457v-9h2.376v9Z" transform="translate(0)"/><path class="cls-4" d="M930.416,201.936a3.9,3.9,0,0,1-2.511-.721,2.463,2.463,0,0,1-.892-2.033,2.553,2.553,0,0,1,.963-2.17,4.41,4.41,0,0,1,2.709-.729h2.286v1.764h-1.458a3.33,3.33,0,0,0-1.62.279.877.877,0,0,0-.449.783.7.7,0,0,0,.36.622,2.186,2.186,0,0,0,2.034-.055,2.093,2.093,0,0,0,.711-.72,1.771,1.771,0,0,0,.26-.909h.63a4.961,4.961,0,0,1-.711,2.862A2.61,2.61,0,0,1,930.416,201.936Zm2.483-.217-.09-1.818v-2.736a4.593,4.593,0,0,0-.179-1.377,1.753,1.753,0,0,0-.549-.864,1.525,1.525,0,0,0-.982-.3,2.006,2.006,0,0,0-.971.234,1.969,1.969,0,0,0-.739.756l-2.16-.738a4.316,4.316,0,0,1,.739-1.125,3.679,3.679,0,0,1,1.269-.9,4.674,4.674,0,0,1,1.917-.35,4.752,4.752,0,0,1,2.259.485,3.089,3.089,0,0,1,1.358,1.431,5.193,5.193,0,0,1,.433,2.313l-.055,4.986Z" transform="translate(0)"/><path class="cls-4" d="M937.273,201.719v-12.6h2.376v12.6Z" transform="translate(0)"/><path class="cls-4" d="M949.135,201.719l-3.69-9h2.448l3.42,9Zm.2,0,3.42-9H955.2l-3.69,9Z" transform="translate(0)"/><path class="cls-4" d="M959.161,201.936a3.9,3.9,0,0,1-2.511-.721,2.463,2.463,0,0,1-.891-2.033,2.552,2.552,0,0,1,.962-2.17,4.41,4.41,0,0,1,2.709-.729h2.287v1.764h-1.458a3.332,3.332,0,0,0-1.621.279.877.877,0,0,0-.449.783.7.7,0,0,0,.36.622,2.186,2.186,0,0,0,2.034-.055,2.093,2.093,0,0,0,.711-.72,1.761,1.761,0,0,0,.26-.909h.63a4.961,4.961,0,0,1-.711,2.862A2.61,2.61,0,0,1,959.161,201.936Zm2.483-.217-.09-1.818v-2.736a4.593,4.593,0,0,0-.179-1.377,1.753,1.753,0,0,0-.549-.864,1.524,1.524,0,0,0-.981-.3,2.007,2.007,0,0,0-.972.234,1.96,1.96,0,0,0-.738.756l-2.161-.738a4.316,4.316,0,0,1,.739-1.125,3.679,3.679,0,0,1,1.269-.9,4.674,4.674,0,0,1,1.917-.35,4.749,4.749,0,0,1,2.259.485,3.085,3.085,0,0,1,1.358,1.431,5.193,5.193,0,0,1,.433,2.313l-.055,4.986Z" transform="translate(0)"/><path class="cls-4" d="M966.018,201.719v-12.6h2.376v12.6Z" transform="translate(0)"/><path class="cls-4" d="M970.465,197.867v-5.148h2.376v4.608Zm2.376-.54a3.875,3.875,0,0,0,.207,1.413,1.44,1.44,0,0,0,.593.739,1.969,1.969,0,0,0,2.3-.342,2.6,2.6,0,0,0,.487-1.7h.809a6.231,6.231,0,0,1-.423,2.438,3.424,3.424,0,0,1-1.187,1.53,3.067,3.067,0,0,1-1.791.532,3.134,3.134,0,0,1-2.493-1,4.569,4.569,0,0,1-.873-3.069Zm3.725,4.392-.143-1.655v-7.345H978.8v9Z" transform="translate(0)"/><path class="cls-4" d="M983.946,201.936a3.9,3.9,0,0,1-2.511-.721,2.468,2.468,0,0,1-.89-2.033,2.547,2.547,0,0,1,.963-2.17,4.406,4.406,0,0,1,2.709-.729H986.5v1.764h-1.458a3.324,3.324,0,0,0-1.62.279.877.877,0,0,0-.451.783.7.7,0,0,0,.361.622,2.184,2.184,0,0,0,2.033-.055,2.1,2.1,0,0,0,.712-.72,1.763,1.763,0,0,0,.261-.909h.63a4.977,4.977,0,0,1-.711,2.862A2.614,2.614,0,0,1,983.946,201.936Zm2.484-.217-.089-1.818v-2.736a4.588,4.588,0,0,0-.181-1.377,1.747,1.747,0,0,0-.549-.864,1.523,1.523,0,0,0-.98-.3,2.009,2.009,0,0,0-.973.234,1.965,1.965,0,0,0-.737.756l-2.16-.738a4.337,4.337,0,0,1,.738-1.125,3.675,3.675,0,0,1,1.268-.9,4.684,4.684,0,0,1,1.917-.35,4.744,4.744,0,0,1,2.259.485,3.084,3.084,0,0,1,1.36,1.431,5.208,5.208,0,0,1,.431,2.313l-.054,4.986Z" transform="translate(0)"/><path class="cls-4" d="M990.03,194.735v-2.016h6.084v2.016Zm4.483,7.2a3.125,3.125,0,0,1-2.259-.739,2.785,2.785,0,0,1-.766-2.1v-9.181h2.376v8.658a1.318,1.318,0,0,0,.252.873.911.911,0,0,0,.738.3,1.124,1.124,0,0,0,.4-.081,2.039,2.039,0,0,0,.449-.243l.828,1.782a4.08,4.08,0,0,1-.963.532A2.9,2.9,0,0,1,994.513,201.936Z" transform="translate(0)"/><path class="cls-4" d="M999.553,191.262a1.325,1.325,0,0,1-.955-.405,1.328,1.328,0,0,1,0-1.927,1.359,1.359,0,1,1,.955,2.332Zm-1.189,10.457v-9h2.376v9Z" transform="translate(0)"/><path class="cls-4" d="M1007.346,201.936a4.883,4.883,0,0,1-2.439-.6,4.338,4.338,0,0,1-1.674-1.664,4.875,4.875,0,0,1-.6-2.449,4.936,4.936,0,0,1,.593-2.447,4.291,4.291,0,0,1,1.657-1.665,5.234,5.234,0,0,1,4.878,0,4.282,4.282,0,0,1,1.656,1.665,5.341,5.341,0,0,1,0,4.9,4.306,4.306,0,0,1-1.648,1.664A4.779,4.779,0,0,1,1007.346,201.936Zm0-2.2a2.112,2.112,0,0,0,1.169-.324,2.179,2.179,0,0,0,.784-.891,2.916,2.916,0,0,0,.279-1.305,2.862,2.862,0,0,0-.288-1.305,2.215,2.215,0,0,0-.8-.89,2.153,2.153,0,0,0-1.179-.325,2.121,2.121,0,0,0-1.161.325,2.21,2.21,0,0,0-.8.89,3.11,3.11,0,0,0,0,2.61,2.181,2.181,0,0,0,2,1.215Z" transform="translate(0)"/><path class="cls-4" d="M1013.754,201.719v-9h2.232l.144,1.656v7.344Zm5.958-4.608a3.86,3.86,0,0,0-.207-1.421,1.448,1.448,0,0,0-.585-.729,1.692,1.692,0,0,0-.882-.226,1.718,1.718,0,0,0-1.413.558,2.565,2.565,0,0,0-.5,1.711h-.792a6.232,6.232,0,0,1,.424-2.439,3.458,3.458,0,0,1,1.178-1.531,3.027,3.027,0,0,1,1.782-.53,3.155,3.155,0,0,1,2.511,1,4.514,4.514,0,0,1,.855,3.069Zm0,4.608v-4.608l2.376-.54v5.148Z" transform="translate(0)"/><path class="cls-4" d="M890.24,218.982v-2.035h9.9v2.035Z" transform="translate(0)"/><path class="cls-4" d="M905.809,223.319v-9h2.376v9Zm1.675-4.733a4.658,4.658,0,0,1,.567-2.412,3.675,3.675,0,0,1,1.458-1.422,3.949,3.949,0,0,1,1.863-.469v2.305a5.932,5.932,0,0,0-1.558.2,2.585,2.585,0,0,0-1.178.649,1.557,1.557,0,0,0-.451,1.152Z" transform="translate(0)"/><path class="cls-4" d="M916.88,223.535a4.572,4.572,0,0,1-2.359-.6,4.3,4.3,0,0,1-1.61-1.664,4.981,4.981,0,0,1-.585-2.449,4.866,4.866,0,0,1,.6-2.448,4.368,4.368,0,0,1,1.656-1.664,4.785,4.785,0,0,1,2.421-.6,4.032,4.032,0,0,1,2.169.621,4.465,4.465,0,0,1,1.611,1.818,6.335,6.335,0,0,1,.611,2.906h-2.411a5.4,5.4,0,0,0-.243-1.9,2.027,2.027,0,0,0-.73-1.027,1.922,1.922,0,0,0-1.1-.315,2.3,2.3,0,0,0-1.189.289,1.767,1.767,0,0,0-.728.872,4.018,4.018,0,0,0-.243,1.521,2.583,2.583,0,0,0,.324,1.35,2.134,2.134,0,0,0,.864.82,2.562,2.562,0,0,0,1.188.279,1.963,1.963,0,0,0,1.142-.307,2,2,0,0,0,.676-.792l2.231.865a4.428,4.428,0,0,1-.98,1.3,4.1,4.1,0,0,1-1.432.838A5.728,5.728,0,0,1,916.88,223.535Zm-3.006-4.086.017-1.853h6.336v1.853Z" transform="translate(0)"/><path class="cls-4" d="M926.33,223.535a4.931,4.931,0,0,1-1.62-.261,4.028,4.028,0,0,1-1.332-.755,3.434,3.434,0,0,1-.9-1.216l2.035-.936a2.474,2.474,0,0,0,.738.747,1.887,1.887,0,0,0,1.08.316,1.989,1.989,0,0,0,.918-.172.533.533,0,0,0,.323-.494.515.515,0,0,0-.261-.478,2.711,2.711,0,0,0-.711-.261l-.828-.215a4.418,4.418,0,0,1-2.043-1.089,2.364,2.364,0,0,1-.747-1.719,2.654,2.654,0,0,1,.892-2.143,3.8,3.8,0,0,1,2.528-.755,4.781,4.781,0,0,1,1.575.252,3.782,3.782,0,0,1,1.251.7,2.353,2.353,0,0,1,.72,1.045l-1.962.9a1.071,1.071,0,0,0-.611-.586,2.316,2.316,0,0,0-.973-.225,1.18,1.18,0,0,0-.747.208.684.684,0,0,0-.261.566.45.45,0,0,0,.252.388,2.517,2.517,0,0,0,.721.26l1.17.288a3.221,3.221,0,0,1,1.413.693,2.985,2.985,0,0,1,1.017,2.205,2.288,2.288,0,0,1-.478,1.432,3.088,3.088,0,0,1-1.3.962A4.777,4.777,0,0,1,926.33,223.535Z" transform="translate(0)"/><path class="cls-4" d="M931.369,219.467v-5.148h2.377v4.609Zm2.377-.539a3.883,3.883,0,0,0,.206,1.412,1.436,1.436,0,0,0,.6.738,1.965,1.965,0,0,0,2.295-.342,2.6,2.6,0,0,0,.485-1.7h.811a6.275,6.275,0,0,1-.423,2.44A3.437,3.437,0,0,1,936.526,223a3.06,3.06,0,0,1-1.791.531,3.133,3.133,0,0,1-2.493-1,4.569,4.569,0,0,1-.873-3.069Zm3.725,4.391-.144-1.655v-7.345H939.7v9Z" transform="translate(0)"/><path class="cls-4" d="M941.935,223.319v-12.6h2.376v12.6Z" transform="translate(0)"/><path class="cls-4" d="M945.769,216.336v-2.017h6.084v2.017Zm4.482,7.2a3.132,3.132,0,0,1-2.259-.738,2.788,2.788,0,0,1-.765-2.106v-9.179H949.6v8.658a1.319,1.319,0,0,0,.252.873.918.918,0,0,0,.739.3,1.112,1.112,0,0,0,.395-.082,2.1,2.1,0,0,0,.45-.242l.828,1.781a3.973,3.973,0,0,1-.963.531A2.863,2.863,0,0,1,950.251,223.535Z" transform="translate(0)"/><path class="cls-4" d="M957.325,223.535a4.931,4.931,0,0,1-1.62-.261,4.028,4.028,0,0,1-1.332-.755,3.443,3.443,0,0,1-.9-1.216l2.035-.936a2.482,2.482,0,0,0,.737.747,1.889,1.889,0,0,0,1.08.316,1.986,1.986,0,0,0,.918-.172.534.534,0,0,0,.324-.494.515.515,0,0,0-.261-.478,2.73,2.73,0,0,0-.71-.261l-.829-.215a4.408,4.408,0,0,1-2.043-1.089,2.364,2.364,0,0,1-.747-1.719,2.657,2.657,0,0,1,.891-2.143,3.8,3.8,0,0,1,2.529-.755,4.789,4.789,0,0,1,1.575.252,3.8,3.8,0,0,1,1.251.7,2.353,2.353,0,0,1,.72,1.045l-1.962.9a1.07,1.07,0,0,0-.612-.586,2.312,2.312,0,0,0-.972-.225,1.178,1.178,0,0,0-.747.208.684.684,0,0,0-.261.566.45.45,0,0,0,.252.388,2.509,2.509,0,0,0,.72.26l1.17.288a3.221,3.221,0,0,1,1.413.693,2.966,2.966,0,0,1,1.017,2.205,2.287,2.287,0,0,1-.477,1.432,3.094,3.094,0,0,1-1.3.962A4.779,4.779,0,0,1,957.325,223.535Z" transform="translate(0)"/><path class="cls-4" d="M969.906,223.535a3.9,3.9,0,0,1-2.511-.719,2.47,2.47,0,0,1-.89-2.035,2.547,2.547,0,0,1,.963-2.169,4.413,4.413,0,0,1,2.709-.729h2.286v1.765h-1.458a3.315,3.315,0,0,0-1.62.278.875.875,0,0,0-.451.783.7.7,0,0,0,.361.621,2.18,2.18,0,0,0,2.033-.054,2.1,2.1,0,0,0,.712-.719,1.768,1.768,0,0,0,.261-.909h.629a4.984,4.984,0,0,1-.71,2.862A2.618,2.618,0,0,1,969.906,223.535Zm2.484-.216L972.3,221.5v-2.736a4.579,4.579,0,0,0-.181-1.377,1.75,1.75,0,0,0-.549-.865,1.517,1.517,0,0,0-.98-.3,2.019,2.019,0,0,0-.973.233,1.951,1.951,0,0,0-.737.756l-2.16-.737a4.3,4.3,0,0,1,.738-1.125,3.664,3.664,0,0,1,1.268-.9,5.462,5.462,0,0,1,4.176.136,3.079,3.079,0,0,1,1.36,1.431,5.2,5.2,0,0,1,.431,2.313l-.054,4.985Z" transform="translate(0)"/><path class="cls-4" d="M976.764,223.319v-9H979l.144,1.656v7.344Zm5.958-4.608a3.873,3.873,0,0,0-.207-1.422,1.449,1.449,0,0,0-.585-.728,1.676,1.676,0,0,0-.881-.225,1.713,1.713,0,0,0-1.413.558,2.555,2.555,0,0,0-.5,1.71h-.792a6.26,6.26,0,0,1,.423-2.44,3.456,3.456,0,0,1,1.179-1.529,3.023,3.023,0,0,1,1.782-.531,3.156,3.156,0,0,1,2.511,1,4.507,4.507,0,0,1,.855,3.069Zm0,4.608v-4.608l2.376-.539v5.147Z" transform="translate(0)"/><path class="cls-4" d="M990.75,223.535a3.925,3.925,0,0,1-2.151-.576,3.825,3.825,0,0,1-1.413-1.638,6.482,6.482,0,0,1,0-5.012,3.835,3.835,0,0,1,1.413-1.629,3.925,3.925,0,0,1,2.151-.576,3.139,3.139,0,0,1,1.917.576,3.591,3.591,0,0,1,1.2,1.629,7.792,7.792,0,0,1,0,5.012,3.587,3.587,0,0,1-1.2,1.638A3.139,3.139,0,0,1,990.75,223.535Zm.612-2.177a1.886,1.886,0,0,0,1.089-.325,2.168,2.168,0,0,0,.747-.9,3.319,3.319,0,0,0,0-2.627,2.108,2.108,0,0,0-.747-.892,1.961,1.961,0,0,0-1.106-.315,2.039,2.039,0,0,0-1.135.315,2.214,2.214,0,0,0-.774.892,3.139,3.139,0,0,0,0,2.627,2.232,2.232,0,0,0,.784.9A2.027,2.027,0,0,0,991.362,221.358Zm2.214,1.961-.126-1.673V210.719h2.376v12.6Z" transform="translate(0)"/><path class="cls-4" d="M904.334,245.135a3.947,3.947,0,0,1-2.152-.575,3.837,3.837,0,0,1-1.413-1.638,6.487,6.487,0,0,1,0-5.014,3.853,3.853,0,0,1,1.413-1.629,3.948,3.948,0,0,1,2.152-.576,3.155,3.155,0,0,1,1.917.576,3.609,3.609,0,0,1,1.2,1.629,7.8,7.8,0,0,1,0,5.014,3.6,3.6,0,0,1-1.2,1.638A3.154,3.154,0,0,1,904.334,245.135Zm.612-2.178a1.887,1.887,0,0,0,1.089-.324,2.183,2.183,0,0,0,.747-.9,3.33,3.33,0,0,0,0-2.627,2.119,2.119,0,0,0-.747-.891,1.958,1.958,0,0,0-1.107-.316,2.031,2.031,0,0,0-1.134.316,2.214,2.214,0,0,0-.775.891,3.139,3.139,0,0,0,0,2.627,2.247,2.247,0,0,0,.784.9A2.029,2.029,0,0,0,904.946,242.957Zm2.214,1.963-.126-1.674V232.319h2.376v12.6Z" transform="translate(0)"/><path class="cls-4" d="M912.973,234.461a1.328,1.328,0,0,1-.954-.4,1.327,1.327,0,0,1,0-1.926,1.359,1.359,0,1,1,.954,2.33Zm-1.188,10.459v-9h2.376v9Z" transform="translate(0)"/><path class="cls-4" d="M919.9,245.135a4.93,4.93,0,0,1-1.62-.26,4.048,4.048,0,0,1-1.332-.756,3.429,3.429,0,0,1-.9-1.216l2.034-.936a2.5,2.5,0,0,0,.737.748,1.9,1.9,0,0,0,1.08.314,1.985,1.985,0,0,0,.918-.171.536.536,0,0,0,.324-.5.513.513,0,0,0-.26-.476,2.679,2.679,0,0,0-.711-.262l-.828-.215a4.4,4.4,0,0,1-2.043-1.09,2.358,2.358,0,0,1-.748-1.718,2.657,2.657,0,0,1,.891-2.143,3.8,3.8,0,0,1,2.529-.756,4.8,4.8,0,0,1,1.576.252,3.825,3.825,0,0,1,1.251.7,2.361,2.361,0,0,1,.719,1.044l-1.962.9a1.063,1.063,0,0,0-.612-.585,2.3,2.3,0,0,0-.972-.226,1.184,1.184,0,0,0-.747.207.687.687,0,0,0-.26.568.447.447,0,0,0,.252.387,2.472,2.472,0,0,0,.719.26l1.17.289a3.23,3.23,0,0,1,1.413.692,2.966,2.966,0,0,1,1.017,2.205,2.283,2.283,0,0,1-.477,1.431,3.088,3.088,0,0,1-1.3.963A4.775,4.775,0,0,1,919.9,245.135Z" transform="translate(0)"/><path class="cls-4" d="M929.443,245.135a5.1,5.1,0,0,1-2.5-.6,4.317,4.317,0,0,1-1.71-1.674,5.184,5.184,0,0,1,0-4.887,4.374,4.374,0,0,1,1.693-1.664,4.993,4.993,0,0,1,2.483-.6,4.731,4.731,0,0,1,2.466.666,3.833,3.833,0,0,1,1.62,1.926l-2.231.793a1.962,1.962,0,0,0-.784-.838,2.275,2.275,0,0,0-1.178-.314,2.17,2.17,0,0,0-1.171.314,2.2,2.2,0,0,0-.792.873,2.794,2.794,0,0,0-.287,1.3,2.735,2.735,0,0,0,.287,1.287,2.239,2.239,0,0,0,.81.873,2.214,2.214,0,0,0,1.188.323,2.139,2.139,0,0,0,1.179-.341,2.069,2.069,0,0,0,.783-.9l2.25.791a4.124,4.124,0,0,1-1.629,1.981A4.533,4.533,0,0,1,929.443,245.135Z" transform="translate(0)"/><path class="cls-4" d="M934.951,241.067V235.92h2.376v4.607Zm2.376-.54a3.888,3.888,0,0,0,.207,1.414,1.436,1.436,0,0,0,.594.737,1.965,1.965,0,0,0,2.295-.342,2.6,2.6,0,0,0,.486-1.7h.81a6.251,6.251,0,0,1-.423,2.439,3.447,3.447,0,0,1-1.188,1.531,3.071,3.071,0,0,1-1.791.53,3.133,3.133,0,0,1-2.493-1,4.574,4.574,0,0,1-.873-3.07Zm3.726,4.393-.144-1.656V235.92h2.376v9Z" transform="translate(0)"/><path class="cls-4" d="M948.883,245.135a4.922,4.922,0,0,1-1.62-.26,4.052,4.052,0,0,1-1.333-.756,3.453,3.453,0,0,1-.9-1.216l2.034-.936a2.5,2.5,0,0,0,.738.748,1.893,1.893,0,0,0,1.08.314,1.988,1.988,0,0,0,.918-.171.537.537,0,0,0,.324-.5.512.512,0,0,0-.261-.476,2.665,2.665,0,0,0-.711-.262l-.828-.215a4.409,4.409,0,0,1-2.043-1.09,2.361,2.361,0,0,1-.747-1.718,2.657,2.657,0,0,1,.891-2.143,3.8,3.8,0,0,1,2.529-.756,4.794,4.794,0,0,1,1.575.252,3.825,3.825,0,0,1,1.251.7,2.355,2.355,0,0,1,.72,1.044l-1.962.9a1.063,1.063,0,0,0-.612-.585,2.3,2.3,0,0,0-.972-.226,1.184,1.184,0,0,0-.747.207.688.688,0,0,0-.261.568.447.447,0,0,0,.252.387,2.469,2.469,0,0,0,.72.26l1.17.289a3.236,3.236,0,0,1,1.413.692,2.969,2.969,0,0,1,1.016,2.205,2.288,2.288,0,0,1-.476,1.431,3.094,3.094,0,0,1-1.3.963A4.779,4.779,0,0,1,948.883,245.135Z" transform="translate(0)"/><path class="cls-4" d="M957.432,245.135a4.93,4.93,0,0,1-1.62-.26,4.048,4.048,0,0,1-1.332-.756,3.441,3.441,0,0,1-.9-1.216l2.034-.936a2.509,2.509,0,0,0,.737.748,1.9,1.9,0,0,0,1.08.314,1.982,1.982,0,0,0,.918-.171.537.537,0,0,0,.325-.5.512.512,0,0,0-.261-.476,2.665,2.665,0,0,0-.711-.262l-.828-.215a4.409,4.409,0,0,1-2.043-1.09,2.361,2.361,0,0,1-.747-1.718,2.659,2.659,0,0,1,.89-2.143,3.8,3.8,0,0,1,2.53-.756,4.794,4.794,0,0,1,1.575.252,3.825,3.825,0,0,1,1.251.7,2.355,2.355,0,0,1,.72,1.044l-1.962.9a1.062,1.062,0,0,0-.613-.585,2.294,2.294,0,0,0-.971-.226,1.18,1.18,0,0,0-.747.207.688.688,0,0,0-.261.568.447.447,0,0,0,.252.387,2.469,2.469,0,0,0,.72.26l1.169.289a3.24,3.24,0,0,1,1.414.692,2.969,2.969,0,0,1,1.016,2.205,2.288,2.288,0,0,1-.476,1.431,3.094,3.094,0,0,1-1.3.963A4.78,4.78,0,0,1,957.432,245.135Z" transform="translate(0)"/><path class="cls-4" d="M963.967,234.461a1.324,1.324,0,0,1-.954-.4,1.325,1.325,0,0,1,0-1.926,1.358,1.358,0,1,1,.954,2.33Zm-1.189,10.459v-9h2.376v9Z" transform="translate(0)"/><path class="cls-4" d="M971.761,245.135a4.875,4.875,0,0,1-2.44-.6,4.327,4.327,0,0,1-1.674-1.665,4.864,4.864,0,0,1-.6-2.447,4.936,4.936,0,0,1,.593-2.449,4.3,4.3,0,0,1,1.657-1.664,5.226,5.226,0,0,1,4.878,0,4.3,4.3,0,0,1,1.656,1.664,5.341,5.341,0,0,1,0,4.9,4.3,4.3,0,0,1-1.648,1.665A4.771,4.771,0,0,1,971.761,245.135Zm0-2.195a2.1,2.1,0,0,0,1.169-.325,2.183,2.183,0,0,0,.784-.89,2.936,2.936,0,0,0,.278-1.305,2.86,2.86,0,0,0-.287-1.306,2.21,2.21,0,0,0-.8-.89,2.161,2.161,0,0,0-1.179-.325,2.131,2.131,0,0,0-1.161.325,2.205,2.205,0,0,0-.8.89,3.093,3.093,0,0,0,0,2.611,2.18,2.18,0,0,0,2,1.215Z" transform="translate(0)"/><path class="cls-4" d="M978.168,244.92v-9H980.4l.144,1.655v7.345Zm5.958-4.608a3.866,3.866,0,0,0-.207-1.422,1.459,1.459,0,0,0-.585-.73,1.982,1.982,0,0,0-2.295.334,2.557,2.557,0,0,0-.5,1.709h-.792a6.233,6.233,0,0,1,.424-2.438,3.452,3.452,0,0,1,1.178-1.531,3.029,3.029,0,0,1,1.783-.531,3.156,3.156,0,0,1,2.51,1,4.514,4.514,0,0,1,.855,3.069Zm0,4.608v-4.608l2.376-.54v5.148Z" transform="translate(0)"/><rect class="cls-3" x="860.909" width="165.455" height="160" rx="80"/><path class="cls-5" d="M943.636,45c-3.144,0-5.351,2.236-6.455,5H916.136v62.5h55V50H950.091C948.988,47.236,946.781,45,943.636,45Zm0,5a2.456,2.456,0,0,1,2.5,2.5V55h7.5v5h-20V55h7.5V52.5A2.456,2.456,0,0,1,943.636,50Zm-22.5,5h7.5V65h30V55h7.5v52.5h-45Zm38.233,15.732-5.733,5.733L950.4,73.232l-3.535,3.536,6.767,6.767,9.268-9.267ZM926.136,75v5h17.5V75Zm25.518,14.482-3.535,3.536,3.232,3.232-3.232,3.232,3.535,3.536,3.232-3.233,3.233,3.233,3.535-3.536-3.232-3.232,3.232-3.232-3.535-3.536-3.233,3.233ZM926.136,92.5v5h17.5v-5Z" transform="translate(0)"/><rect class="cls-1" x="903.636" y="40" width="80" height="80"/><path class="cls-4" d="M1155.359,201.719v-12.6h2.466v12.6Zm2.178-4.463v-2.25h2.52a2.1,2.1,0,0,0,1-.234,1.836,1.836,0,0,0,.7-.649,1.715,1.715,0,0,0,.261-.935,1.654,1.654,0,0,0-.585-1.315,2.221,2.221,0,0,0-1.5-.5h-2.394v-2.25l2.5-.017a4.909,4.909,0,0,1,2.358.512,4.037,4.037,0,0,1,1.6,1.45,3.909,3.909,0,0,1,.576,2.124,3.8,3.8,0,0,1-.6,2.115,4.055,4.055,0,0,1-1.647,1.439,5.319,5.319,0,0,1-2.376.514Zm4.752,4.463-2.916-5.058,1.89-1.35,3.816,6.408Z" transform="translate(0)"/><path class="cls-4" d="M1170.875,201.936a4.567,4.567,0,0,1-2.358-.6,4.3,4.3,0,0,1-1.611-1.664,5,5,0,0,1-.585-2.449,4.867,4.867,0,0,1,.6-2.447,4.363,4.363,0,0,1,1.656-1.665,4.775,4.775,0,0,1,2.421-.6,4.04,4.04,0,0,1,2.169.62,4.477,4.477,0,0,1,1.611,1.818,6.328,6.328,0,0,1,.612,2.908h-2.412a5.408,5.408,0,0,0-.243-1.9,2.036,2.036,0,0,0-.729-1.026,1.927,1.927,0,0,0-1.1-.315,2.283,2.283,0,0,0-1.188.289,1.763,1.763,0,0,0-.729.872,4.018,4.018,0,0,0-.243,1.521,2.585,2.585,0,0,0,.324,1.35,2.141,2.141,0,0,0,.864.82,2.549,2.549,0,0,0,1.188.278,1.971,1.971,0,0,0,1.143-.305,2.011,2.011,0,0,0,.675-.793l2.232.865a4.431,4.431,0,0,1-.981,1.305,4.127,4.127,0,0,1-1.431.837A5.764,5.764,0,0,1,1170.875,201.936Zm-3.006-4.086.018-1.855h6.336v1.855Z" transform="translate(0)"/><path class="cls-4" d="M1177.049,205.319v-12.6h2.232l.144,1.656v10.944Zm5.093-3.383a3.148,3.148,0,0,1-1.917-.577,3.573,3.573,0,0,1-1.2-1.638,7.795,7.795,0,0,1,0-5.013,3.582,3.582,0,0,1,1.2-1.629,3.147,3.147,0,0,1,1.917-.575,3.931,3.931,0,0,1,2.151.575,3.835,3.835,0,0,1,1.413,1.629,6.485,6.485,0,0,1,0,5.013,3.819,3.819,0,0,1-1.413,1.638A3.931,3.931,0,0,1,1182.142,201.936Zm-.611-2.178a2.052,2.052,0,0,0,1.143-.324,2.26,2.26,0,0,0,.782-.9,2.9,2.9,0,0,0,.288-1.314,2.994,2.994,0,0,0-.278-1.314,2.146,2.146,0,0,0-.775-.891,2.09,2.09,0,0,0-1.142-.315,1.929,1.929,0,0,0-1.1.325,2.142,2.142,0,0,0-.755.89,2.993,2.993,0,0,0-.27,1.305,3.047,3.047,0,0,0,.27,1.314,2.168,2.168,0,0,0,.746.9A1.9,1.9,0,0,0,1181.531,199.758Z" transform="translate(0)"/><path class="cls-4" d="M1192.186,201.936a4.885,4.885,0,0,1-2.439-.6,4.336,4.336,0,0,1-1.673-1.664,4.865,4.865,0,0,1-.6-2.449,4.926,4.926,0,0,1,.593-2.447,4.284,4.284,0,0,1,1.657-1.665,5.232,5.232,0,0,1,4.877,0,4.284,4.284,0,0,1,1.657,1.665,5.349,5.349,0,0,1,0,4.9,4.313,4.313,0,0,1-1.648,1.664A4.783,4.783,0,0,1,1192.186,201.936Zm0-2.2a2.116,2.116,0,0,0,1.17-.324,2.176,2.176,0,0,0,.783-.891,2.916,2.916,0,0,0,.279-1.305,2.861,2.861,0,0,0-.287-1.305,2.21,2.21,0,0,0-.8-.89,2.149,2.149,0,0,0-1.178-.325,2.118,2.118,0,0,0-1.161.325,2.2,2.2,0,0,0-.8.89,3.11,3.11,0,0,0,0,2.61,2.178,2.178,0,0,0,2,1.215Z" transform="translate(0)"/><path class="cls-4" d="M1198.6,201.719v-9h2.376v9Zm1.674-4.734a4.663,4.663,0,0,1,.567-2.412,3.688,3.688,0,0,1,1.458-1.422,3.965,3.965,0,0,1,1.863-.467v2.3a5.89,5.89,0,0,0-1.558.2,2.578,2.578,0,0,0-1.178.647,1.558,1.558,0,0,0-.45,1.152Z" transform="translate(0)"/><path class="cls-4" d="M1204.823,194.735v-2.016h6.084v2.016Zm4.481,7.2a3.124,3.124,0,0,1-2.258-.739,2.784,2.784,0,0,1-.765-2.1v-9.181h2.376v8.658a1.318,1.318,0,0,0,.252.873.909.909,0,0,0,.738.3,1.119,1.119,0,0,0,.4-.081,2.017,2.017,0,0,0,.449-.243l.829,1.782a4.1,4.1,0,0,1-.963.532A2.905,2.905,0,0,1,1209.3,201.936Z" transform="translate(0)"/><path class="cls-4" d="M1216.378,201.936a4.931,4.931,0,0,1-1.62-.262,4.048,4.048,0,0,1-1.332-.756,3.431,3.431,0,0,1-.9-1.215l2.034-.935a2.5,2.5,0,0,0,.738.746,1.881,1.881,0,0,0,1.08.315,1.988,1.988,0,0,0,.918-.171.536.536,0,0,0,.324-.495.515.515,0,0,0-.261-.477,2.623,2.623,0,0,0-.711-.26l-.828-.217a4.4,4.4,0,0,1-2.043-1.089,2.361,2.361,0,0,1-.747-1.719,2.654,2.654,0,0,1,.891-2.141,3.8,3.8,0,0,1,2.529-.756,4.789,4.789,0,0,1,1.575.252,3.785,3.785,0,0,1,1.251.7,2.358,2.358,0,0,1,.72,1.045l-1.962.9a1.072,1.072,0,0,0-.612-.585,2.3,2.3,0,0,0-.972-.224,1.172,1.172,0,0,0-.747.207.682.682,0,0,0-.261.566.446.446,0,0,0,.252.387,2.5,2.5,0,0,0,.72.262l1.17.287a3.221,3.221,0,0,1,1.413.693,2.98,2.98,0,0,1,1.017,2.205,2.287,2.287,0,0,1-.477,1.432,3.1,3.1,0,0,1-1.3.963A4.816,4.816,0,0,1,1216.378,201.936Z" transform="translate(0)"/><rect class="cls-3" x="1104.545" width="165.455" height="160" rx="80"/><path class="cls-5" d="M1162.273,47.5v65h20v-5h-15v-55h25v15h15v15h5V63.965L1195.808,47.5Zm35,8.535,6.465,6.465h-6.465Zm10,31.465v25h5v-25Zm-10,7.5v17.5h5V95Zm-10,7.5v10h5v-10Z" transform="translate(0)"/><rect class="cls-1" x="1147.273" y="40" width="80" height="80"/><path class="cls-3" d="M329.7,68.066l12.375,12.375.773.809-.773.809L329.7,94.434l-1.617-1.618L339.65,81.25,328.084,69.684Z" transform="translate(0)"/><rect class="cls-1" x="315.111" y="63.25" width="36" height="36" transform="translate(666.222 162.5) rotate(180)"/><path class="cls-3" d="M576.084,68.066l12.375,12.375.773.809-.773.809L576.084,94.434l-1.617-1.618L586.033,81.25,574.467,69.684Z" transform="translate(0)"/><rect class="cls-1" x="561.494" y="63.25" width="36" height="36" transform="translate(1158.988 162.5) rotate(180)"/><path class="cls-3" d="M815.055,68.066,827.43,80.441l.774.809-.774.809L815.055,94.434l-1.617-1.618L825,81.25,813.438,69.684Z" transform="translate(0)"/><rect class="cls-1" x="800.465" y="63.25" width="36" height="36" transform="translate(1636.931 162.5) rotate(180)"/><path class="cls-3" d="M1060.47,68.066l12.375,12.375.774.809-.774.809L1060.47,94.434l-1.617-1.618,11.566-11.566-11.566-11.566Z" transform="translate(0)"/><rect class="cls-1" x="1045.88" y="63.25" width="36" height="36" transform="translate(2127.761 162.5) rotate(180)"/></g></g></svg>