<svg xmlns="http://www.w3.org/2000/svg" xmlns:xlink="http://www.w3.org/1999/xlink" viewBox="0 0 401 401"><defs><style>.cls-1,.cls-4{fill:none;}.cls-1{stroke-miterlimit:10;stroke-dasharray:5.984 5.984;stroke:url(#linear-gradient);}.cls-2{fill:#f4ae35;}.cls-3{fill:#034e91;}</style><linearGradient id="linear-gradient" x1="58.725" y1="342.275" x2="342.275" y2="58.725" gradientUnits="userSpaceOnUse"><stop offset="0.15" stop-color="#034e91" stop-opacity="0"/><stop offset="1" stop-color="#034e91"/></linearGradient></defs><g id="Layer_2" data-name="Layer 2"><g id="Process"><circle class="cls-1" cx="200.5" cy="200.5" r="200"/><circle class="cls-2" cx="200.5" cy="200.5" r="180"/><path class="cls-3" d="M155.5,138.625a33.849,33.849,0,0,0-33.75,33.75,32.519,32.519,0,0,0,14.063,27c-15.188,7.875-25.313,23.058-25.313,40.5h11.25a33.75,33.75,0,0,1,67.5,0H200.5a34.01,34.01,0,0,1,32.629-33.75h1.121a33.53,33.53,0,0,0,30.938-20.248.546.546,0,0,1,.56-.56,3.389,3.389,0,0,0,.56-2.252c0-.563.009-.569.571-1.132,0-.562.561-1.679.561-2.241A2.074,2.074,0,0,1,268,178a2.075,2.075,0,0,1,.56-1.692v-3.373a33.75,33.75,0,0,0-67.5,0,32.52,32.52,0,0,0,14.063,27A44.871,44.871,0,0,0,195.435,218.5a44.874,44.874,0,0,0-19.687-18.556,35.495,35.495,0,0,0,13.5-27.565A33.849,33.849,0,0,0,155.5,138.625Zm0,11.25a22.5,22.5,0,1,1-22.5,22.5A22.566,22.566,0,0,1,155.5,149.875Zm78.75,0a22.5,22.5,0,1,1-22.5,22.5A22.566,22.566,0,0,1,234.25,149.875Zm11.81,61.875v11.81A28.666,28.666,0,0,0,236.5,227.5l-8.437-8.437-7.877,7.866,8.437,8.438a20.219,20.219,0,0,0-3.933,10.129H211.75v11.25h11.81c.563,3.375,2.257,6.754,3.944,10.129l-8.437,8.438,7.866,7.866,8.438-8.437a28.714,28.714,0,0,0,9.569,3.944V290.5h11.25V278.69a28.666,28.666,0,0,0,9.558-3.944l8.437,8.437,7.878-7.866-8.438-8.438a20.223,20.223,0,0,0,3.933-10.129H290.5V245.5H278.69c-.563-3.375-2.257-6.754-3.944-10.129l8.437-8.438-7.866-7.866-8.438,8.437a28.714,28.714,0,0,0-9.569-3.944V211.75Zm5.065,22.5a16.875,16.875,0,1,1-16.875,16.875A16.573,16.573,0,0,1,251.125,234.25Zm0,11.25a4.91,4.91,0,0,0-2.065.483,6.538,6.538,0,0,0-3.077,3.077,4.656,4.656,0,0,0,0,4.13,6.538,6.538,0,0,0,3.077,3.077,4.91,4.91,0,0,0,2.065.483,5.625,5.625,0,0,0,0-11.25Z"/><rect class="cls-4" x="110.5" y="110.5" width="180" height="180"/></g></g></svg>