<svg xmlns="http://www.w3.org/2000/svg" viewBox="0 0 165.455 160"><defs><style>.cls-1{fill:#fff;}.cls-2{fill:#034e91;}.cls-3{fill:none;}</style></defs><g id="Layer_2" data-name="Layer 2"><g id="Home"><rect class="cls-1" width="165.455" height="160" rx="80"/><path class="cls-2" d="M62.727,52.5a15.044,15.044,0,0,0-15,15,14.453,14.453,0,0,0,6.25,12,20.321,20.321,0,0,0-11.25,18h5a15,15,0,0,1,30,0h5a15.116,15.116,0,0,1,14.5-15h.5a14.9,14.9,0,0,0,13.75-9,.243.243,0,0,1,.249-.249,1.5,1.5,0,0,0,.249-1c0-.25,0-.253.254-.5,0-.25.249-.746.249-1a.921.921,0,0,1,.249-.752.921.921,0,0,1,.249-.752v-1.5a15,15,0,0,0-30,0,14.453,14.453,0,0,0,6.25,12A19.944,19.944,0,0,0,80.476,88a19.944,19.944,0,0,0-8.75-8.247,15.775,15.775,0,0,0,6-12.251A15.044,15.044,0,0,0,62.727,52.5Zm0,5a10,10,0,1,1-10,10A10.029,10.029,0,0,1,62.727,57.5Zm35,0a10,10,0,1,1-10,10A10.029,10.029,0,0,1,97.727,57.5ZM102.976,85v5.249A12.73,12.73,0,0,0,98.728,92l-3.75-3.75-3.5,3.5,3.75,3.75a8.991,8.991,0,0,0-1.748,4.5H87.727v5h5.249a16.773,16.773,0,0,0,1.753,4.5l-3.75,3.75,3.5,3.5,3.75-3.75a12.755,12.755,0,0,0,4.253,1.753V120h5v-5.249A12.73,12.73,0,0,0,111.726,113l3.75,3.75,3.5-3.5-3.75-3.75a8.991,8.991,0,0,0,1.748-4.5h5.752v-5h-5.249a16.773,16.773,0,0,0-1.753-4.5l3.75-3.75-3.5-3.5L112.229,92a12.755,12.755,0,0,0-4.253-1.753V85Zm2.251,10a7.5,7.5,0,1,1-7.5,7.5A7.366,7.366,0,0,1,105.227,95Zm0,5a2.177,2.177,0,0,0-.918.215,2.906,2.906,0,0,0-1.367,1.367,2.067,2.067,0,0,0,0,1.836,2.906,2.906,0,0,0,1.367,1.367,2.177,2.177,0,0,0,.918.215,2.5,2.5,0,0,0,0-5Z"/><rect class="cls-3" x="42.727" y="40" width="80" height="80"/></g></g></svg>