<svg xmlns="http://www.w3.org/2000/svg" viewBox="0 0 165.455 160"><defs><style>.cls-1{fill:#fff;}.cls-2{fill:#034e91;}.cls-3{fill:none;}</style></defs><g id="Layer_2" data-name="Layer 2"><g id="Home"><rect class="cls-1" width="165.455" height="160" rx="80"/><path class="cls-2" d="M57.727,50v60H85.462a19.964,19.964,0,1,0,22.265-29.3V50Zm5,5h40V67.5h-40Zm0,17.5h40V80A19.872,19.872,0,0,0,87.18,87.5H62.727Zm40,12.5a15,15,0,1,1-15,15A14.966,14.966,0,0,1,102.727,85Zm-40,7.5H84.212A19.039,19.039,0,0,0,83.43,105h-20.7Zm48.2.7-8.2,8.2-5.7-5.7L93.43,99.3l7.5,7.5,1.8,1.719,1.8-1.719,10-10Z"/><rect class="cls-3" x="42.727" y="40" width="80" height="80"/></g></g></svg>