<svg xmlns="http://www.w3.org/2000/svg" xmlns:xlink="http://www.w3.org/1999/xlink" viewBox="0 0 401 401"><defs><style>.cls-1,.cls-4{fill:none;}.cls-1{stroke-miterlimit:10;stroke-dasharray:5.984 5.984;stroke:url(#linear-gradient);}.cls-2{fill:#f4ae35;}.cls-3{fill:#034e91;}</style><linearGradient id="linear-gradient" x1="58.725" y1="342.275" x2="342.275" y2="58.725" gradientUnits="userSpaceOnUse"><stop offset="0.15" stop-color="#034e91" stop-opacity="0"/><stop offset="1" stop-color="#034e91"/></linearGradient></defs><g id="Layer_2" data-name="Layer 2"><g id="Process"><circle class="cls-1" cx="200.5" cy="200.5" r="200"/><circle class="cls-2" cx="200.5" cy="200.5" r="180"/><path class="cls-3" d="M144.25,133V268h62.4a44.919,44.919,0,1,0,50.1-65.918V133Zm11.25,11.25h90v28.125h-90Zm0,39.375h90V200.5a44.709,44.709,0,0,0-34.98,16.875H155.5Zm90,28.125a33.75,33.75,0,1,1-33.75,33.75A33.674,33.674,0,0,1,245.5,211.75Zm-90,16.875h48.34a42.844,42.844,0,0,0-1.758,28.125H155.5Zm108.457,1.582L245.5,248.664l-12.832-12.832-8.086,8.086,16.875,16.875,4.043,3.867,4.043-3.867,22.5-22.5Z"/><rect class="cls-4" x="110.5" y="110.5" width="180" height="180"/></g></g></svg>