<svg xmlns="http://www.w3.org/2000/svg" xmlns:xlink="http://www.w3.org/1999/xlink" viewBox="0 0 552.152 400.981"><defs><style>.cls-1{fill:none;}.cls-2{clip-path:url(#clip-path);}.cls-3{fill:url(#linear-gradient);}</style><clipPath id="clip-path" transform="translate(145.237)"><circle class="cls-1" cx="200.5" cy="200.482" r="180"/></clipPath><linearGradient id="linear-gradient" x1="58.727" y1="342.259" x2="342.274" y2="58.712" gradientUnits="userSpaceOnUse"><stop offset="0.15" stop-color="#f4ae35" stop-opacity="0"/><stop offset="1" stop-color="#f4ae35"/></linearGradient></defs><g id="Layer_2" data-name="Layer 2"><g id="Home"><g class="cls-2"><image width="7952" height="5304" transform="translate(0 15.634) scale(0.069)" xlink:href="../Links/shutterstock_1786572482.jpg"/></g><path class="cls-3" d="M200.5,400.981q-1.457,0-2.907-.02l.014-1c1.988.028,3.984.027,5.969,0l.016,1Q202.047,400.982,200.5,400.981Zm-8.9-.193c-1.983-.087-4-.2-5.986-.35l.073-1c1.979.145,3.983.262,5.957.349Zm17.979-.009-.045-1c1.984-.088,3.988-.207,5.957-.353l.074,1C213.586,400.571,211.571,400.69,209.578,400.779Zm-29.94-.87c-1.975-.2-3.979-.441-5.956-.7l.133-.992c1.967.263,3.961.5,5.926.7Zm41.9-.018-.1-1c1.98-.207,3.973-.445,5.925-.708l.134.992C225.531,399.443,223.528,399.683,221.538,399.891ZM167.75,398.32c-1.958-.322-3.944-.679-5.9-1.061l.191-.981c1.948.38,3.924.735,5.874,1.055Zm65.674-.029-.163-.987c1.958-.324,3.934-.68,5.872-1.061l.193.982C237.378,397.607,235.392,397.966,233.424,398.291Zm-77.445-2.27c-1.944-.44-3.905-.917-5.828-1.414l.25-.968c1.913.5,3.865.968,5.8,1.407Zm89.214-.04-.222-.974c1.925-.438,3.875-.913,5.8-1.412l.251.967C249.088,395.064,247.127,395.542,245.193,395.981Zm-100.825-2.963c-1.905-.554-3.834-1.147-5.734-1.763l.309-.951c1.89.613,3.809,1.2,5.7,1.754Zm112.434-.05-.28-.96c1.9-.555,3.819-1.147,5.7-1.758l.308.951C260.641,391.815,258.712,392.41,256.8,392.968Zm-123.864-3.655c-1.869-.668-3.764-1.379-5.632-2.111l.365-.931c1.858.729,3.744,1.436,5.6,2.1Zm135.271-.052-.338-.942c1.862-.667,3.741-1.374,5.586-2.1l.366.931C271.969,387.88,270.08,388.589,268.209,389.261Zm-146.468-4.34c-1.843-.788-3.691-1.611-5.492-2.447l.421-.907c1.792.831,3.63,1.65,5.464,2.435Zm157.613-.041-.394-.919c1.814-.777,3.643-1.593,5.434-2.424l.42.907C283.015,383.28,281.177,384.1,279.354,384.88Zm-168.519-5.016c-1.776-.889-3.57-1.822-5.332-2.772l.475-.88c1.752.945,3.538,1.873,5.305,2.758Zm179.367-.019-.448-.894c1.764-.884,3.541-1.807,5.282-2.746l.475.879C293.761,378.028,291.975,378.957,290.2,379.845Zm10.534-5.678-.5-.867c1.7-.985,3.424-2.014,5.111-3.058l.527.85C304.177,372.142,302.449,373.176,300.736,374.167Zm-200.478,0c-1.731-1-3.465-2.04-5.154-3.085l.527-.851c1.68,1.041,3.405,2.073,5.128,3.07Zm210.659-6.3-.551-.834c1.65-1.091,3.305-2.221,4.922-3.361l.576.818C314.24,365.633,312.575,366.769,310.917,367.865Zm-220.871-.024c-1.668-1.1-3.336-2.242-4.958-3.386l.576-.818c1.614,1.138,3.274,2.272,4.934,3.37Zm230.663-6.877-.6-.8c1.591-1.194,3.177-2.421,4.715-3.649l.624.782C323.9,358.53,322.308,359.764,320.709,360.964Zm-240.475-.042c-1.592-1.2-3.189-2.431-4.745-3.674l.624-.782c1.549,1.237,3.137,2.468,4.721,3.657Zm249.843-7.432-.647-.763c1.512-1.282,3.024-2.6,4.492-3.924l.669.743C333.115,350.875,331.6,352.2,330.077,353.49Zm-259.221-.056c-1.511-1.283-3.031-2.611-4.516-3.949l.669-.743c1.478,1.331,2.99,2.653,4.494,3.929Zm268.132-7.965-.691-.722c1.433-1.371,2.865-2.779,4.252-4.186l.712.7C341.867,342.677,340.429,344.092,338.988,345.469ZM61.943,345.4c-1.438-1.376-2.876-2.792-4.272-4.209l.712-.7c1.389,1.41,2.82,2.819,4.251,4.188Zm285.466-8.474-.733-.68c1.346-1.448,2.691-2.94,4-4.433l.753.658C350.113,333.976,348.761,335.475,347.409,336.93Zm-293.883-.068c-1.355-1.461-2.705-2.96-4.012-4.454l.753-.658c1.3,1.487,2.644,2.978,3.993,4.431ZM355.31,327.9l-.771-.635c1.257-1.527,2.512-3.1,3.728-4.665l.79.612C357.835,324.791,356.574,326.368,355.31,327.9Zm-309.675-.064c-1.26-1.532-2.519-3.108-3.739-4.683l.79-.612c1.214,1.567,2.466,3.135,3.722,4.659Zm317.029-9.422-.809-.589c1.169-1.605,2.329-3.246,3.446-4.88l.825.564C365,315.153,363.839,316.8,362.664,318.416ZM38.3,318.364c-1.171-1.608-2.333-3.255-3.453-4.895l.826-.564c1.114,1.632,2.27,3.27,3.435,4.87Zm331.143-9.858-.841-.54c1.068-1.667,2.127-3.376,3.148-5.079l.857.513C371.579,305.112,370.514,306.83,369.44,308.506Zm-337.9-.031c-1.074-1.675-2.135-3.388-3.154-5.09l.857-.513c1.015,1.693,2.07,3.4,3.138,5.064Zm-6.154-10.269c-.97-1.736-1.927-3.508-2.843-5.267l.887-.461c.911,1.75,1.863,3.512,2.829,5.239Zm350.229,0-.873-.489c.97-1.735,1.926-3.5,2.84-5.261l.886.462C377.55,294.678,376.59,296.457,375.615,298.2ZM19.86,287.592c-.864-1.79-1.713-3.614-2.52-5.424l.913-.407c.8,1.8,1.647,3.615,2.508,5.4Zm361.3-.05-.9-.435c.862-1.788,1.71-3.613,2.518-5.425l.913.407C382.882,283.911,382.03,285.745,381.163,287.542ZM14.984,276.673c-.755-1.836-1.494-3.714-2.2-5.581l.936-.352c.7,1.858,1.435,3.726,2.186,5.553Zm371.078-.111-.925-.38c.754-1.839,1.49-3.713,2.188-5.57l.936.351C387.56,272.83,386.82,274.713,386.062,276.562Zm-375.3-11.114c-.647-1.888-1.271-3.807-1.857-5.7l.955-.3c.583,1.887,1.205,3.8,1.848,5.675Zm379.532-.148-.947-.323c.644-1.888,1.266-3.8,1.849-5.7l.956.294C391.563,261.477,390.938,263.4,390.291,265.3ZM7.218,253.988c-.528-1.913-1.036-3.866-1.51-5.8l.972-.238c.471,1.929.977,3.872,1.5,5.776Zm386.61-.171-.964-.265c.527-1.914,1.03-3.858,1.5-5.777l.972.236C394.863,249.94,394.357,251.894,393.828,253.817ZM4.375,242.336c-.415-1.95-.8-3.93-1.158-5.885l.984-.178c.352,1.945.739,3.915,1.152,5.855Zm392.286-.173-.978-.207c.409-1.938.8-3.908,1.146-5.856l.984.177C397.46,238.235,397.073,240.215,396.661,242.163ZM2.237,230.535c-.3-1.969-.566-3.969-.8-5.944l.993-.119c.235,1.966.5,3.955.8,5.914Zm396.552-.176-.99-.148c.292-1.952.559-3.942.794-5.914l.993.118C399.35,226.4,399.082,228.4,398.789,230.359ZM.81,218.627c-.178-1.981-.329-3.994-.448-5.981l1-.06c.119,1.978.269,3.98.446,5.951Zm399.4-.177-1-.089c.175-1.972.323-3.975.44-5.951l1,.058C400.53,214.455,400.381,216.467,400.206,218.45ZM.093,206.654c-.06-1.993-.092-4.011-.093-6H1c0,1.977.033,3.985.093,5.968Zm400.819-.176-1-.03c.058-1.972.088-3.979.088-5.967v-.337h1v.335C401,202.479,400.97,204.5,400.912,206.478ZM1.082,194.689l-1-.028c.057-1.984.144-4,.259-5.991l1,.058C1.225,190.709,1.138,192.715,1.082,194.689Zm398.82-.512c-.062-1.986-.153-3.991-.273-5.962l1-.06c.121,1.98.213,4,.274,5.991ZM1.774,182.776l-1-.088c.174-1.972.38-3.979.614-5.966l.993.117C2.153,178.816,1.947,180.813,1.774,182.776Zm397.405-.512c-.179-1.973-.389-3.97-.627-5.933l.993-.121c.239,1.974.45,3.981.63,5.964Zm-396-11.34-.989-.147c.292-1.965.618-3.956.97-5.919l.984.177C3.789,166.988,3.464,168.969,3.174,170.924Zm394.575-.507c-.3-1.959-.625-3.939-.979-5.886l.983-.179c.356,1.957.687,3.947.985,5.916ZM5.28,159.178l-.978-.206c.41-1.949.855-3.917,1.324-5.85l.972.235C6.132,155.281,5.688,157.239,5.28,159.178Zm390.333-.5c-.413-1.935-.861-3.892-1.333-5.816l.972-.238c.474,1.934.924,3.9,1.339,5.846ZM8.089,147.58l-.964-.265c.525-1.918,1.089-3.856,1.673-5.76l.956.294C9.172,143.744,8.612,145.671,8.089,147.58Zm384.684-.5c-.527-1.906-1.093-3.833-1.679-5.726l.955-.3c.59,1.9,1.158,3.839,1.688,5.756ZM11.6,136.151l-.946-.322c.642-1.888,1.324-3.794,2.024-5.665l.937.35C12.916,132.376,12.238,134.272,11.6,136.151Zm377.643-.465c-.644-1.879-1.325-3.768-2.022-5.614l.936-.354c.7,1.857,1.384,3.755,2.032,5.643ZM15.8,124.943l-.926-.379c.754-1.841,1.548-3.7,2.362-5.53l.914.406C17.337,121.259,16.547,123.111,15.8,124.943Zm369.232-.423c-.752-1.825-1.542-3.664-2.349-5.466l.913-.408c.81,1.811,1.6,3.659,2.361,5.493ZM20.662,114.013l-.9-.433c.862-1.79,1.766-3.6,2.689-5.375l.887.461C22.419,110.434,21.519,112.233,20.662,114.013Zm359.505-.353c-.86-1.775-1.759-3.564-2.674-5.319l.887-.462c.919,1.763,1.823,3.561,2.687,5.346ZM26.172,103.4l-.873-.487c.973-1.745,1.985-3.5,3.006-5.2l.858.514C28.147,99.925,27.141,101.667,26.172,103.4Zm348.489-.3c-.964-1.72-1.969-3.453-2.989-5.152l.858-.514c1.025,1.707,2.035,3.449,3,5.177ZM32.307,93.145l-.843-.539c1.072-1.677,2.186-3.362,3.31-5.009l.827.563C34.482,89.8,33.374,91.476,32.307,93.145ZM368.53,92.89c-1.068-1.665-2.176-3.336-3.293-4.966l.825-.566c1.123,1.64,2.236,3.319,3.31,4.992ZM39.041,83.277l-.809-.588c1.174-1.614,2.386-3.23,3.6-4.8l.791.613C41.415,80.063,40.208,81.671,39.041,83.277Zm322.757-.22c-1.171-1.605-2.377-3.208-3.585-4.765l.79-.613c1.214,1.565,2.427,3.176,3.6,4.788ZM46.35,73.832l-.773-.636c1.264-1.537,2.57-3.076,3.881-4.576l.752.658C48.906,70.77,47.607,72.3,46.35,73.832Zm308.138-.2c-1.254-1.522-2.554-3.051-3.863-4.545l.752-.659c1.316,1.5,2.622,3.039,3.883,4.568Zm-300.283-8.8-.734-.679c1.356-1.463,2.751-2.921,4.144-4.337l.713.7C56.941,61.935,55.554,63.387,54.205,64.841Zm292.424-.178c-1.351-1.453-2.74-2.9-4.128-4.309l.712-.7c1.395,1.413,2.791,2.869,4.149,4.33ZM62.577,56.337l-.692-.723c1.429-1.367,2.907-2.74,4.392-4.08l.67.742C65.469,53.609,64,54.976,62.577,56.337Zm275.67-.168c-1.438-1.373-2.912-2.737-4.378-4.057l.669-.743c1.474,1.326,2.954,2.7,4.4,4.077ZM71.436,48.349l-.647-.763c1.522-1.292,3.078-2.574,4.626-3.811l.624.781C74.5,45.787,72.95,47.062,71.436,48.349Zm257.936-.163c-1.518-1.285-3.07-2.561-4.613-3.79l.623-.783c1.551,1.237,3.111,2.518,4.637,3.81ZM80.751,40.9l-.6-.8c1.594-1.2,3.224-2.385,4.843-3.528l.576.818C83.958,38.53,82.337,39.711,80.751,40.9Zm239.283-.161c-1.587-1.189-3.213-2.37-4.832-3.51l.575-.817c1.627,1.145,3.262,2.332,4.857,3.527ZM90.488,34.028l-.551-.834c1.661-1.1,3.357-2.187,5.041-3.231l.527.849C93.83,31.852,92.142,32.933,90.488,34.028Zm219.778-.161c-1.65-1.09-3.345-2.172-5.036-3.217l.526-.851c1.7,1.051,3.4,2.139,5.06,3.234ZM100.613,27.75l-.5-.865c1.719-1,3.476-1.98,5.223-2.924l.476.88C104.072,25.78,102.324,26.759,100.613,27.75ZM300.1,27.584c-1.712-.988-3.469-1.967-5.222-2.91l.474-.881c1.762.948,3.527,1.932,5.248,2.925ZM111.09,22.09l-.449-.894c1.78-.894,3.592-1.77,5.385-2.6l.422.907C114.664,20.329,112.861,21.2,111.09,22.09Zm178.48-.17c-1.777-.888-3.591-1.76-5.389-2.592l.42-.908c1.808.837,3.63,1.713,5.417,2.606ZM121.88,17.071l-.395-.919c1.826-.784,3.686-1.549,5.529-2.276l.366.931C125.547,15.529,123.7,16.291,121.88,17.071ZM278.715,16.9c-1.822-.777-3.686-1.539-5.539-2.264l.365-.932c1.862.73,3.735,1.495,5.566,2.277ZM132.965,12.7l-.339-.941c1.878-.676,3.787-1.33,5.674-1.945l.31.951C136.732,11.379,134.833,12.03,132.965,12.7Zm134.6-.166c-1.871-.668-3.778-1.316-5.669-1.927l.308-.951c1.9.613,3.817,1.265,5.7,1.936ZM144.311,9l-.281-.96c1.9-.556,3.843-1.094,5.78-1.6l.253.968C148.135,7.915,146.2,8.45,144.311,9ZM256.2,8.859c-1.9-.55-3.835-1.081-5.755-1.575l.249-.969c1.931.5,3.877,1.03,5.785,1.584ZM155.859,6l-.223-.974c1.935-.443,3.908-.863,5.866-1.249l.194.981C159.748,5.137,157.784,5.555,155.859,6Zm88.78-.114c-1.931-.436-3.9-.849-5.839-1.227l.19-.981c1.954.38,3.929.794,5.87,1.233ZM167.567,3.687,167.4,2.7c1.962-.326,3.958-.627,5.931-.894l.134.991C171.505,3.063,169.52,3.363,167.567,3.687ZM232.925,3.6c-1.96-.321-3.946-.615-5.9-.875l.132-.991c1.967.261,3.963.556,5.932.878ZM179.393,2.085l-.1-.994c1.978-.208,3.987-.389,5.973-.539l.075,1C183.36,1.7,181.361,1.878,179.393,2.085Zm41.7-.053c-1.958-.2-3.958-.377-5.945-.521l.073-1c2,.145,4.006.321,5.974.523Zm-29.8-.842-.045-1c1.981-.09,4-.152,6-.184l.016,1C195.272,1.039,193.265,1.1,191.293,1.19Zm17.9-.023c-1.976-.084-3.983-.141-5.964-.167l.013-1c1.991.027,4.008.083,5.994.168Z" transform="translate(145.237)"/></g></g></svg>