<svg xmlns="http://www.w3.org/2000/svg" xmlns:xlink="http://www.w3.org/1999/xlink" viewBox="0 0 556.272 198.864"><defs><style>.cls-1{fill:none;}.cls-2{fill:#fff;}.cls-3{opacity:0.12;}.cls-4{fill:#034e91;}.cls-5{fill:#182033;}.cls-6{clip-path:url(#clip-path);}</style><clipPath id="clip-path"><circle class="cls-1" cx="88.5" cy="80.5" r="58"/></clipPath></defs><g id="Layer_2" data-name="Layer 2"><g id="Home"><rect class="cls-2" x="0.5" y="0.5" width="555.273" height="160" rx="8"/><g class="cls-3"><rect class="cls-4" x="0.5" y="0.5" width="555.273" height="160" rx="8"/></g><path class="cls-5" d="M170.211,76.681v-9.8h1.414l-.042,1.148v8.653Zm6.958,0-6.635-9.031,1.091-.77,6.636,9.016Zm0,0v-9.8h1.386v9.8Z"/><path class="cls-5" d="M181.467,76.876a.846.846,0,0,1-.609-.252.862.862,0,0,1,0-1.232.846.846,0,0,1,.609-.252.863.863,0,0,1,.623.252.862.862,0,0,1,0,1.232A.863.863,0,0,1,181.467,76.876Z"/><path class="cls-5" d="M191.114,76.849a5.143,5.143,0,0,1-1.422-.183,3.847,3.847,0,0,1-1.106-.5,3.347,3.347,0,0,1-.777-.707,2.428,2.428,0,0,1-.434-.826l1.331-.434a2.118,2.118,0,0,0,.8.994,2.486,2.486,0,0,0,1.443.434,2.828,2.828,0,0,0,1.631-.412,1.28,1.28,0,0,0,.594-1.1,1.241,1.241,0,0,0-.517-1.029,3.694,3.694,0,0,0-1.372-.61l-1.135-.292a4.767,4.767,0,0,1-1.225-.519,2.6,2.6,0,0,1-.875-.855,2.311,2.311,0,0,1-.322-1.245,2.63,2.63,0,0,1,.875-2.1,3.757,3.757,0,0,1,2.527-.756,4.159,4.159,0,0,1,1.653.3,3.374,3.374,0,0,1,1.154.791,2.929,2.929,0,0,1,.651,1.078l-1.33.448a2.086,2.086,0,0,0-.811-1.015,2.489,2.489,0,0,0-1.414-.384,2.126,2.126,0,0,0-1.394.42,1.4,1.4,0,0,0-.511,1.147,1.154,1.154,0,0,0,.4.945,2.686,2.686,0,0,0,1.071.5l1.134.28a4.28,4.28,0,0,1,2.121,1.113,2.409,2.409,0,0,1,.749,1.7,2.662,2.662,0,0,1-.4,1.436,2.755,2.755,0,0,1-1.177,1.008A4.43,4.43,0,0,1,191.114,76.849Z"/><path class="cls-5" d="M199.429,76.849a3.451,3.451,0,0,1-1.805-.469,3.329,3.329,0,0,1-1.233-1.3,4.279,4.279,0,0,1,0-3.808,3.32,3.32,0,0,1,1.239-1.3,3.5,3.5,0,0,1,1.814-.468A3,3,0,0,1,201.13,70a3.212,3.212,0,0,1,1.149,1.372,4.947,4.947,0,0,1,.412,2.093h-1.329a4.144,4.144,0,0,0-.218-1.512,1.942,1.942,0,0,0-.672-.931,1.776,1.776,0,0,0-1.056-.315,2.079,2.079,0,0,0-1.134.3,1.979,1.979,0,0,0-.736.853,3.194,3.194,0,0,0-.258,1.352,2.624,2.624,0,0,0,.294,1.281,2.157,2.157,0,0,0,.8.84,2.194,2.194,0,0,0,1.149.3,1.928,1.928,0,0,0,1.14-.322,2.315,2.315,0,0,0,.721-.827l1.191.547a3.428,3.428,0,0,1-.729.959,3.1,3.1,0,0,1-1.057.637A3.939,3.939,0,0,1,199.429,76.849Zm-2.618-3.389.015-1.092h5.124V73.46Z"/><path class="cls-5" d="M207.241,76.849a3.455,3.455,0,0,1-1.806-.469,3.327,3.327,0,0,1-1.232-1.3,4.27,4.27,0,0,1,0-3.808,3.313,3.313,0,0,1,1.239-1.3,3.492,3.492,0,0,1,1.813-.468,3,3,0,0,1,1.687.482,3.21,3.21,0,0,1,1.148,1.372,4.931,4.931,0,0,1,.412,2.093h-1.329a4.145,4.145,0,0,0-.217-1.512,1.949,1.949,0,0,0-.672-.931,1.779,1.779,0,0,0-1.057-.315,2.084,2.084,0,0,0-1.134.3,1.983,1.983,0,0,0-.735.853,3.178,3.178,0,0,0-.259,1.352,2.635,2.635,0,0,0,.294,1.281,2.16,2.16,0,0,0,.8.84,2.193,2.193,0,0,0,1.148.3,1.934,1.934,0,0,0,1.141-.322,2.315,2.315,0,0,0,.721-.827l1.19.547a3.424,3.424,0,0,1-.728.959,3.11,3.11,0,0,1-1.057.637A3.939,3.939,0,0,1,207.241,76.849Zm-2.618-3.389.014-1.092h5.124V73.46Z"/><path class="cls-5" d="M211.273,70.828V69.681h4.508v1.147Zm3.388,6.021a2.281,2.281,0,0,1-1.624-.539,2.019,2.019,0,0,1-.574-1.547V67.5h1.329v7.07a1.1,1.1,0,0,0,.26.79.979.979,0,0,0,.749.274.964.964,0,0,0,.308-.056,1.675,1.675,0,0,0,.406-.223l.5,1.035a3.133,3.133,0,0,1-.693.35A2.042,2.042,0,0,1,214.661,76.849Z"/><path class="cls-5" d="M217.489,76.681l-.015-9.955h1.33v9.955Zm4.844-3.584a3.69,3.69,0,0,0-.224-1.45,1.371,1.371,0,0,0-.609-.693,2.027,2.027,0,0,0-.875-.21,1.609,1.609,0,0,0-1.344.6,2.661,2.661,0,0,0-.477,1.693h-.559a5.017,5.017,0,0,1,.322-1.9,2.605,2.605,0,0,1,.931-1.211,2.479,2.479,0,0,1,1.449-.42,2.591,2.591,0,0,1,2,.776,3.375,3.375,0,0,1,.707,2.388Zm0,3.584V73.1l1.316-.42v4Z"/><path class="cls-5" d="M227.708,76.849a2.978,2.978,0,0,1-1.938-.568,1.923,1.923,0,0,1-.693-1.575,1.964,1.964,0,0,1,.72-1.644,3.173,3.173,0,0,1,2.01-.568h1.945v1.05H228.17a2.3,2.3,0,0,0-1.357.3.991.991,0,0,0-.393.834.891.891,0,0,0,.372.762,1.7,1.7,0,0,0,1.029.273,1.776,1.776,0,0,0,.987-.266,1.851,1.851,0,0,0,.644-.707,2.093,2.093,0,0,0,.231-.986h.63a3.554,3.554,0,0,1-.658,2.26A2.331,2.331,0,0,1,227.708,76.849Zm2.044-.168-.069-1.219V73.026a3.967,3.967,0,0,0-.176-1.281,1.575,1.575,0,0,0-.531-.777,1.548,1.548,0,0,0-.945-.266,1.961,1.961,0,0,0-.959.225,1.716,1.716,0,0,0-.679.7l-1.2-.447a3.331,3.331,0,0,1,.644-.855,2.833,2.833,0,0,1,.945-.595,3.505,3.505,0,0,1,1.281-.216,3.292,3.292,0,0,1,1.645.377,2.342,2.342,0,0,1,.994,1.127,4.47,4.47,0,0,1,.314,1.855L231,76.681Z"/><path class="cls-5" d="M232.833,76.681v-9.8h1.33v9.8Zm1.288-2.115-.827-.91,3.682-3.975H238.6Zm3.149,2.115L234.7,72.845l.867-.924,3.3,4.76Z"/><path class="cls-5" d="M239.8,73.685v-4h1.33v3.584Zm1.33-.42a3.76,3.76,0,0,0,.218,1.441,1.327,1.327,0,0,0,.608.7,2.091,2.091,0,0,0,.882.21,1.6,1.6,0,0,0,1.33-.6,2.673,2.673,0,0,0,.477-1.7h.573a5.045,5.045,0,0,1-.321,1.9,2.641,2.641,0,0,1-.932,1.211,2.517,2.517,0,0,1-1.463.42,2.553,2.553,0,0,1-1.98-.786,3.4,3.4,0,0,1-.722-2.378Zm3.6,3.416-.084-1.289V69.681h1.315v7Z"/><path class="cls-5" d="M247.966,76.681v-7h1.246l.084,1.287v5.713ZM252.81,73.1a3.766,3.766,0,0,0-.217-1.45,1.332,1.332,0,0,0-.6-.693,2.059,2.059,0,0,0-.89-.21,1.6,1.6,0,0,0-1.33.6,2.667,2.667,0,0,0-.476,1.693h-.574a5.037,5.037,0,0,1,.322-1.9,2.618,2.618,0,0,1,.931-1.211,2.507,2.507,0,0,1,1.463-.42,2.569,2.569,0,0,1,1.981.776,3.414,3.414,0,0,1,.721,2.388Zm0,3.584V73.1l1.33-.42v4Zm4.844-3.584a3.653,3.653,0,0,0-.224-1.45,1.372,1.372,0,0,0-.6-.693,2.007,2.007,0,0,0-.883-.21,1.591,1.591,0,0,0-1.329.6,2.661,2.661,0,0,0-.477,1.693h-.574a5.017,5.017,0,0,1,.322-1.9,2.625,2.625,0,0,1,.931-1.211,2.505,2.505,0,0,1,1.464-.42,2.566,2.566,0,0,1,1.98.776,3.37,3.37,0,0,1,.707,2.388Zm0,3.584V73.1l1.316-.42v4Z"/><path class="cls-5" d="M263.044,76.849a2.981,2.981,0,0,1-1.939-.568,1.922,1.922,0,0,1-.692-1.575,1.961,1.961,0,0,1,.72-1.644,3.171,3.171,0,0,1,2.009-.568h1.946v1.05h-1.582a2.3,2.3,0,0,0-1.358.3.993.993,0,0,0-.392.834.891.891,0,0,0,.371.762,1.707,1.707,0,0,0,1.029.273,1.776,1.776,0,0,0,.987-.266,1.854,1.854,0,0,0,.645-.707,2.1,2.1,0,0,0,.23-.986h.63a3.548,3.548,0,0,1-.658,2.26A2.329,2.329,0,0,1,263.044,76.849Zm2.044-.168-.07-1.219V73.026a4.025,4.025,0,0,0-.175-1.281,1.577,1.577,0,0,0-.532-.777,1.546,1.546,0,0,0-.945-.266,1.961,1.961,0,0,0-.959.225,1.722,1.722,0,0,0-.679.7l-1.2-.447a3.354,3.354,0,0,1,.644-.855,2.843,2.843,0,0,1,.945-.595,3.509,3.509,0,0,1,1.281-.216,3.293,3.293,0,0,1,1.646.377,2.34,2.34,0,0,1,.993,1.127,4.485,4.485,0,0,1,.315,1.855l-.014,3.809Z"/><path class="cls-5" d="M268.167,76.681v-7H269.5v7Zm.813-3.767a3.52,3.52,0,0,1,.434-1.848A2.786,2.786,0,0,1,270.534,70a3.135,3.135,0,0,1,1.442-.35v1.26a3.789,3.789,0,0,0-1.2.189,2.006,2.006,0,0,0-.924.617,1.743,1.743,0,0,0-.357,1.154Z"/><path class="cls-5" d="M273.951,68.2a.759.759,0,0,1-.561-.245.791.791,0,0,1-.238-.567.763.763,0,0,1,.238-.567.78.78,0,0,1,.561-.231.791.791,0,0,1,.8.8.8.8,0,0,1-.232.567A.75.75,0,0,1,273.951,68.2Zm-.673,8.485.028-7h1.317l-.015,7Z"/><path class="cls-5" d="M280.572,76.681v-9.8h1.372v9.8Zm1.19-8.541V66.88h4.746v1.26Zm0,4.339V71.22h4.158v1.259Z"/><path class="cls-5" d="M288.356,76.681v-9.8h1.372v9.8Z"/><path class="cls-5" d="M291.24,76.681l3.948-9.8h1.4l-3.878,9.8Zm1.861-2.619V72.83h5.643v1.232Zm6.034,2.619-3.878-9.8h1.4l3.948,9.8Z"/><path class="cls-5" d="M302.118,76.681v-9.8h1.372v9.8Z"/><path class="cls-5" d="M309.369,76.681l-.014-9.955h1.33v9.955Zm4.844-3.584a3.672,3.672,0,0,0-.224-1.45,1.371,1.371,0,0,0-.609-.693,2.019,2.019,0,0,0-.875-.21,1.61,1.61,0,0,0-1.344.6,2.661,2.661,0,0,0-.476,1.693h-.56a5.017,5.017,0,0,1,.322-1.9,2.623,2.623,0,0,1,.93-1.211,2.487,2.487,0,0,1,1.45-.42,2.588,2.588,0,0,1,2,.776,3.37,3.37,0,0,1,.707,2.388Zm0,3.584V73.1l1.316-.42v4Z"/><path class="cls-5" d="M319.589,76.849a2.981,2.981,0,0,1-1.939-.568,1.922,1.922,0,0,1-.692-1.575,1.961,1.961,0,0,1,.72-1.644,3.171,3.171,0,0,1,2.009-.568h1.946v1.05h-1.582a2.3,2.3,0,0,0-1.358.3.993.993,0,0,0-.392.834.891.891,0,0,0,.371.762,1.7,1.7,0,0,0,1.029.273,1.779,1.779,0,0,0,.987-.266,1.854,1.854,0,0,0,.645-.707,2.1,2.1,0,0,0,.23-.986h.63a3.548,3.548,0,0,1-.658,2.26A2.329,2.329,0,0,1,319.589,76.849Zm2.044-.168-.07-1.219V73.026a4.025,4.025,0,0,0-.175-1.281,1.577,1.577,0,0,0-.532-.777,1.546,1.546,0,0,0-.945-.266,1.961,1.961,0,0,0-.959.225,1.722,1.722,0,0,0-.679.7l-1.2-.447a3.354,3.354,0,0,1,.644-.855,2.843,2.843,0,0,1,.945-.595,3.509,3.509,0,0,1,1.281-.216,3.286,3.286,0,0,1,1.645.377,2.337,2.337,0,0,1,.994,1.127,4.485,4.485,0,0,1,.315,1.855l-.014,3.809Z"/><path class="cls-5" d="M327.219,76.849a3.662,3.662,0,0,1-1.323-.225,2.918,2.918,0,0,1-.98-.6,2.459,2.459,0,0,1-.595-.854l1.148-.5a1.815,1.815,0,0,0,.672.714,1.833,1.833,0,0,0,.994.28,1.991,1.991,0,0,0,.993-.223.7.7,0,0,0,.393-.631.734.734,0,0,0-.294-.616,2.368,2.368,0,0,0-.854-.364l-.659-.168a3.366,3.366,0,0,1-1.518-.8,1.648,1.648,0,0,1-.539-1.2,1.965,1.965,0,0,1,.658-1.582,2.934,2.934,0,0,1,1.946-.559,3.515,3.515,0,0,1,1.155.181,2.571,2.571,0,0,1,.9.518,1.85,1.85,0,0,1,.524.8l-1.119.5a1.145,1.145,0,0,0-.574-.623,2.1,2.1,0,0,0-.952-.2,1.433,1.433,0,0,0-.882.245.806.806,0,0,0-.322.679.6.6,0,0,0,.273.455,2.206,2.206,0,0,0,.805.358l.756.181a3.044,3.044,0,0,1,1.134.511,2.369,2.369,0,0,1,.671.771,1.877,1.877,0,0,1,.225.888,1.81,1.81,0,0,1-.343,1.1,2.194,2.194,0,0,1-.938.722A3.436,3.436,0,0,1,327.219,76.849Z"/><path class="cls-5" d="M334.932,76.681v-7h1.246l.084,1.287v5.713Zm4.845-3.584a3.744,3.744,0,0,0-.218-1.45,1.332,1.332,0,0,0-.6-.693,2.054,2.054,0,0,0-.889-.21,1.6,1.6,0,0,0-1.33.6,2.661,2.661,0,0,0-.477,1.693h-.573a5.018,5.018,0,0,1,.321-1.9,2.62,2.62,0,0,1,.932-1.211,2.5,2.5,0,0,1,1.463-.42,2.566,2.566,0,0,1,1.98.776,3.414,3.414,0,0,1,.722,2.388Zm0,3.584V73.1l1.33-.42v4Zm4.844-3.584a3.69,3.69,0,0,0-.224-1.45,1.375,1.375,0,0,0-.6-.693,2,2,0,0,0-.881-.21,1.6,1.6,0,0,0-1.33.6,2.661,2.661,0,0,0-.476,1.693h-.574a5.017,5.017,0,0,1,.322-1.9,2.605,2.605,0,0,1,.931-1.211,2.5,2.5,0,0,1,1.463-.42,2.571,2.571,0,0,1,1.981.776,3.375,3.375,0,0,1,.707,2.388Zm0,3.584V73.1l1.316-.42v4Z"/><path class="cls-5" d="M350.934,76.849a3.591,3.591,0,0,1-1.848-.469,3.35,3.35,0,0,1-1.253-1.3,3.881,3.881,0,0,1-.455-1.9,3.931,3.931,0,0,1,.449-1.905,3.3,3.3,0,0,1,1.246-1.3,3.828,3.828,0,0,1,3.668,0,3.309,3.309,0,0,1,1.246,1.3,4.279,4.279,0,0,1,0,3.808,3.323,3.323,0,0,1-1.239,1.3A3.5,3.5,0,0,1,350.934,76.849Zm0-1.219a2.024,2.024,0,0,0,1.12-.315,2.15,2.15,0,0,0,.764-.861,3.12,3.12,0,0,0,0-2.548,2.1,2.1,0,0,0-1.911-1.177,2.046,2.046,0,0,0-1.135.317,2.185,2.185,0,0,0-.77.86,3.038,3.038,0,0,0,0,2.548,2.162,2.162,0,0,0,.785.861A2.118,2.118,0,0,0,350.934,75.63Z"/><path class="cls-5" d="M356.03,76.681v-7h1.33v7Zm.812-3.767a3.52,3.52,0,0,1,.434-1.848A2.786,2.786,0,0,1,358.4,70a3.135,3.135,0,0,1,1.442-.35v1.26a3.789,3.789,0,0,0-1.2.189,2.011,2.011,0,0,0-.924.617,1.743,1.743,0,0,0-.357,1.154Z"/><path class="cls-5" d="M364.15,76.849a3.455,3.455,0,0,1-1.806-.469,3.334,3.334,0,0,1-1.232-1.3,4.279,4.279,0,0,1,0-3.808,3.32,3.32,0,0,1,1.239-1.3,3.494,3.494,0,0,1,1.814-.468,3,3,0,0,1,1.686.482A3.219,3.219,0,0,1,367,71.367a4.947,4.947,0,0,1,.412,2.093h-1.329a4.165,4.165,0,0,0-.218-1.512,1.949,1.949,0,0,0-.672-.931,1.779,1.779,0,0,0-1.057-.315A2.084,2.084,0,0,0,363,71a1.983,1.983,0,0,0-.735.853,3.178,3.178,0,0,0-.259,1.352,2.635,2.635,0,0,0,.294,1.281,2.167,2.167,0,0,0,.8.84,2.194,2.194,0,0,0,1.149.3,1.93,1.93,0,0,0,1.14-.322,2.315,2.315,0,0,0,.721-.827l1.19.547a3.405,3.405,0,0,1-.728.959,3.11,3.11,0,0,1-1.057.637A3.939,3.939,0,0,1,364.15,76.849Zm-2.618-3.389.014-1.092h5.124V73.46Z"/><path class="cls-5" d="M371.738,70.828V69.681h4.508v1.147Zm3.387,6.021a2.284,2.284,0,0,1-1.624-.539,2.022,2.022,0,0,1-.573-1.547V67.5h1.329v7.07a1.1,1.1,0,0,0,.26.79.979.979,0,0,0,.749.274.969.969,0,0,0,.308-.056,1.675,1.675,0,0,0,.406-.223l.5,1.035a3.133,3.133,0,0,1-.693.35A2.043,2.043,0,0,1,375.125,76.849Z"/><path class="cls-5" d="M377.954,76.681l-.014-9.955h1.33v9.955ZM382.8,73.1a3.672,3.672,0,0,0-.224-1.45,1.371,1.371,0,0,0-.609-.693,2.023,2.023,0,0,0-.875-.21,1.61,1.61,0,0,0-1.344.6,2.661,2.661,0,0,0-.476,1.693h-.561a5.016,5.016,0,0,1,.323-1.9,2.623,2.623,0,0,1,.93-1.211,2.487,2.487,0,0,1,1.45-.42,2.588,2.588,0,0,1,2,.776,3.37,3.37,0,0,1,.707,2.388Zm0,3.584V73.1l1.316-.42v4Z"/><path class="cls-5" d="M388.173,76.849a2.978,2.978,0,0,1-1.938-.568,1.923,1.923,0,0,1-.693-1.575,1.964,1.964,0,0,1,.72-1.644,3.173,3.173,0,0,1,2.01-.568h1.945v1.05h-1.582a2.3,2.3,0,0,0-1.357.3.991.991,0,0,0-.393.834.893.893,0,0,0,.371.762,1.708,1.708,0,0,0,1.03.273,1.779,1.779,0,0,0,.987-.266,1.859,1.859,0,0,0,.644-.707,2.093,2.093,0,0,0,.231-.986h.63a3.554,3.554,0,0,1-.658,2.26A2.331,2.331,0,0,1,388.173,76.849Zm2.044-.168-.069-1.219V73.026a4,4,0,0,0-.176-1.281,1.575,1.575,0,0,0-.531-.777,1.548,1.548,0,0,0-.945-.266,1.959,1.959,0,0,0-.959.225,1.716,1.716,0,0,0-.679.7l-1.2-.447a3.35,3.35,0,0,1,.643-.855,2.848,2.848,0,0,1,.946-.595,3.505,3.505,0,0,1,1.281-.216,3.285,3.285,0,0,1,1.644.377,2.339,2.339,0,0,1,1,1.127,4.486,4.486,0,0,1,.314,1.855l-.014,3.809Z"/><path class="cls-5" d="M393.3,76.681v-7h1.246l.084,1.287v5.713Zm4.844-3.584a3.766,3.766,0,0,0-.217-1.45,1.332,1.332,0,0,0-.6-.693,2.059,2.059,0,0,0-.89-.21,1.6,1.6,0,0,0-1.33.6,2.667,2.667,0,0,0-.476,1.693h-.574a5.037,5.037,0,0,1,.322-1.9,2.618,2.618,0,0,1,.931-1.211,2.507,2.507,0,0,1,1.463-.42,2.569,2.569,0,0,1,1.981.776,3.414,3.414,0,0,1,.721,2.388Zm0,3.584V73.1l1.33-.42v4Z"/><path class="cls-5" d="M407.731,76.849a4,4,0,0,1-1.372-.225,2.986,2.986,0,0,1-1.036-.615,2.926,2.926,0,0,1-.644-.855l1.19-.546q.139.2.35.442a1.679,1.679,0,0,0,.56.412,2,2,0,0,0,.868.168,1.946,1.946,0,0,0,1.407-.5,1.689,1.689,0,0,0,.525-1.273,1.546,1.546,0,0,0-.308-.973,1.886,1.886,0,0,0-.9-.609,4.351,4.351,0,0,0-1.449-.211h-.35V71.024h.322a6.2,6.2,0,0,1,1.6.2,4.145,4.145,0,0,1,1.3.582,2.784,2.784,0,0,1,.867.929,2.506,2.506,0,0,1,.308,1.247,2.64,2.64,0,0,1-.441,1.519,2.891,2.891,0,0,1-1.176,1A3.718,3.718,0,0,1,407.731,76.849Zm-1.162-4.957V70.9h.35a3.454,3.454,0,0,0,1.792-.39,1.232,1.232,0,0,0,.644-1.107,1.306,1.306,0,0,0-.217-.735,1.591,1.591,0,0,0-.6-.531,1.933,1.933,0,0,0-.917-.2,2.073,2.073,0,0,0-.651.1,1.968,1.968,0,0,0-.581.308,1.878,1.878,0,0,0-.462.525l-1.148-.517a2.506,2.506,0,0,1,.672-.883,3.148,3.148,0,0,1,1.009-.56,3.723,3.723,0,0,1,1.217-.2,3.519,3.519,0,0,1,1.568.336,2.729,2.729,0,0,1,1.085.924,2.315,2.315,0,0,1,.4,1.33,2.066,2.066,0,0,1-.3,1.113,2.534,2.534,0,0,1-.833.813,4.2,4.2,0,0,1-1.225.5,6.316,6.316,0,0,1-1.491.168Z"/><path class="cls-5" d="M415.8,76.849a4.387,4.387,0,0,1-1.253-.19,4.016,4.016,0,0,1-1.183-.574,2.818,2.818,0,0,1-.868-.986l1.162-.533a2.915,2.915,0,0,0,.98.82,2.505,2.505,0,0,0,1.106.258,2.018,2.018,0,0,0,1.469-.545,1.938,1.938,0,0,0,.561-1.457,1.978,1.978,0,0,0-.546-1.442,1.906,1.906,0,0,0-1.428-.56,2.251,2.251,0,0,0-.966.216,1.946,1.946,0,0,0-.714.54l-1.246-.28.5-5.236h5.306v1.26H413.5l-.126-1.217h1.372l-.6,5.277-.952-.084a3.057,3.057,0,0,1,.469-.574,3.6,3.6,0,0,1,.672-.511,3.772,3.772,0,0,1,.84-.371,2.9,2.9,0,0,1,.945-.126,3.1,3.1,0,0,1,1.568.393,2.888,2.888,0,0,1,1.085,1.084,3.132,3.132,0,0,1,.4,1.59,3.244,3.244,0,0,1-.434,1.693,3.065,3.065,0,0,1-1.19,1.141A3.6,3.6,0,0,1,415.8,76.849Z"/><path class="cls-5" d="M426.659,76.681l-3.067-7h1.414l2.535,6.076.406.924Zm-1.4,2.966a2.38,2.38,0,0,1-.678-.111,5.744,5.744,0,0,1-.763-.294l.49-1.092a4.554,4.554,0,0,0,.539.21,1.353,1.353,0,0,0,.37.071.93.93,0,0,0,.6-.2,1.4,1.4,0,0,0,.4-.546l.813-1.917,2.492-6.09h1.428l-3.318,7.867a7.832,7.832,0,0,1-.56,1.12,1.928,1.928,0,0,1-1.807.979Z"/><path class="cls-5" d="M435.017,76.849a3.459,3.459,0,0,1-1.807-.469,3.339,3.339,0,0,1-1.231-1.3,4.27,4.27,0,0,1,0-3.808,3.313,3.313,0,0,1,1.239-1.3,3.49,3.49,0,0,1,1.813-.468,3,3,0,0,1,1.687.482,3.217,3.217,0,0,1,1.148,1.372,4.931,4.931,0,0,1,.413,2.093h-1.33a4.145,4.145,0,0,0-.217-1.512,1.949,1.949,0,0,0-.672-.931A1.778,1.778,0,0,0,435,70.7a2.08,2.08,0,0,0-1.133.3,1.979,1.979,0,0,0-.736.853,3.194,3.194,0,0,0-.258,1.352,2.646,2.646,0,0,0,.293,1.281,2.167,2.167,0,0,0,.8.84,2.2,2.2,0,0,0,1.149.3,1.926,1.926,0,0,0,1.14-.322,2.318,2.318,0,0,0,.722-.827l1.19.547a3.405,3.405,0,0,1-.728.959,3.1,3.1,0,0,1-1.058.637A3.93,3.93,0,0,1,435.017,76.849ZM432.4,73.46l.014-1.092h5.124V73.46Z"/><path class="cls-5" d="M441.975,76.849a2.981,2.981,0,0,1-1.939-.568,1.923,1.923,0,0,1-.693-1.575,1.962,1.962,0,0,1,.721-1.644,3.168,3.168,0,0,1,2.009-.568h1.946v1.05h-1.582a2.3,2.3,0,0,0-1.358.3.993.993,0,0,0-.392.834.891.891,0,0,0,.371.762,1.7,1.7,0,0,0,1.028.273,1.782,1.782,0,0,0,.988-.266,1.844,1.844,0,0,0,.644-.707,2.093,2.093,0,0,0,.231-.986h.63a3.542,3.542,0,0,1-.659,2.26A2.327,2.327,0,0,1,441.975,76.849Zm2.044-.168-.07-1.219V73.026a4.025,4.025,0,0,0-.175-1.281,1.577,1.577,0,0,0-.532-.777,1.549,1.549,0,0,0-.946-.266,1.967,1.967,0,0,0-.959.225,1.72,1.72,0,0,0-.678.7l-1.2-.447a3.331,3.331,0,0,1,.644-.855,2.839,2.839,0,0,1,.944-.595,3.514,3.514,0,0,1,1.282-.216,3.286,3.286,0,0,1,1.645.377,2.33,2.33,0,0,1,.993,1.127,4.468,4.468,0,0,1,.316,1.855l-.014,3.809Z"/><path class="cls-5" d="M447.1,76.681v-7h1.33v7Zm.813-3.767a3.521,3.521,0,0,1,.433-1.848A2.786,2.786,0,0,1,449.464,70a3.139,3.139,0,0,1,1.443-.35v1.26a3.8,3.8,0,0,0-1.2.189,2.008,2.008,0,0,0-.923.617,1.738,1.738,0,0,0-.358,1.154Z"/><path class="cls-5" d="M454.63,76.849a3.666,3.666,0,0,1-1.323-.225,2.913,2.913,0,0,1-.979-.6,2.433,2.433,0,0,1-.595-.854l1.147-.5a1.883,1.883,0,0,0,1.666.994,2,2,0,0,0,1-.223.7.7,0,0,0,.391-.631.732.732,0,0,0-.294-.616,2.355,2.355,0,0,0-.853-.364l-.659-.168a3.361,3.361,0,0,1-1.518-.8,1.648,1.648,0,0,1-.539-1.2,1.968,1.968,0,0,1,.657-1.582,2.937,2.937,0,0,1,1.946-.559,3.526,3.526,0,0,1,1.156.181,2.566,2.566,0,0,1,.9.518,1.863,1.863,0,0,1,.526.8l-1.121.5a1.145,1.145,0,0,0-.574-.623,2.093,2.093,0,0,0-.952-.2,1.435,1.435,0,0,0-.882.245.8.8,0,0,0-.321.679.6.6,0,0,0,.272.455,2.213,2.213,0,0,0,.805.358l.757.181a3.044,3.044,0,0,1,1.134.511,2.384,2.384,0,0,1,.672.771,1.886,1.886,0,0,1,.223.888,1.81,1.81,0,0,1-.343,1.1,2.182,2.182,0,0,1-.938.722A3.436,3.436,0,0,1,454.63,76.849Z"/><path class="cls-5" d="M465.508,76.849a3.579,3.579,0,0,1-1.847-.469,3.346,3.346,0,0,1-1.254-1.3,3.881,3.881,0,0,1-.454-1.9,3.93,3.93,0,0,1,.447-1.905,3.3,3.3,0,0,1,1.246-1.3,3.828,3.828,0,0,1,3.668,0,3.3,3.3,0,0,1,1.246,1.3,4.27,4.27,0,0,1,0,3.808,3.323,3.323,0,0,1-1.239,1.3A3.5,3.5,0,0,1,465.508,76.849Zm0-1.219a2.027,2.027,0,0,0,1.12-.315,2.14,2.14,0,0,0,.763-.861,3.1,3.1,0,0,0,0-2.548,2.1,2.1,0,0,0-1.911-1.177,2.041,2.041,0,0,0-1.134.317,2.177,2.177,0,0,0-.77.86,3.038,3.038,0,0,0,0,2.548,2.16,2.16,0,0,0,.784.861A2.121,2.121,0,0,0,465.508,75.63Z"/><path class="cls-5" d="M470.058,70.786V69.681h4.508v1.105Zm1.246,5.895V68.91a2.365,2.365,0,0,1,.531-1.673,2.11,2.11,0,0,1,1.611-.566,2.622,2.622,0,0,1,.7.1,4.944,4.944,0,0,1,.77.287l-.49,1.022a3.418,3.418,0,0,0-.511-.2,1.335,1.335,0,0,0-.372-.064.8.8,0,0,0-.685.3,1.557,1.557,0,0,0-.224.931v7.631Z"/><path class="cls-5" d="M172.984,96.849a3.459,3.459,0,0,1-1.807-.469,3.339,3.339,0,0,1-1.231-1.3,4.27,4.27,0,0,1,0-3.808,3.313,3.313,0,0,1,1.239-1.3A3.487,3.487,0,0,1,173,89.513a3,3,0,0,1,1.687.482,3.224,3.224,0,0,1,1.148,1.372,4.931,4.931,0,0,1,.413,2.093h-1.33a4.166,4.166,0,0,0-.217-1.512,1.955,1.955,0,0,0-.672-.931,1.78,1.78,0,0,0-1.058-.315,2.086,2.086,0,0,0-1.134.3,1.983,1.983,0,0,0-.735.853,3.193,3.193,0,0,0-.259,1.352,2.646,2.646,0,0,0,.294,1.281,2.167,2.167,0,0,0,.8.84,2.2,2.2,0,0,0,1.149.3,1.928,1.928,0,0,0,1.14-.322,2.318,2.318,0,0,0,.722-.827l1.189.547a3.384,3.384,0,0,1-.727.959,3.114,3.114,0,0,1-1.058.637A3.93,3.93,0,0,1,172.984,96.849Zm-2.618-3.389.013-1.092H175.5V93.46Z"/><path class="cls-5" d="M176.792,96.681l2.87-4.019,2-2.981h1.568l-2.7,3.821-2.143,3.179Zm5.026,0L179.7,93.5l-2.731-3.821h1.569l2.015,2.981,2.843,4.019Z"/><path class="cls-5" d="M184.673,99.479v-9.8h1.246L186,90.968v8.511Zm3.626-2.63a2.583,2.583,0,0,1-1.533-.463,2.954,2.954,0,0,1-1-1.287,5.467,5.467,0,0,1,0-3.844,2.959,2.959,0,0,1,1-1.281,2.581,2.581,0,0,1,1.533-.461,2.979,2.979,0,0,1,1.653.461,3.114,3.114,0,0,1,1.112,1.281,4.829,4.829,0,0,1,0,3.844,3.106,3.106,0,0,1-1.112,1.287A2.98,2.98,0,0,1,188.3,96.849Zm-.322-1.2a1.957,1.957,0,0,0,1.106-.315,2.158,2.158,0,0,0,.75-.868,2.87,2.87,0,0,0,.272-1.28,2.917,2.917,0,0,0-.266-1.282,2.1,2.1,0,0,0-.742-.868,1.954,1.954,0,0,0-1.105-.315,1.769,1.769,0,0,0-1.03.315,2.071,2.071,0,0,0-.707.875,3.364,3.364,0,0,0,0,2.555,2.092,2.092,0,0,0,.7.868A1.728,1.728,0,0,0,187.977,95.644Z"/><path class="cls-5" d="M196.154,96.849a3.459,3.459,0,0,1-1.807-.469,3.339,3.339,0,0,1-1.231-1.3,4.261,4.261,0,0,1,0-3.808,3.313,3.313,0,0,1,1.239-1.3,3.486,3.486,0,0,1,1.812-.468,3,3,0,0,1,1.688.482A3.215,3.215,0,0,1,199,91.367a4.916,4.916,0,0,1,.414,2.093h-1.331a4.146,4.146,0,0,0-.216-1.512,1.955,1.955,0,0,0-.672-.931,1.78,1.78,0,0,0-1.058-.315,2.086,2.086,0,0,0-1.134.3,1.983,1.983,0,0,0-.735.853,3.193,3.193,0,0,0-.259,1.352,2.646,2.646,0,0,0,.294,1.281,2.16,2.16,0,0,0,.8.84,2.2,2.2,0,0,0,1.148.3,1.931,1.931,0,0,0,1.141-.322,2.318,2.318,0,0,0,.722-.827l1.189.547a3.384,3.384,0,0,1-.727.959,3.114,3.114,0,0,1-1.058.637A3.93,3.93,0,0,1,196.154,96.849Zm-2.618-3.389.013-1.092h5.124V93.46Z"/><path class="cls-5" d="M200.871,96.681v-7h1.33v7Zm.812-3.767a3.52,3.52,0,0,1,.434-1.848A2.786,2.786,0,0,1,203.237,90a3.135,3.135,0,0,1,1.442-.35v1.26a3.789,3.789,0,0,0-1.2.189,2.006,2.006,0,0,0-.924.617,1.743,1.743,0,0,0-.357,1.154Z"/><path class="cls-5" d="M206.654,88.2a.759.759,0,0,1-.561-.245.791.791,0,0,1-.238-.567.763.763,0,0,1,.238-.567.78.78,0,0,1,.561-.231.791.791,0,0,1,.8.8.8.8,0,0,1-.232.567A.75.75,0,0,1,206.654,88.2Zm-.673,8.485.028-7h1.317l-.015,7Z"/><path class="cls-5" d="M212.491,96.849a3.455,3.455,0,0,1-1.806-.469,3.327,3.327,0,0,1-1.232-1.3,4.27,4.27,0,0,1,0-3.808,3.313,3.313,0,0,1,1.239-1.3,3.492,3.492,0,0,1,1.813-.468,3,3,0,0,1,1.687.482,3.21,3.21,0,0,1,1.148,1.372,4.931,4.931,0,0,1,.412,2.093h-1.329a4.145,4.145,0,0,0-.217-1.512,1.949,1.949,0,0,0-.672-.931,1.779,1.779,0,0,0-1.057-.315,2.084,2.084,0,0,0-1.134.3,1.983,1.983,0,0,0-.735.853,3.178,3.178,0,0,0-.259,1.352,2.635,2.635,0,0,0,.294,1.281,2.16,2.16,0,0,0,.8.84,2.193,2.193,0,0,0,1.148.3,1.934,1.934,0,0,0,1.141-.322,2.315,2.315,0,0,0,.721-.827l1.19.547a3.424,3.424,0,0,1-.728.959,3.11,3.11,0,0,1-1.057.637A3.939,3.939,0,0,1,212.491,96.849Zm-2.618-3.389.014-1.092h5.124V93.46Z"/><path class="cls-5" d="M217.208,96.681v-7h1.247l.084,1.287v5.713Zm4.845-3.584a3.744,3.744,0,0,0-.218-1.45,1.328,1.328,0,0,0-.6-.693,2.054,2.054,0,0,0-.889-.21,1.6,1.6,0,0,0-1.33.6,2.667,2.667,0,0,0-.476,1.693h-.574a5.017,5.017,0,0,1,.322-1.9,2.612,2.612,0,0,1,.931-1.211,2.507,2.507,0,0,1,1.463-.42,2.569,2.569,0,0,1,1.981.776,3.419,3.419,0,0,1,.721,2.388Zm0,3.584V93.1l1.33-.42v4Z"/><path class="cls-5" d="M228.4,96.849a3.661,3.661,0,0,1-1.862-.469,3.326,3.326,0,0,1-1.268-1.3,4.22,4.22,0,0,1,0-3.808,3.34,3.34,0,0,1,1.261-1.3,3.83,3.83,0,0,1,3.682.007,2.968,2.968,0,0,1,1.224,1.359l-1.2.5a1.977,1.977,0,0,0-.764-.813,2.207,2.207,0,0,0-1.14-.294,2.061,2.061,0,0,0-1.12.308,2.129,2.129,0,0,0-.771.861,2.777,2.777,0,0,0-.279,1.268,2.73,2.73,0,0,0,.279,1.259,2.17,2.17,0,0,0,.784.862,2.1,2.1,0,0,0,1.135.314,2.039,2.039,0,0,0,1.9-1.219l1.218.491a3.164,3.164,0,0,1-1.224,1.442A3.393,3.393,0,0,1,228.4,96.849Z"/><path class="cls-5" d="M236.025,96.849a3.459,3.459,0,0,1-1.807-.469,3.339,3.339,0,0,1-1.231-1.3,4.27,4.27,0,0,1,0-3.808,3.313,3.313,0,0,1,1.239-1.3,3.487,3.487,0,0,1,1.813-.468,3,3,0,0,1,1.687.482,3.224,3.224,0,0,1,1.148,1.372,4.931,4.931,0,0,1,.413,2.093h-1.33a4.166,4.166,0,0,0-.217-1.512,1.955,1.955,0,0,0-.672-.931,1.78,1.78,0,0,0-1.058-.315,2.086,2.086,0,0,0-1.134.3,1.983,1.983,0,0,0-.735.853,3.193,3.193,0,0,0-.259,1.352,2.646,2.646,0,0,0,.294,1.281,2.167,2.167,0,0,0,.8.84,2.2,2.2,0,0,0,1.149.3,1.928,1.928,0,0,0,1.14-.322,2.318,2.318,0,0,0,.722-.827l1.189.547a3.384,3.384,0,0,1-.727.959,3.114,3.114,0,0,1-1.058.637A3.93,3.93,0,0,1,236.025,96.849Zm-2.618-3.389.013-1.092h5.124V93.46Z"/><path class="cls-5" d="M245.054,88.2a.753.753,0,0,1-.559-.245.784.784,0,0,1-.239-.567.757.757,0,0,1,.239-.567.794.794,0,0,1,1.357.567.8.8,0,0,1-.23.567A.754.754,0,0,1,245.054,88.2Zm-.672,8.485.029-7h1.315l-.014,7Z"/><path class="cls-5" d="M247.8,96.681v-7h1.246l.084,1.287v5.713Zm4.844-3.584a3.766,3.766,0,0,0-.217-1.45,1.332,1.332,0,0,0-.6-.693,2.059,2.059,0,0,0-.89-.21,1.6,1.6,0,0,0-1.33.6,2.667,2.667,0,0,0-.476,1.693h-.574a5.037,5.037,0,0,1,.322-1.9,2.618,2.618,0,0,1,.931-1.211,2.507,2.507,0,0,1,1.463-.42,2.569,2.569,0,0,1,1.981.776,3.414,3.414,0,0,1,.721,2.388Zm0,3.584V93.1l1.33-.42v4Z"/><path class="cls-5" d="M258.662,90.828V89.681h4.508v1.147Zm3.388,6.021a2.284,2.284,0,0,1-1.624-.539,2.019,2.019,0,0,1-.574-1.547V87.5h1.33v7.07a1.1,1.1,0,0,0,.259.79.98.98,0,0,0,.749.274.97.97,0,0,0,.309-.056,1.672,1.672,0,0,0,.4-.223l.5,1.035a3.112,3.112,0,0,1-.693.35A2.042,2.042,0,0,1,262.05,96.849Z"/><path class="cls-5" d="M264.877,96.681l-.013-9.955h1.33v9.955Zm4.845-3.584a3.672,3.672,0,0,0-.224-1.45,1.371,1.371,0,0,0-.609-.693,2.027,2.027,0,0,0-.875-.21,1.613,1.613,0,0,0-1.345.6,2.667,2.667,0,0,0-.475,1.693h-.561a5.016,5.016,0,0,1,.323-1.9,2.617,2.617,0,0,1,.93-1.211,2.484,2.484,0,0,1,1.449-.42,2.589,2.589,0,0,1,2,.776,3.375,3.375,0,0,1,.707,2.388Zm0,3.584V93.1l1.316-.42v4Z"/><path class="cls-5" d="M275.952,96.849a3.456,3.456,0,0,1-1.807-.469,3.331,3.331,0,0,1-1.231-1.3,4.261,4.261,0,0,1,0-3.808,3.306,3.306,0,0,1,1.239-1.3,3.486,3.486,0,0,1,1.812-.468,3,3,0,0,1,1.688.482,3.215,3.215,0,0,1,1.147,1.372,4.916,4.916,0,0,1,.413,2.093h-1.33a4.146,4.146,0,0,0-.216-1.512,1.955,1.955,0,0,0-.672-.931,1.78,1.78,0,0,0-1.058-.315,2.086,2.086,0,0,0-1.134.3,1.983,1.983,0,0,0-.735.853,3.193,3.193,0,0,0-.259,1.352,2.646,2.646,0,0,0,.294,1.281,2.16,2.16,0,0,0,.8.84,2.2,2.2,0,0,0,1.148.3,1.931,1.931,0,0,0,1.141-.322,2.318,2.318,0,0,0,.722-.827l1.189.547a3.4,3.4,0,0,1-.727.959,3.114,3.114,0,0,1-1.058.637A3.93,3.93,0,0,1,275.952,96.849Zm-2.619-3.389.014-1.092h5.124V93.46Z"/><path class="cls-5" d="M284.547,96.681v-9.8h1.372v9.8Zm1.05,0v-1.26h4.872v1.26Z"/><path class="cls-5" d="M292.458,88.2a.759.759,0,0,1-.561-.245.791.791,0,0,1-.238-.567.763.763,0,0,1,.238-.567.78.78,0,0,1,.561-.231.789.789,0,0,1,.8.8.8.8,0,0,1-.231.567A.75.75,0,0,1,292.458,88.2Zm-.673,8.485.028-7h1.316l-.014,7Z"/><path class="cls-5" d="M294.655,90.786V89.681h4.509v1.105Zm1.246,5.895V88.91a2.365,2.365,0,0,1,.532-1.673,2.108,2.108,0,0,1,1.61-.566,2.628,2.628,0,0,1,.7.1,4.982,4.982,0,0,1,.77.287l-.49,1.022a3.377,3.377,0,0,0-.511-.2,1.329,1.329,0,0,0-.371-.064.8.8,0,0,0-.685.3,1.557,1.557,0,0,0-.225.931v7.631Z"/><path class="cls-5" d="M303.615,96.849a3.455,3.455,0,0,1-1.806-.469,3.327,3.327,0,0,1-1.232-1.3,4.27,4.27,0,0,1,0-3.808,3.313,3.313,0,0,1,1.239-1.3,3.492,3.492,0,0,1,1.813-.468,3,3,0,0,1,1.687.482,3.21,3.21,0,0,1,1.148,1.372,4.931,4.931,0,0,1,.412,2.093h-1.329a4.145,4.145,0,0,0-.217-1.512,1.949,1.949,0,0,0-.672-.931A1.779,1.779,0,0,0,303.6,90.7a2.084,2.084,0,0,0-1.134.3,1.983,1.983,0,0,0-.735.853,3.178,3.178,0,0,0-.259,1.352,2.635,2.635,0,0,0,.294,1.281,2.16,2.16,0,0,0,.8.84,2.193,2.193,0,0,0,1.148.3,1.934,1.934,0,0,0,1.141-.322,2.315,2.315,0,0,0,.721-.827l1.19.547a3.424,3.424,0,0,1-.728.959,3.11,3.11,0,0,1-1.057.637A3.939,3.939,0,0,1,303.615,96.849ZM301,93.46l.014-1.092h5.124V93.46Z"/><path class="cls-5" d="M312.21,96.681v-9.8h1.373v9.8Z"/><path class="cls-5" d="M315.892,96.681v-7h1.246l.084,1.287v5.713Zm4.845-3.584a3.744,3.744,0,0,0-.218-1.45,1.329,1.329,0,0,0-.6-.693,2.046,2.046,0,0,0-.888-.21,1.6,1.6,0,0,0-1.33.6,2.661,2.661,0,0,0-.477,1.693h-.573a5.018,5.018,0,0,1,.321-1.9,2.62,2.62,0,0,1,.932-1.211,2.5,2.5,0,0,1,1.463-.42,2.566,2.566,0,0,1,1.98.776,3.414,3.414,0,0,1,.722,2.388Zm0,3.584V93.1l1.33-.42v4Z"/><path class="cls-5" d="M326.392,96.849a3.666,3.666,0,0,1-1.323-.225,2.927,2.927,0,0,1-.98-.6,2.443,2.443,0,0,1-.594-.854l1.147-.5a1.883,1.883,0,0,0,1.666.994,2,2,0,0,0,.994-.223.7.7,0,0,0,.392-.631.732.732,0,0,0-.294-.616,2.36,2.36,0,0,0-.854-.364l-.658-.168a3.361,3.361,0,0,1-1.518-.8,1.644,1.644,0,0,1-.539-1.2,1.965,1.965,0,0,1,.657-1.582,2.935,2.935,0,0,1,1.946-.559,3.515,3.515,0,0,1,1.155.181,2.562,2.562,0,0,1,.9.518,1.852,1.852,0,0,1,.525.8l-1.12.5a1.149,1.149,0,0,0-.574-.623,2.1,2.1,0,0,0-.952-.2,1.435,1.435,0,0,0-.882.245.8.8,0,0,0-.321.679.6.6,0,0,0,.272.455,2.206,2.206,0,0,0,.805.358l.757.181a3.031,3.031,0,0,1,1.133.511,2.373,2.373,0,0,1,.672.771,1.876,1.876,0,0,1,.224.888,1.81,1.81,0,0,1-.343,1.1,2.182,2.182,0,0,1-.938.722A3.436,3.436,0,0,1,326.392,96.849Z"/><path class="cls-5" d="M330.382,93.685v-4h1.33v3.584Zm1.33-.42a3.783,3.783,0,0,0,.217,1.441,1.326,1.326,0,0,0,.61.7,2.075,2.075,0,0,0,.881.21,1.6,1.6,0,0,0,1.33-.6,2.673,2.673,0,0,0,.476-1.7h.574a5.024,5.024,0,0,1-.322,1.9,2.632,2.632,0,0,1-.931,1.211,2.519,2.519,0,0,1-1.463.42,2.555,2.555,0,0,1-1.981-.786,3.413,3.413,0,0,1-.721-2.378Zm3.6,3.416-.084-1.289V89.681h1.316v7Z"/><path class="cls-5" d="M338.543,96.681v-7h1.331v7Zm.813-3.767a3.511,3.511,0,0,1,.434-1.848A2.786,2.786,0,0,1,340.91,90a3.135,3.135,0,0,1,1.442-.35v1.26a3.789,3.789,0,0,0-1.2.189,2.006,2.006,0,0,0-.924.617,1.743,1.743,0,0,0-.357,1.154Z"/><path class="cls-5" d="M345.81,96.849a2.981,2.981,0,0,1-1.939-.568,1.923,1.923,0,0,1-.693-1.575,1.959,1.959,0,0,1,.721-1.644,3.168,3.168,0,0,1,2.009-.568h1.946v1.05h-1.582a2.3,2.3,0,0,0-1.358.3.993.993,0,0,0-.392.834.891.891,0,0,0,.371.762,1.7,1.7,0,0,0,1.028.273,1.782,1.782,0,0,0,.988-.266,1.844,1.844,0,0,0,.644-.707,2.093,2.093,0,0,0,.231-.986h.63a3.542,3.542,0,0,1-.659,2.26A2.327,2.327,0,0,1,345.81,96.849Zm2.044-.168-.07-1.219V93.026a4.025,4.025,0,0,0-.175-1.281,1.577,1.577,0,0,0-.532-.777,1.549,1.549,0,0,0-.946-.266,1.967,1.967,0,0,0-.959.225,1.72,1.72,0,0,0-.678.7l-1.2-.447a3.331,3.331,0,0,1,.644-.855,2.839,2.839,0,0,1,.944-.595,3.514,3.514,0,0,1,1.282-.216,3.286,3.286,0,0,1,1.645.377,2.33,2.33,0,0,1,.993,1.127,4.468,4.468,0,0,1,.316,1.855l-.014,3.809Z"/><path class="cls-5" d="M350.933,96.681v-7h1.246l.084,1.287v5.713Zm4.845-3.584a3.744,3.744,0,0,0-.218-1.45,1.329,1.329,0,0,0-.6-.693,2.046,2.046,0,0,0-.888-.21,1.6,1.6,0,0,0-1.33.6,2.661,2.661,0,0,0-.477,1.693h-.573a5.018,5.018,0,0,1,.321-1.9,2.62,2.62,0,0,1,.932-1.211,2.5,2.5,0,0,1,1.463-.42,2.566,2.566,0,0,1,1.98.776,3.414,3.414,0,0,1,.722,2.388Zm0,3.584V93.1l1.33-.42v4Z"/><path class="cls-5" d="M362.12,96.849a3.665,3.665,0,0,1-1.863-.469,3.314,3.314,0,0,1-1.266-1.3,4.211,4.211,0,0,1,0-3.808,3.321,3.321,0,0,1,1.259-1.3,3.832,3.832,0,0,1,3.683.007,2.97,2.97,0,0,1,1.225,1.359l-1.2.5a1.975,1.975,0,0,0-.763-.813,2.212,2.212,0,0,0-1.142-.294,2.064,2.064,0,0,0-1.12.308,2.125,2.125,0,0,0-.769.861,2.765,2.765,0,0,0-.281,1.268,2.718,2.718,0,0,0,.281,1.259,2.156,2.156,0,0,0,.784.862,2.1,2.1,0,0,0,1.134.314,2.039,2.039,0,0,0,1.9-1.219l1.218.491a3.166,3.166,0,0,1-1.225,1.442A3.4,3.4,0,0,1,362.12,96.849Z"/><path class="cls-5" d="M369.75,96.849a3.452,3.452,0,0,1-1.806-.469,3.329,3.329,0,0,1-1.233-1.3,4.279,4.279,0,0,1,0-3.808,3.316,3.316,0,0,1,1.24-1.3,3.492,3.492,0,0,1,1.813-.468,3.005,3.005,0,0,1,1.687.482,3.21,3.21,0,0,1,1.148,1.372,4.931,4.931,0,0,1,.412,2.093h-1.329a4.122,4.122,0,0,0-.218-1.512,1.942,1.942,0,0,0-.672-.931,1.774,1.774,0,0,0-1.056-.315,2.079,2.079,0,0,0-1.134.3,1.983,1.983,0,0,0-.735.853,3.178,3.178,0,0,0-.259,1.352,2.635,2.635,0,0,0,.294,1.281,2.16,2.16,0,0,0,.8.84,2.191,2.191,0,0,0,1.148.3,1.934,1.934,0,0,0,1.141-.322,2.3,2.3,0,0,0,.72-.827l1.191.547a3.428,3.428,0,0,1-.729.959,3.1,3.1,0,0,1-1.056.637A3.948,3.948,0,0,1,369.75,96.849Zm-2.619-3.389.015-1.092h5.124V93.46Z"/><path class="cls-5" d="M380.263,96.849a2.981,2.981,0,0,1-1.939-.568,1.923,1.923,0,0,1-.693-1.575,1.962,1.962,0,0,1,.721-1.644,3.169,3.169,0,0,1,2.009-.568h1.946v1.05h-1.582a2.3,2.3,0,0,0-1.358.3.993.993,0,0,0-.392.834.891.891,0,0,0,.371.762,1.7,1.7,0,0,0,1.029.273,1.781,1.781,0,0,0,.987-.266,1.844,1.844,0,0,0,.644-.707,2.093,2.093,0,0,0,.231-.986h.63a3.542,3.542,0,0,1-.659,2.26A2.325,2.325,0,0,1,380.263,96.849Zm2.044-.168-.07-1.219V93.026a4.025,4.025,0,0,0-.175-1.281,1.577,1.577,0,0,0-.532-.777,1.547,1.547,0,0,0-.946-.266,1.967,1.967,0,0,0-.959.225,1.726,1.726,0,0,0-.678.7l-1.2-.447a3.331,3.331,0,0,1,.644-.855,2.833,2.833,0,0,1,.945-.595,3.505,3.505,0,0,1,1.281-.216,3.286,3.286,0,0,1,1.645.377,2.33,2.33,0,0,1,.993,1.127,4.468,4.468,0,0,1,.316,1.855l-.014,3.809Z"/><path class="cls-5" d="M385.387,96.681v-7h1.246l.084,1.287v5.713Zm4.844-3.584a3.766,3.766,0,0,0-.217-1.45,1.337,1.337,0,0,0-.6-.693,2.059,2.059,0,0,0-.89-.21,1.6,1.6,0,0,0-1.33.6,2.661,2.661,0,0,0-.476,1.693h-.574a5.017,5.017,0,0,1,.322-1.9,2.618,2.618,0,0,1,.931-1.211,2.507,2.507,0,0,1,1.463-.42,2.569,2.569,0,0,1,1.981.776,3.414,3.414,0,0,1,.721,2.388Zm0,3.584V93.1l1.33-.42v4Z"/><path class="cls-5" d="M396.153,96.849a2.963,2.963,0,0,1-1.659-.463,3.115,3.115,0,0,1-1.106-1.287,4.829,4.829,0,0,1,0-3.844,3.123,3.123,0,0,1,1.106-1.281,2.962,2.962,0,0,1,1.659-.461,2.581,2.581,0,0,1,1.533.461,2.944,2.944,0,0,1,1,1.281,5.452,5.452,0,0,1,0,3.844,2.939,2.939,0,0,1-1,1.287A2.583,2.583,0,0,1,396.153,96.849Zm.307-1.2a1.757,1.757,0,0,0,1.037-.315,2.1,2.1,0,0,0,.7-.868,3.382,3.382,0,0,0,0-2.562,2.1,2.1,0,0,0-.7-.868,1.78,1.78,0,0,0-1.05-.315,1.932,1.932,0,0,0-1.092.315,2.111,2.111,0,0,0-.742.868,2.917,2.917,0,0,0-.266,1.282,2.857,2.857,0,0,0,.273,1.28,2.156,2.156,0,0,0,.749.868A1.931,1.931,0,0,0,396.46,95.644Zm2.044,1.037-.055-1.3v-8.5h1.316v9.8Z"/><path class="cls-5" d="M405.63,96.681v-9.8H407v9.8Zm1.275-3.5V91.906h2.281a1.576,1.576,0,0,0,1.219-.524,1.939,1.939,0,0,0,.475-1.352,1.907,1.907,0,0,0-.252-.987,1.8,1.8,0,0,0-.693-.672,1.96,1.96,0,0,0-1.015-.231h-2.015V86.88l2.029-.014a3.571,3.571,0,0,1,1.73.406,3.029,3.029,0,0,1,1.175,1.114,3.1,3.1,0,0,1,.427,1.644,3.326,3.326,0,0,1-.391,1.624,2.892,2.892,0,0,1-1.085,1.12,3.085,3.085,0,0,1-1.589.407Z"/><path class="cls-5" d="M416.607,96.849a3.459,3.459,0,0,1-1.807-.469,3.339,3.339,0,0,1-1.231-1.3,4.27,4.27,0,0,1,0-3.808,3.313,3.313,0,0,1,1.239-1.3,3.487,3.487,0,0,1,1.813-.468,3,3,0,0,1,1.687.482,3.224,3.224,0,0,1,1.148,1.372,4.931,4.931,0,0,1,.413,2.093h-1.33a4.166,4.166,0,0,0-.217-1.512,1.955,1.955,0,0,0-.672-.931,1.78,1.78,0,0,0-1.058-.315,2.086,2.086,0,0,0-1.134.3,1.983,1.983,0,0,0-.735.853,3.193,3.193,0,0,0-.259,1.352,2.646,2.646,0,0,0,.294,1.281,2.167,2.167,0,0,0,.8.84,2.2,2.2,0,0,0,1.149.3,1.928,1.928,0,0,0,1.14-.322,2.318,2.318,0,0,0,.722-.827l1.189.547a3.384,3.384,0,0,1-.727.959,3.114,3.114,0,0,1-1.058.637A3.93,3.93,0,0,1,416.607,96.849Zm-2.618-3.389L414,92.368h5.124V93.46Z"/><path class="cls-5" d="M421.325,96.681v-7h1.246l.084,1.287v5.713Zm4.843-3.584a3.788,3.788,0,0,0-.216-1.45,1.338,1.338,0,0,0-.6-.693,2.059,2.059,0,0,0-.89-.21,1.6,1.6,0,0,0-1.33.6,2.667,2.667,0,0,0-.475,1.693h-.574a5.017,5.017,0,0,1,.322-1.9,2.617,2.617,0,0,1,.93-1.211,2.509,2.509,0,0,1,1.463-.42,2.573,2.573,0,0,1,1.982.776,3.419,3.419,0,0,1,.721,2.388Zm0,3.584V93.1l1.331-.42v4Z"/><path class="cls-5" d="M431.825,96.849a3.667,3.667,0,0,1-1.324-.225,2.937,2.937,0,0,1-.98-.6,2.459,2.459,0,0,1-.6-.854l1.149-.5a1.808,1.808,0,0,0,.672.714,1.828,1.828,0,0,0,.994.28,2,2,0,0,0,.993-.223.7.7,0,0,0,.392-.631.734.734,0,0,0-.293-.616,2.382,2.382,0,0,0-.855-.364l-.658-.168a3.376,3.376,0,0,1-1.519-.8,1.651,1.651,0,0,1-.539-1.2,1.969,1.969,0,0,1,.658-1.582,2.937,2.937,0,0,1,1.947-.559,3.509,3.509,0,0,1,1.154.181,2.562,2.562,0,0,1,.9.518,1.852,1.852,0,0,1,.525.8l-1.119.5a1.153,1.153,0,0,0-.574-.623,2.1,2.1,0,0,0-.953-.2,1.427,1.427,0,0,0-.881.245.807.807,0,0,0-.323.679.6.6,0,0,0,.274.455,2.2,2.2,0,0,0,.8.358l.756.181a3.044,3.044,0,0,1,1.134.511,2.361,2.361,0,0,1,.672.771,1.889,1.889,0,0,1,.225.888,1.817,1.817,0,0,1-.343,1.1,2.2,2.2,0,0,1-.939.722A3.428,3.428,0,0,1,431.825,96.849Z"/><path class="cls-5" d="M436.739,88.2a.759.759,0,0,1-.561-.245.791.791,0,0,1-.238-.567.763.763,0,0,1,.238-.567.78.78,0,0,1,.561-.231.791.791,0,0,1,.8.8.8.8,0,0,1-.232.567A.75.75,0,0,1,436.739,88.2Zm-.673,8.485.028-7h1.317l-.015,7Z"/><path class="cls-5" d="M442.646,96.849a3.586,3.586,0,0,1-1.848-.469,3.36,3.36,0,0,1-1.254-1.3,4.245,4.245,0,0,1-.006-3.808,3.289,3.289,0,0,1,1.246-1.3,3.828,3.828,0,0,1,3.668,0,3.3,3.3,0,0,1,1.246,1.3,4.27,4.27,0,0,1,0,3.808,3.318,3.318,0,0,1-1.24,1.3A3.489,3.489,0,0,1,442.646,96.849Zm0-1.219a2.027,2.027,0,0,0,1.12-.315,2.147,2.147,0,0,0,.763-.861,3.109,3.109,0,0,0,0-2.548,2.1,2.1,0,0,0-1.911-1.177,2.041,2.041,0,0,0-1.134.317,2.187,2.187,0,0,0-.771.86,3.048,3.048,0,0,0,0,2.548,2.17,2.17,0,0,0,.785.861A2.117,2.117,0,0,0,442.646,95.63Z"/><path class="cls-5" d="M447.742,96.681v-7h1.246l.084,1.287v5.713Zm4.844-3.584a3.766,3.766,0,0,0-.217-1.45,1.334,1.334,0,0,0-.6-.693,2.054,2.054,0,0,0-.889-.21,1.6,1.6,0,0,0-1.33.6,2.667,2.667,0,0,0-.476,1.693H448.5a5.018,5.018,0,0,1,.321-1.9,2.618,2.618,0,0,1,.931-1.211,2.507,2.507,0,0,1,1.463-.42,2.569,2.569,0,0,1,1.981.776,3.419,3.419,0,0,1,.722,2.388Zm0,3.584V93.1l1.331-.42v4Z"/><path class="cls-5" d="M458.242,96.849a3.671,3.671,0,0,1-1.324-.225,2.933,2.933,0,0,1-.979-.6,2.433,2.433,0,0,1-.6-.854l1.148-.5a1.883,1.883,0,0,0,1.666.994,2,2,0,0,0,.994-.223.7.7,0,0,0,.391-.631.731.731,0,0,0-.293-.616,2.368,2.368,0,0,0-.854-.364l-.658-.168a3.365,3.365,0,0,1-1.519-.8,1.648,1.648,0,0,1-.539-1.2,1.968,1.968,0,0,1,.657-1.582,2.938,2.938,0,0,1,1.947-.559,3.52,3.52,0,0,1,1.155.181,2.557,2.557,0,0,1,.895.518,1.854,1.854,0,0,1,.526.8l-1.12.5a1.153,1.153,0,0,0-.574-.623,2.1,2.1,0,0,0-.953-.2,1.429,1.429,0,0,0-.881.245.806.806,0,0,0-.322.679.6.6,0,0,0,.273.455,2.2,2.2,0,0,0,.8.358l.757.181a3.044,3.044,0,0,1,1.134.511,2.384,2.384,0,0,1,.672.771,1.888,1.888,0,0,1,.224.888,1.817,1.817,0,0,1-.343,1.1,2.185,2.185,0,0,1-.939.722A3.428,3.428,0,0,1,458.242,96.849Z"/><path class="cls-5" d="M468.727,96.849a2.96,2.96,0,0,1-1.658-.463,3.117,3.117,0,0,1-1.107-1.287,4.84,4.84,0,0,1,0-3.844,3.125,3.125,0,0,1,1.107-1.281,2.959,2.959,0,0,1,1.658-.461,2.575,2.575,0,0,1,1.533.461,2.937,2.937,0,0,1,1,1.281,5.438,5.438,0,0,1,0,3.844,2.932,2.932,0,0,1-1,1.287A2.576,2.576,0,0,1,468.727,96.849Zm.309-1.2a1.759,1.759,0,0,0,1.036-.315,2.106,2.106,0,0,0,.7-.868,3.382,3.382,0,0,0,0-2.562,2.106,2.106,0,0,0-.7-.868,1.783,1.783,0,0,0-1.05-.315,1.937,1.937,0,0,0-1.093.315,2.118,2.118,0,0,0-.742.868,2.931,2.931,0,0,0-.266,1.282,2.843,2.843,0,0,0,.274,1.28,2.149,2.149,0,0,0,.749.868A1.929,1.929,0,0,0,469.036,95.644Zm2.044,1.037-.056-1.3v-8.5h1.315v9.8Z"/><path class="cls-5" d="M477.492,96.849a3.583,3.583,0,0,1-1.848-.469,3.36,3.36,0,0,1-1.254-1.3,3.881,3.881,0,0,1-.454-1.9,3.93,3.93,0,0,1,.447-1.905,3.3,3.3,0,0,1,1.246-1.3,3.828,3.828,0,0,1,3.668,0,3.289,3.289,0,0,1,1.246,1.3,4.261,4.261,0,0,1,0,3.808,3.309,3.309,0,0,1-1.239,1.3A3.492,3.492,0,0,1,477.492,96.849Zm0-1.219a2.027,2.027,0,0,0,1.12-.315,2.147,2.147,0,0,0,.763-.861,3.109,3.109,0,0,0,0-2.548,2.1,2.1,0,0,0-1.912-1.177,2.04,2.04,0,0,0-1.133.317,2.179,2.179,0,0,0-.771.86,3.048,3.048,0,0,0,0,2.548,2.167,2.167,0,0,0,.784.861A2.122,2.122,0,0,0,477.492,95.63Z"/><path class="cls-5" d="M482.587,96.681v-7h1.246l.084,1.287v5.713Zm4.844-3.584a3.766,3.766,0,0,0-.217-1.45,1.332,1.332,0,0,0-.6-.693,2.059,2.059,0,0,0-.89-.21,1.6,1.6,0,0,0-1.33.6,2.667,2.667,0,0,0-.476,1.693h-.574a5.016,5.016,0,0,1,.323-1.9,2.61,2.61,0,0,1,.93-1.211,2.507,2.507,0,0,1,1.463-.42,2.573,2.573,0,0,1,1.982.776,3.418,3.418,0,0,1,.72,2.388Zm0,3.584V93.1l1.33-.42v4Zm4.844-3.584a3.653,3.653,0,0,0-.224-1.45,1.372,1.372,0,0,0-.6-.693,2.007,2.007,0,0,0-.883-.21,1.593,1.593,0,0,0-1.329.6,2.661,2.661,0,0,0-.477,1.693h-.574a5.017,5.017,0,0,1,.322-1.9,2.625,2.625,0,0,1,.931-1.211,2.505,2.505,0,0,1,1.464-.42,2.566,2.566,0,0,1,1.98.776,3.37,3.37,0,0,1,.707,2.388Zm0,3.584V93.1l1.316-.42v4Z"/><path class="cls-5" d="M497.666,96.849a2.982,2.982,0,0,1-1.94-.568,1.922,1.922,0,0,1-.692-1.575,1.961,1.961,0,0,1,.72-1.644,3.171,3.171,0,0,1,2.009-.568h1.946v1.05h-1.582a2.3,2.3,0,0,0-1.358.3.993.993,0,0,0-.392.834.889.889,0,0,0,.372.762,1.7,1.7,0,0,0,1.028.273,1.776,1.776,0,0,0,.987-.266,1.846,1.846,0,0,0,.645-.707,2.1,2.1,0,0,0,.23-.986h.63a3.548,3.548,0,0,1-.658,2.26A2.328,2.328,0,0,1,497.666,96.849Zm2.043-.168-.07-1.219V93.026a4,4,0,0,0-.175-1.281,1.577,1.577,0,0,0-.532-.777,1.546,1.546,0,0,0-.945-.266,1.964,1.964,0,0,0-.959.225,1.722,1.722,0,0,0-.679.7l-1.2-.447a3.335,3.335,0,0,1,.645-.855,2.829,2.829,0,0,1,.944-.595,3.509,3.509,0,0,1,1.281-.216,3.293,3.293,0,0,1,1.646.377,2.34,2.34,0,0,1,.993,1.127,4.469,4.469,0,0,1,.315,1.855l-.013,3.809Z"/><path class="cls-5" d="M503.545,88.2a.759.759,0,0,1-.56-.245.791.791,0,0,1-.238-.567.763.763,0,0,1,.238-.567.779.779,0,0,1,.56-.231.789.789,0,0,1,.8.8.8.8,0,0,1-.231.567A.75.75,0,0,1,503.545,88.2Zm-.672,8.485.028-7h1.316l-.014,7Z"/><path class="cls-5" d="M506.289,96.681v-7h1.246l.084,1.287v5.713Zm4.844-3.584a3.766,3.766,0,0,0-.217-1.45,1.334,1.334,0,0,0-.6-.693,2.054,2.054,0,0,0-.889-.21,1.6,1.6,0,0,0-1.33.6,2.667,2.667,0,0,0-.476,1.693h-.574a5.017,5.017,0,0,1,.322-1.9,2.618,2.618,0,0,1,.931-1.211,2.507,2.507,0,0,1,1.463-.42,2.569,2.569,0,0,1,1.981.776,3.419,3.419,0,0,1,.721,2.388Zm0,3.584V93.1l1.33-.42v4Z"/><path class="cls-5" d="M514.884,96.876a.842.842,0,0,1-.608-.252.862.862,0,0,1,0-1.232.842.842,0,0,1,.608-.252.861.861,0,0,1,.623.252.86.86,0,0,1,0,1.232A.861.861,0,0,1,514.884,96.876Z"/><path class="cls-4" d="M170.334,42.8V30.2h2.574l-.108,2.178V42.817Zm8.73,0L170.91,31.55l2-1.35,8.118,11.2Zm0,0V30.2h2.448V42.8Z"/><path class="cls-4" d="M185.292,43.069a1.37,1.37,0,0,1-1.017-.431,1.417,1.417,0,0,1-.423-1.026,1.4,1.4,0,0,1,.423-1.008,1.413,1.413,0,0,1,2.034,0,1.4,1.4,0,0,1,.423,1.008,1.421,1.421,0,0,1-.423,1.026A1.371,1.371,0,0,1,185.292,43.069Z"/><path class="cls-4" d="M197.766,43.016a6.523,6.523,0,0,1-1.782-.234,5.342,5.342,0,0,1-1.477-.657,4.588,4.588,0,0,1-1.07-.945,2.622,2.622,0,0,1-.549-1.1l2.411-.72a2.363,2.363,0,0,0,.828,1.053,2.883,2.883,0,0,0,3.052.045,1.318,1.318,0,0,0,.6-1.116,1.259,1.259,0,0,0-.477-1A3.274,3.274,0,0,0,198,37.724l-1.638-.432a5.084,5.084,0,0,1-1.62-.711,3.48,3.48,0,0,1-1.1-1.18,3.261,3.261,0,0,1-.4-1.637,3.449,3.449,0,0,1,1.178-2.781,5.022,5.022,0,0,1,3.34-1,5.842,5.842,0,0,1,2.114.352,4.059,4.059,0,0,1,1.522,1,4.416,4.416,0,0,1,.935,1.53l-2.393.738a2.225,2.225,0,0,0-.792-1.044,2.371,2.371,0,0,0-1.458-.432,2.188,2.188,0,0,0-1.413.414,1.417,1.417,0,0,0-.513,1.17,1.162,1.162,0,0,0,.4.936,2.769,2.769,0,0,0,1.108.522l1.656.414A4.731,4.731,0,0,1,201.456,37a3.388,3.388,0,0,1,.9,2.286,3.531,3.531,0,0,1-.54,1.953,3.571,3.571,0,0,1-1.566,1.3A5.959,5.959,0,0,1,197.766,43.016Z"/><path class="cls-4" d="M208.368,43.016a4.572,4.572,0,0,1-2.359-.6,4.3,4.3,0,0,1-1.61-1.665,4.98,4.98,0,0,1-.585-2.448,4.861,4.861,0,0,1,.6-2.448,4.37,4.37,0,0,1,1.656-1.665,4.775,4.775,0,0,1,2.421-.6,4.04,4.04,0,0,1,2.169.62,4.484,4.484,0,0,1,1.611,1.818,6.347,6.347,0,0,1,.611,2.908h-2.411a5.415,5.415,0,0,0-.243-1.9,2.034,2.034,0,0,0-.73-1.025,1.914,1.914,0,0,0-1.1-.315,2.3,2.3,0,0,0-1.189.288,1.765,1.765,0,0,0-.728.873,4.014,4.014,0,0,0-.243,1.521,2.588,2.588,0,0,0,.324,1.35,2.145,2.145,0,0,0,.864.819,2.536,2.536,0,0,0,1.188.278,1.962,1.962,0,0,0,1.142-.3,2.011,2.011,0,0,0,.676-.792l2.231.864a4.445,4.445,0,0,1-.98,1.3,4.1,4.1,0,0,1-1.432.837A5.754,5.754,0,0,1,208.368,43.016Zm-3.006-4.086.017-1.855h6.336V38.93Z"/><path class="cls-4" d="M218.519,43.016a4.566,4.566,0,0,1-2.358-.6,4.3,4.3,0,0,1-1.611-1.665,4.991,4.991,0,0,1-.585-2.448,4.871,4.871,0,0,1,.6-2.448,4.37,4.37,0,0,1,1.656-1.665,4.775,4.775,0,0,1,2.421-.6,4.04,4.04,0,0,1,2.169.62,4.484,4.484,0,0,1,1.611,1.818,6.334,6.334,0,0,1,.612,2.908h-2.412a5.415,5.415,0,0,0-.243-1.9,2.033,2.033,0,0,0-.729-1.025,1.919,1.919,0,0,0-1.1-.315,2.293,2.293,0,0,0-1.188.288,1.762,1.762,0,0,0-.729.873,4.014,4.014,0,0,0-.243,1.521,2.588,2.588,0,0,0,.324,1.35,2.145,2.145,0,0,0,.864.819,2.536,2.536,0,0,0,1.188.278,1.963,1.963,0,0,0,1.143-.3,2.008,2.008,0,0,0,.675-.792l2.232.864a4.431,4.431,0,0,1-.981,1.3,4.1,4.1,0,0,1-1.431.837A5.764,5.764,0,0,1,218.519,43.016Zm-3.006-4.086.018-1.855h6.336V38.93Z"/><path class="cls-4" d="M223.829,35.815V33.8h6.084v2.015Zm4.482,7.2a3.128,3.128,0,0,1-2.259-.738,2.791,2.791,0,0,1-.765-2.106V30.991h2.376v8.658a1.314,1.314,0,0,0,.252.873.911.911,0,0,0,.738.3,1.134,1.134,0,0,0,.4-.08,2.051,2.051,0,0,0,.45-.244l.828,1.783a4.1,4.1,0,0,1-.963.531A2.9,2.9,0,0,1,228.311,43.016Z"/><path class="cls-4" d="M232.037,42.8l-.018-12.708H234.4l.018,12.708Zm5.976-4.608a3.71,3.71,0,0,0-.216-1.421,1.5,1.5,0,0,0-.594-.73,1.975,1.975,0,0,0-2.3.333,2.56,2.56,0,0,0-.495,1.71h-.792a6.268,6.268,0,0,1,.422-2.438,3.446,3.446,0,0,1,1.189-1.532,3.039,3.039,0,0,1,1.773-.53,3.15,3.15,0,0,1,2.52,1,4.6,4.6,0,0,1,.864,3.068Zm0,4.608V38.192l2.376-.541V42.8Z"/><path class="cls-4" d="M245.375,43.016a3.9,3.9,0,0,1-2.511-.72,2.468,2.468,0,0,1-.891-2.034,2.547,2.547,0,0,1,.963-2.169,4.4,4.4,0,0,1,2.709-.729h2.286v1.764h-1.458a3.318,3.318,0,0,0-1.62.279.875.875,0,0,0-.45.783.7.7,0,0,0,.36.622,2.184,2.184,0,0,0,2.033-.055,2.1,2.1,0,0,0,.712-.721,1.756,1.756,0,0,0,.261-.908h.63a4.966,4.966,0,0,1-.711,2.861A2.613,2.613,0,0,1,245.375,43.016Zm2.484-.216-.09-1.819V38.245a4.6,4.6,0,0,0-.181-1.377,1.742,1.742,0,0,0-.548-.863,1.522,1.522,0,0,0-.981-.3,2.014,2.014,0,0,0-.973.234,1.958,1.958,0,0,0-.737.756l-2.16-.738a4.3,4.3,0,0,1,.738-1.125,3.657,3.657,0,0,1,1.269-.9,4.66,4.66,0,0,1,1.917-.351,4.749,4.749,0,0,1,2.259.485,3.084,3.084,0,0,1,1.359,1.432,5.2,5.2,0,0,1,.432,2.312l-.054,4.987Z"/><path class="cls-4" d="M252.232,42.8V30.2h2.376V42.8Zm2.268-2.286-1.421-1.638,4.607-5.076h2.826Zm3.493,2.286L255,38.444l1.548-1.638,4.231,5.994Z"/><path class="cls-4" d="M261.934,38.948V33.8h2.377v4.607Zm2.377-.541a3.887,3.887,0,0,0,.206,1.414,1.436,1.436,0,0,0,.6.738,1.965,1.965,0,0,0,2.295-.342,2.6,2.6,0,0,0,.485-1.7h.811a6.268,6.268,0,0,1-.423,2.438,3.436,3.436,0,0,1-1.189,1.531,3.058,3.058,0,0,1-1.791.531,3.133,3.133,0,0,1-2.493-1,4.571,4.571,0,0,1-.873-3.069Zm3.726,4.393-.145-1.656V33.8h2.377v9Z"/><path class="cls-4" d="M272.5,42.8v-9h2.232l.144,1.656V42.8Zm5.958-4.608a3.857,3.857,0,0,0-.207-1.421,1.454,1.454,0,0,0-.584-.73,1.975,1.975,0,0,0-2.295.333,2.56,2.56,0,0,0-.5,1.71h-.792a6.249,6.249,0,0,1,.423-2.438,3.471,3.471,0,0,1,1.179-1.532,3.03,3.03,0,0,1,1.782-.53,3.156,3.156,0,0,1,2.511,1,4.507,4.507,0,0,1,.855,3.068Zm0,4.608V38.192l2.376-.541V42.8Zm5.976-4.608a3.691,3.691,0,0,0-.216-1.421,1.509,1.509,0,0,0-.585-.73,1.688,1.688,0,0,0-.89-.226,1.713,1.713,0,0,0-1.413.559,2.56,2.56,0,0,0-.5,1.71h-.792a6.249,6.249,0,0,1,.423-2.438,3.439,3.439,0,0,1,1.189-1.532,3.067,3.067,0,0,1,1.791-.53,3.128,3.128,0,0,1,2.5,1,4.609,4.609,0,0,1,.863,3.068Zm0,4.608V38.192l2.376-.541V42.8Z"/><path class="cls-4" d="M291.8,43.016a3.894,3.894,0,0,1-2.51-.72,2.465,2.465,0,0,1-.892-2.034,2.549,2.549,0,0,1,.963-2.169,4.4,4.4,0,0,1,2.709-.729h2.286v1.764h-1.458a3.318,3.318,0,0,0-1.62.279.874.874,0,0,0-.449.783.7.7,0,0,0,.359.622,2.186,2.186,0,0,0,2.034-.055,2.087,2.087,0,0,0,.711-.721,1.756,1.756,0,0,0,.261-.908h.63a4.966,4.966,0,0,1-.711,2.861A2.611,2.611,0,0,1,291.8,43.016Zm2.484-.216-.09-1.819V38.245a4.6,4.6,0,0,0-.18-1.377,1.743,1.743,0,0,0-.549-.863,1.518,1.518,0,0,0-.981-.3,2.01,2.01,0,0,0-.972.234,1.953,1.953,0,0,0-.738.756l-2.16-.738a4.3,4.3,0,0,1,.738-1.125,3.661,3.661,0,0,1,1.27-.9,4.653,4.653,0,0,1,1.917-.351,4.748,4.748,0,0,1,2.258.485,3.084,3.084,0,0,1,1.359,1.432,5.186,5.186,0,0,1,.432,2.312L296.53,42.8Z"/><path class="cls-4" d="M298.654,42.8v-9h2.376v9Zm1.675-4.735a4.665,4.665,0,0,1,.566-2.412,3.7,3.7,0,0,1,1.458-1.422,3.965,3.965,0,0,1,1.863-.467v2.3a5.924,5.924,0,0,0-1.557.2,2.586,2.586,0,0,0-1.179.647,1.563,1.563,0,0,0-.45,1.152Z"/><path class="cls-4" d="M306.988,32.342a1.325,1.325,0,0,1-.954-.4,1.329,1.329,0,0,1,0-1.926,1.359,1.359,0,1,1,.954,2.331ZM305.8,42.8v-9h2.376v9Z"/><g class="cls-6"><image width="853" height="1280" transform="translate(28.028 18.721) scale(0.141)" xlink:href="../Links/Seetha-Mam.jpg"/></g><path class="cls-4" d="M547.772,161H8.5A8.51,8.51,0,0,1,0,152.5V8.5A8.51,8.51,0,0,1,8.5,0H547.772a8.51,8.51,0,0,1,8.5,8.5v144A8.51,8.51,0,0,1,547.772,161ZM8.5,1A7.509,7.509,0,0,0,1,8.5v144A7.509,7.509,0,0,0,8.5,160H547.772a7.508,7.508,0,0,0,7.5-7.5V8.5a7.508,7.508,0,0,0-7.5-7.5Z"/></g></g></svg>