<svg xmlns="http://www.w3.org/2000/svg" xmlns:xlink="http://www.w3.org/1999/xlink" viewBox="0 0 556.272 168.549"><defs><style>.cls-1{fill:none;}.cls-2{fill:#fff;}.cls-3{opacity:0.12;}.cls-4{fill:#034e91;}.cls-5{fill:#182033;}.cls-6{clip-path:url(#clip-path);}</style><clipPath id="clip-path"><circle class="cls-1" cx="88.5" cy="80.5" r="58"/></clipPath></defs><g id="Layer_2" data-name="Layer 2"><g id="Home"><rect class="cls-2" x="0.5" y="0.5" width="555.273" height="160" rx="8"/><g class="cls-3"><rect class="cls-4" x="0.5" y="0.5" width="555.273" height="160" rx="8"/></g><path class="cls-4" d="M547.772,161H8.5A8.51,8.51,0,0,1,0,152.5V8.5A8.51,8.51,0,0,1,8.5,0H547.772a8.51,8.51,0,0,1,8.5,8.5v144A8.51,8.51,0,0,1,547.772,161ZM8.5,1A7.509,7.509,0,0,0,1,8.5v144A7.509,7.509,0,0,0,8.5,160H547.772a7.508,7.508,0,0,0,7.5-7.5V8.5a7.508,7.508,0,0,0-7.5-7.5Z"/><path class="cls-5" d="M170.211,76.681v-9.8h1.372v9.8Zm1.275-3.5V71.906h2.281a1.576,1.576,0,0,0,1.219-.524,1.939,1.939,0,0,0,.475-1.352,1.907,1.907,0,0,0-.252-.987,1.8,1.8,0,0,0-.693-.672,1.96,1.96,0,0,0-1.015-.231h-2.015V66.88l2.029-.014a3.571,3.571,0,0,1,1.73.406,3.029,3.029,0,0,1,1.175,1.114,3.1,3.1,0,0,1,.427,1.644,3.326,3.326,0,0,1-.391,1.624,2.885,2.885,0,0,1-1.085,1.12,3.085,3.085,0,0,1-1.589.407Z"/><path class="cls-5" d="M180.333,76.849a2.978,2.978,0,0,1-1.938-.568,1.923,1.923,0,0,1-.693-1.575,1.964,1.964,0,0,1,.72-1.644,3.173,3.173,0,0,1,2.01-.568h1.945v1.05H180.8a2.3,2.3,0,0,0-1.357.3.991.991,0,0,0-.393.834.891.891,0,0,0,.372.762,1.7,1.7,0,0,0,1.029.273,1.776,1.776,0,0,0,.987-.266,1.851,1.851,0,0,0,.644-.707,2.093,2.093,0,0,0,.231-.986h.63a3.554,3.554,0,0,1-.658,2.26A2.331,2.331,0,0,1,180.333,76.849Zm2.044-.168-.069-1.219V73.026a3.967,3.967,0,0,0-.176-1.281,1.575,1.575,0,0,0-.531-.777,1.548,1.548,0,0,0-.945-.266,1.961,1.961,0,0,0-.959.225,1.716,1.716,0,0,0-.679.7l-1.2-.447a3.331,3.331,0,0,1,.644-.855,2.833,2.833,0,0,1,.945-.595,3.505,3.505,0,0,1,1.281-.216,3.292,3.292,0,0,1,1.645.377,2.342,2.342,0,0,1,.994,1.127,4.47,4.47,0,0,1,.314,1.855l-.013,3.809Z"/><path class="cls-5" d="M188.229,76.849a2.96,2.96,0,0,1-1.658-.463,3.117,3.117,0,0,1-1.107-1.287,4.84,4.84,0,0,1,0-3.844,3.125,3.125,0,0,1,1.107-1.281,2.959,2.959,0,0,1,1.658-.461,2.575,2.575,0,0,1,1.533.461,2.937,2.937,0,0,1,1,1.281,5.438,5.438,0,0,1,0,3.844,2.932,2.932,0,0,1-1,1.287A2.576,2.576,0,0,1,188.229,76.849Zm.309-1.2a1.759,1.759,0,0,0,1.036-.315,2.106,2.106,0,0,0,.7-.868,3.382,3.382,0,0,0,0-2.562,2.106,2.106,0,0,0-.7-.868,1.783,1.783,0,0,0-1.05-.315,1.937,1.937,0,0,0-1.093.315,2.118,2.118,0,0,0-.742.868,2.931,2.931,0,0,0-.266,1.282,2.843,2.843,0,0,0,.274,1.28,2.149,2.149,0,0,0,.749.868A1.927,1.927,0,0,0,188.538,75.644Zm2.044,1.037-.056-1.3v-8.5h1.315v9.8Z"/><path class="cls-5" d="M193.83,76.681v-7h1.246l.084,1.287v5.713Zm4.843-3.584a3.788,3.788,0,0,0-.216-1.45,1.338,1.338,0,0,0-.6-.693,2.059,2.059,0,0,0-.89-.21,1.6,1.6,0,0,0-1.33.6,2.667,2.667,0,0,0-.475,1.693h-.575a5.016,5.016,0,0,1,.323-1.9,2.617,2.617,0,0,1,.93-1.211,2.509,2.509,0,0,1,1.463-.42,2.573,2.573,0,0,1,1.982.776,3.418,3.418,0,0,1,.72,2.388Zm0,3.584V73.1l1.33-.42v4Zm4.844-3.584a3.653,3.653,0,0,0-.224-1.45,1.372,1.372,0,0,0-.6-.693,2.007,2.007,0,0,0-.883-.21,1.593,1.593,0,0,0-1.329.6A2.667,2.667,0,0,0,200,73.04h-.574a5.037,5.037,0,0,1,.322-1.9,2.625,2.625,0,0,1,.931-1.211,2.508,2.508,0,0,1,1.464-.42,2.566,2.566,0,0,1,1.98.776,3.37,3.37,0,0,1,.707,2.388Zm0,3.584V73.1l1.316-.42v4Z"/><path class="cls-5" d="M208.908,76.849a2.984,2.984,0,0,1-1.94-.568,1.922,1.922,0,0,1-.692-1.575A1.959,1.959,0,0,1,207,73.062a3.166,3.166,0,0,1,2.008-.568h1.947v1.05H209.37a2.3,2.3,0,0,0-1.359.3.992.992,0,0,0-.391.834.891.891,0,0,0,.371.762,1.7,1.7,0,0,0,1.028.273,1.776,1.776,0,0,0,.987-.266,1.838,1.838,0,0,0,.645-.707,2.1,2.1,0,0,0,.23-.986h.63a3.548,3.548,0,0,1-.658,2.26A2.327,2.327,0,0,1,208.908,76.849Zm2.044-.168-.071-1.219V73.026a4.028,4.028,0,0,0-.174-1.281,1.578,1.578,0,0,0-.533-.777,1.544,1.544,0,0,0-.945-.266,1.964,1.964,0,0,0-.959.225,1.728,1.728,0,0,0-.679.7l-1.2-.447a3.335,3.335,0,0,1,.645-.855,2.829,2.829,0,0,1,.944-.595,3.509,3.509,0,0,1,1.281-.216,3.29,3.29,0,0,1,1.646.377,2.34,2.34,0,0,1,.993,1.127,4.469,4.469,0,0,1,.315,1.855l-.013,3.809Z"/><path class="cls-5" d="M213.709,79.69a3.285,3.285,0,0,1-1.386-.378l.518-1.106c.2.084.368.149.518.2a1.3,1.3,0,0,0,.364.07q.882,0,.882-1.133V69.681h1.316v7.713a2.389,2.389,0,0,1-.56,1.709A2.179,2.179,0,0,1,213.709,79.69ZM215.263,68.2a.775.775,0,0,1-.574-.245.809.809,0,0,1,.574-1.379.807.807,0,0,1,.574,1.379A.773.773,0,0,1,215.263,68.2Z"/><path class="cls-5" d="M220.261,76.849a2.978,2.978,0,0,1-1.938-.568,1.923,1.923,0,0,1-.694-1.575,1.965,1.965,0,0,1,.721-1.644,3.171,3.171,0,0,1,2.01-.568h1.945v1.05h-1.582a2.3,2.3,0,0,0-1.357.3.991.991,0,0,0-.393.834.893.893,0,0,0,.371.762,1.708,1.708,0,0,0,1.03.273,1.781,1.781,0,0,0,.987-.266,1.849,1.849,0,0,0,.643-.707,2.082,2.082,0,0,0,.232-.986h.63a3.554,3.554,0,0,1-.658,2.26A2.331,2.331,0,0,1,220.261,76.849Zm2.044-.168-.069-1.219V73.026a4,4,0,0,0-.176-1.281,1.575,1.575,0,0,0-.531-.777,1.549,1.549,0,0,0-.946-.266,1.957,1.957,0,0,0-.958.225,1.716,1.716,0,0,0-.679.7l-1.2-.447a3.35,3.35,0,0,1,.643-.855,2.838,2.838,0,0,1,.946-.595,3.5,3.5,0,0,1,1.281-.216,3.285,3.285,0,0,1,1.644.377,2.332,2.332,0,0,1,.994,1.127,4.469,4.469,0,0,1,.315,1.855l-.014,3.809Z"/><path class="cls-5" d="M229.263,76.681v-9.8h1.372v9.8Zm1.274-3.752V71.668h2.156a1.769,1.769,0,0,0,.9-.231,1.813,1.813,0,0,0,.644-.629,1.7,1.7,0,0,0,.245-.9,1.633,1.633,0,0,0-.546-1.274,2.041,2.041,0,0,0-1.414-.49h-1.988V66.88l2.03-.014a3.555,3.555,0,0,1,1.728.378,2.977,2.977,0,0,1,1.177,1.078A2.942,2.942,0,0,1,235.9,69.9a2.774,2.774,0,0,1-.455,1.568,3.089,3.089,0,0,1-1.239,1.071,3.947,3.947,0,0,1-1.764.386Zm4.2,3.752-2.324-4,1.091-.729,2.787,4.733Z"/><path class="cls-5" d="M242.227,68.2a.757.757,0,0,1-.56-.245.788.788,0,0,1-.239-.567.761.761,0,0,1,.239-.567.778.778,0,0,1,.56-.231.791.791,0,0,1,.8.8.8.8,0,0,1-.232.567A.748.748,0,0,1,242.227,68.2Zm-.673,8.485.029-7H242.9l-.015,7Z"/><path class="cls-5" d="M247.477,76.849a3.662,3.662,0,0,1-1.323-.225,2.932,2.932,0,0,1-.981-.6,2.456,2.456,0,0,1-.594-.854l1.148-.5a1.808,1.808,0,0,0,.672.714,1.833,1.833,0,0,0,.994.28,2,2,0,0,0,.993-.223.7.7,0,0,0,.393-.631.734.734,0,0,0-.294-.616,2.374,2.374,0,0,0-.855-.364l-.658-.168a3.366,3.366,0,0,1-1.518-.8,1.648,1.648,0,0,1-.539-1.2,1.965,1.965,0,0,1,.658-1.582,2.934,2.934,0,0,1,1.946-.559,3.5,3.5,0,0,1,1.154.181,2.566,2.566,0,0,1,.9.518,1.85,1.85,0,0,1,.524.8l-1.119.5a1.149,1.149,0,0,0-.574-.623,2.1,2.1,0,0,0-.952-.2,1.433,1.433,0,0,0-.882.245.806.806,0,0,0-.322.679.594.594,0,0,0,.273.455,2.206,2.206,0,0,0,.805.358l.756.181a3.031,3.031,0,0,1,1.133.511,2.361,2.361,0,0,1,.672.771,1.877,1.877,0,0,1,.225.888,1.81,1.81,0,0,1-.343,1.1,2.194,2.194,0,0,1-.938.722A3.436,3.436,0,0,1,247.477,76.849Z"/><path class="cls-5" d="M257.43,76.849a2.978,2.978,0,0,1-1.938-.568,1.923,1.923,0,0,1-.694-1.575,1.965,1.965,0,0,1,.721-1.644,3.171,3.171,0,0,1,2.01-.568h1.945v1.05h-1.582a2.3,2.3,0,0,0-1.357.3.991.991,0,0,0-.393.834.893.893,0,0,0,.371.762,1.707,1.707,0,0,0,1.029.273,1.782,1.782,0,0,0,.988-.266,1.849,1.849,0,0,0,.643-.707,2.082,2.082,0,0,0,.232-.986h.63a3.548,3.548,0,0,1-.659,2.26A2.327,2.327,0,0,1,257.43,76.849Zm2.044-.168-.069-1.219V73.026a4,4,0,0,0-.176-1.281,1.575,1.575,0,0,0-.531-.777,1.551,1.551,0,0,0-.946-.266,1.964,1.964,0,0,0-.959.225,1.72,1.72,0,0,0-.678.7l-1.2-.447a3.328,3.328,0,0,1,.643-.855,2.838,2.838,0,0,1,.946-.595,3.5,3.5,0,0,1,1.281-.216,3.285,3.285,0,0,1,1.644.377,2.332,2.332,0,0,1,.994,1.127,4.469,4.469,0,0,1,.315,1.855l-.014,3.809Z"/><path class="cls-5" d="M268.881,76.849a2.962,2.962,0,0,1-1.658-.463,3.108,3.108,0,0,1-1.106-1.287,4.829,4.829,0,0,1,0-3.844,3.115,3.115,0,0,1,1.106-1.281,2.961,2.961,0,0,1,1.658-.461,2.58,2.58,0,0,1,1.534.461,2.951,2.951,0,0,1,1,1.281,5.452,5.452,0,0,1,0,3.844,2.946,2.946,0,0,1-1,1.287A2.582,2.582,0,0,1,268.881,76.849Zm.309-1.2a1.757,1.757,0,0,0,1.036-.315,2.106,2.106,0,0,0,.7-.868,3.382,3.382,0,0,0,0-2.562,2.106,2.106,0,0,0-.7-.868,1.78,1.78,0,0,0-1.05-.315,1.937,1.937,0,0,0-1.093.315,2.118,2.118,0,0,0-.742.868,2.945,2.945,0,0,0-.265,1.282,2.857,2.857,0,0,0,.273,1.28,2.164,2.164,0,0,0,.749.868A1.932,1.932,0,0,0,269.19,75.644Zm1.988,3.835v-8.5l.07-1.3h1.246v9.8Z"/><path class="cls-5" d="M274.215,73.685v-4h1.33v3.584Zm1.33-.42a3.76,3.76,0,0,0,.218,1.441,1.325,1.325,0,0,0,.609.7,2.082,2.082,0,0,0,.881.21,1.6,1.6,0,0,0,1.33-.6,2.673,2.673,0,0,0,.477-1.7h.573a5.045,5.045,0,0,1-.321,1.9,2.634,2.634,0,0,1-.932,1.211,2.517,2.517,0,0,1-1.463.42,2.553,2.553,0,0,1-1.98-.786,3.408,3.408,0,0,1-.722-2.378Zm3.6,3.416-.084-1.289V69.681h1.315v7Z"/><path class="cls-5" d="M284.618,76.849a2.981,2.981,0,0,1-1.939-.568,1.923,1.923,0,0,1-.693-1.575,1.962,1.962,0,0,1,.721-1.644,3.168,3.168,0,0,1,2.009-.568h1.946v1.05H285.08a2.3,2.3,0,0,0-1.358.3.99.99,0,0,0-.392.834.893.893,0,0,0,.371.762,1.707,1.707,0,0,0,1.029.273,1.776,1.776,0,0,0,.987-.266,1.844,1.844,0,0,0,.644-.707,2.093,2.093,0,0,0,.231-.986h.63a3.554,3.554,0,0,1-.658,2.26A2.33,2.33,0,0,1,284.618,76.849Zm2.044-.168-.07-1.219V73.026a4,4,0,0,0-.175-1.281,1.577,1.577,0,0,0-.532-.777,1.546,1.546,0,0,0-.945-.266,1.961,1.961,0,0,0-.959.225,1.722,1.722,0,0,0-.679.7l-1.2-.447a3.331,3.331,0,0,1,.644-.855,2.833,2.833,0,0,1,.945-.595,3.505,3.505,0,0,1,1.281-.216,3.289,3.289,0,0,1,1.645.377,2.342,2.342,0,0,1,.994,1.127,4.47,4.47,0,0,1,.314,1.855l-.013,3.809Z"/><path class="cls-5" d="M289.742,76.681v-9.8h1.33v9.8Z"/><path class="cls-5" d="M293.816,68.2a.761.761,0,0,1-.561-.245.791.791,0,0,1-.238-.567.763.763,0,0,1,.238-.567.782.782,0,0,1,.561-.231.791.791,0,0,1,.8.8.8.8,0,0,1-.232.567A.748.748,0,0,1,293.816,68.2Zm-.673,8.485.028-7h1.317l-.015,7Z"/><path class="cls-5" d="M296.013,70.786V69.681h4.509v1.105Zm1.246,5.895V68.91a2.36,2.36,0,0,1,.533-1.673,2.1,2.1,0,0,1,1.61-.566,2.621,2.621,0,0,1,.7.1,4.992,4.992,0,0,1,.771.287l-.491,1.022a3.412,3.412,0,0,0-.51-.2,1.341,1.341,0,0,0-.371-.064.8.8,0,0,0-.686.3,1.564,1.564,0,0,0-.225.931v7.631Z"/><path class="cls-5" d="M302.719,68.2a.753.753,0,0,1-.559-.245.784.784,0,0,1-.239-.567.757.757,0,0,1,.239-.567.794.794,0,0,1,1.357.567.8.8,0,0,1-.23.567A.754.754,0,0,1,302.719,68.2Zm-.672,8.485.029-7h1.315l-.014,7Z"/><path class="cls-5" d="M308.557,76.849a3.455,3.455,0,0,1-1.806-.469,3.334,3.334,0,0,1-1.232-1.3,4.279,4.279,0,0,1,0-3.808,3.32,3.32,0,0,1,1.239-1.3,3.5,3.5,0,0,1,1.814-.468,3,3,0,0,1,1.686.482,3.212,3.212,0,0,1,1.149,1.372,4.947,4.947,0,0,1,.412,2.093H310.49a4.144,4.144,0,0,0-.218-1.512,1.942,1.942,0,0,0-.672-.931,1.777,1.777,0,0,0-1.057-.315,2.078,2.078,0,0,0-1.133.3,1.979,1.979,0,0,0-.736.853,3.179,3.179,0,0,0-.258,1.352,2.635,2.635,0,0,0,.293,1.281,2.167,2.167,0,0,0,.8.84,2.194,2.194,0,0,0,1.149.3,1.928,1.928,0,0,0,1.14-.322,2.315,2.315,0,0,0,.721-.827l1.191.547a3.428,3.428,0,0,1-.729.959,3.1,3.1,0,0,1-1.057.637A3.939,3.939,0,0,1,308.557,76.849Zm-2.618-3.389.015-1.092h5.124V73.46Z"/><path class="cls-5" d="M316.046,76.849a2.962,2.962,0,0,1-1.658-.463,3.115,3.115,0,0,1-1.106-1.287,4.829,4.829,0,0,1,0-3.844,3.123,3.123,0,0,1,1.106-1.281,2.961,2.961,0,0,1,1.658-.461,2.58,2.58,0,0,1,1.534.461,2.951,2.951,0,0,1,1,1.281,5.452,5.452,0,0,1,0,3.844,2.946,2.946,0,0,1-1,1.287A2.582,2.582,0,0,1,316.046,76.849Zm.309-1.2a1.757,1.757,0,0,0,1.036-.315,2.106,2.106,0,0,0,.7-.868,3.382,3.382,0,0,0,0-2.562,2.106,2.106,0,0,0-.7-.868,1.78,1.78,0,0,0-1.05-.315,1.932,1.932,0,0,0-1.092.315,2.113,2.113,0,0,0-.743.868,2.945,2.945,0,0,0-.265,1.282,2.857,2.857,0,0,0,.273,1.28,2.164,2.164,0,0,0,.749.868A1.932,1.932,0,0,0,316.355,75.644Zm2.044,1.037-.056-1.3v-8.5h1.316v9.8Z"/><path class="cls-5" d="M327.443,76.849a2.984,2.984,0,0,1-1.94-.568,1.925,1.925,0,0,1-.692-1.575,1.959,1.959,0,0,1,.721-1.644,3.168,3.168,0,0,1,2.009-.568h1.946v1.05h-1.582a2.3,2.3,0,0,0-1.359.3,1,1,0,0,0-.391.834.891.891,0,0,0,.371.762,1.7,1.7,0,0,0,1.028.273,1.782,1.782,0,0,0,.988-.266,1.844,1.844,0,0,0,.644-.707,2.105,2.105,0,0,0,.231-.986h.629a3.542,3.542,0,0,1-.658,2.26A2.327,2.327,0,0,1,327.443,76.849Zm2.044-.168-.07-1.219V73.026a4.025,4.025,0,0,0-.175-1.281,1.572,1.572,0,0,0-.533-.777,1.544,1.544,0,0,0-.945-.266,1.967,1.967,0,0,0-.959.225,1.728,1.728,0,0,0-.679.7l-1.2-.447a3.335,3.335,0,0,1,.645-.855,2.839,2.839,0,0,1,.944-.595,3.509,3.509,0,0,1,1.281-.216,3.288,3.288,0,0,1,1.646.377,2.34,2.34,0,0,1,.993,1.127,4.484,4.484,0,0,1,.316,1.855l-.014,3.809Z"/><path class="cls-5" d="M335.759,76.849a3.661,3.661,0,0,1-1.862-.469,3.326,3.326,0,0,1-1.268-1.3,4.22,4.22,0,0,1,0-3.808,3.34,3.34,0,0,1,1.261-1.3,3.83,3.83,0,0,1,3.682.007,2.963,2.963,0,0,1,1.224,1.359l-1.2.5a1.968,1.968,0,0,0-.763-.813,2.208,2.208,0,0,0-1.141-.294,2.061,2.061,0,0,0-1.12.308,2.137,2.137,0,0,0-.771.861,2.777,2.777,0,0,0-.279,1.268,2.73,2.73,0,0,0,.279,1.259,2.172,2.172,0,0,0,.785.862,2.1,2.1,0,0,0,1.134.314,2.039,2.039,0,0,0,1.9-1.219l1.217.491a3.158,3.158,0,0,1-1.224,1.442A3.391,3.391,0,0,1,335.759,76.849Z"/><path class="cls-5" d="M339.608,70.828V69.681h4.509v1.147ZM343,76.849a2.281,2.281,0,0,1-1.624-.539,2.02,2.02,0,0,1-.575-1.547V67.5h1.33v7.07a1.1,1.1,0,0,0,.259.79.98.98,0,0,0,.749.274.965.965,0,0,0,.309-.056,1.672,1.672,0,0,0,.405-.223l.5,1.035a3.128,3.128,0,0,1-.692.35A2.051,2.051,0,0,1,343,76.849Z"/><path class="cls-5" d="M345.642,73.685v-4h1.33v3.584Zm1.33-.42a3.741,3.741,0,0,0,.218,1.441,1.323,1.323,0,0,0,.608.7,2.091,2.091,0,0,0,.882.21,1.6,1.6,0,0,0,1.33-.6,2.673,2.673,0,0,0,.477-1.7h.573a5.045,5.045,0,0,1-.321,1.9,2.641,2.641,0,0,1-.932,1.211,2.517,2.517,0,0,1-1.463.42,2.551,2.551,0,0,1-1.98-.786,3.4,3.4,0,0,1-.722-2.378Zm3.6,3.416-.084-1.289V69.681H351.8v7Z"/><path class="cls-5" d="M356.044,76.849a2.981,2.981,0,0,1-1.939-.568,1.922,1.922,0,0,1-.692-1.575,1.961,1.961,0,0,1,.72-1.644,3.171,3.171,0,0,1,2.009-.568h1.946v1.05h-1.582a2.3,2.3,0,0,0-1.358.3.993.993,0,0,0-.392.834.891.891,0,0,0,.371.762,1.707,1.707,0,0,0,1.029.273,1.776,1.776,0,0,0,.987-.266,1.854,1.854,0,0,0,.645-.707,2.1,2.1,0,0,0,.23-.986h.63a3.548,3.548,0,0,1-.658,2.26A2.329,2.329,0,0,1,356.044,76.849Zm2.044-.168-.07-1.219V73.026a4.025,4.025,0,0,0-.175-1.281,1.577,1.577,0,0,0-.532-.777,1.546,1.546,0,0,0-.945-.266,1.961,1.961,0,0,0-.959.225,1.722,1.722,0,0,0-.679.7l-1.2-.447a3.354,3.354,0,0,1,.644-.855,2.843,2.843,0,0,1,.945-.595,3.509,3.509,0,0,1,1.281-.216,3.293,3.293,0,0,1,1.646.377,2.34,2.34,0,0,1,.993,1.127,4.485,4.485,0,0,1,.315,1.855l-.014,3.809Z"/><path class="cls-5" d="M361.167,76.681v-7H362.5v7Zm.813-3.767a3.52,3.52,0,0,1,.434-1.848A2.786,2.786,0,0,1,363.534,70a3.135,3.135,0,0,1,1.442-.35v1.26a3.789,3.789,0,0,0-1.2.189,2.006,2.006,0,0,0-.924.617,1.743,1.743,0,0,0-.357,1.154Z"/><path class="cls-5" d="M368.448,76.681l-3.067-7H366.8l2.535,6.076.406.924Zm-1.4,2.966a2.38,2.38,0,0,1-.678-.111,5.744,5.744,0,0,1-.763-.294l.49-1.092a4.554,4.554,0,0,0,.539.21,1.353,1.353,0,0,0,.37.071.93.93,0,0,0,.6-.2,1.412,1.412,0,0,0,.4-.546l.812-1.917,2.492-6.09h1.428l-3.318,7.867a7.832,7.832,0,0,1-.56,1.12,1.928,1.928,0,0,1-1.807.979Z"/><path class="cls-5" d="M376.9,70.786V69.681h4.508v1.105Zm1.246,5.895V68.91a2.365,2.365,0,0,1,.531-1.673,2.11,2.11,0,0,1,1.611-.566,2.628,2.628,0,0,1,.7.1,4.934,4.934,0,0,1,.769.287l-.489,1.022a3.383,3.383,0,0,0-.512-.2,1.323,1.323,0,0,0-.371-.064.8.8,0,0,0-.685.3,1.557,1.557,0,0,0-.224.931v7.631Z"/><path class="cls-5" d="M382.853,76.681v-7h1.33v7Zm.813-3.767a3.521,3.521,0,0,1,.433-1.848A2.786,2.786,0,0,1,385.219,70a3.139,3.139,0,0,1,1.443-.35v1.26a3.8,3.8,0,0,0-1.2.189,2,2,0,0,0-.923.617,1.738,1.738,0,0,0-.358,1.154Z"/><path class="cls-5" d="M391.043,76.849a3.584,3.584,0,0,1-1.847-.469,3.35,3.35,0,0,1-1.253-1.3,3.871,3.871,0,0,1-.455-1.9,3.931,3.931,0,0,1,.448-1.905,3.3,3.3,0,0,1,1.246-1.3,3.828,3.828,0,0,1,3.668,0,3.309,3.309,0,0,1,1.246,1.3,4.279,4.279,0,0,1,0,3.808,3.323,3.323,0,0,1-1.239,1.3A3.494,3.494,0,0,1,391.043,76.849Zm0-1.219a2.03,2.03,0,0,0,1.121-.315,2.14,2.14,0,0,0,.763-.861,3.109,3.109,0,0,0,0-2.548,2.1,2.1,0,0,0-1.911-1.177,2.046,2.046,0,0,0-1.135.317,2.175,2.175,0,0,0-.769.86,3.038,3.038,0,0,0,0,2.548,2.153,2.153,0,0,0,.784.861A2.12,2.12,0,0,0,391.043,75.63Z"/><path class="cls-5" d="M396.139,76.681v-7h1.246l.084,1.287v5.713Zm4.845-3.584a3.744,3.744,0,0,0-.218-1.45,1.332,1.332,0,0,0-.6-.693,2.054,2.054,0,0,0-.889-.21,1.6,1.6,0,0,0-1.33.6,2.661,2.661,0,0,0-.477,1.693H396.9a5.018,5.018,0,0,1,.321-1.9,2.62,2.62,0,0,1,.932-1.211,2.5,2.5,0,0,1,1.463-.42,2.566,2.566,0,0,1,1.98.776,3.414,3.414,0,0,1,.722,2.388Zm0,3.584V73.1l1.33-.42v4Zm4.844-3.584a3.69,3.69,0,0,0-.224-1.45,1.375,1.375,0,0,0-.6-.693,2,2,0,0,0-.881-.21,1.6,1.6,0,0,0-1.33.6,2.661,2.661,0,0,0-.476,1.693h-.574a5.017,5.017,0,0,1,.322-1.9,2.605,2.605,0,0,1,.931-1.211,2.5,2.5,0,0,1,1.463-.42,2.571,2.571,0,0,1,1.981.776,3.375,3.375,0,0,1,.707,2.388Zm0,3.584V73.1l1.316-.42v4Z"/><path class="cls-5" d="M412.855,76.681v-9.8h1.372v9.8Z"/><path class="cls-5" d="M416.537,76.681v-7h1.246l.084,1.287v5.713Zm4.844-3.584a3.766,3.766,0,0,0-.217-1.45,1.334,1.334,0,0,0-.6-.693,2.054,2.054,0,0,0-.889-.21,1.6,1.6,0,0,0-1.33.6,2.667,2.667,0,0,0-.476,1.693h-.574a5.017,5.017,0,0,1,.322-1.9,2.618,2.618,0,0,1,.931-1.211,2.507,2.507,0,0,1,1.463-.42,2.569,2.569,0,0,1,1.981.776,3.419,3.419,0,0,1,.721,2.388Zm0,3.584V73.1l1.33-.42v4Z"/><path class="cls-5" d="M427.3,76.849a2.96,2.96,0,0,1-1.658-.463,3.108,3.108,0,0,1-1.106-1.287,4.829,4.829,0,0,1,0-3.844,3.115,3.115,0,0,1,1.106-1.281,2.959,2.959,0,0,1,1.658-.461,2.575,2.575,0,0,1,1.533.461,2.937,2.937,0,0,1,1,1.281,5.438,5.438,0,0,1,0,3.844,2.932,2.932,0,0,1-1,1.287A2.576,2.576,0,0,1,427.3,76.849Zm.309-1.2a1.759,1.759,0,0,0,1.036-.315,2.106,2.106,0,0,0,.7-.868,3.382,3.382,0,0,0,0-2.562,2.106,2.106,0,0,0-.7-.868,1.78,1.78,0,0,0-1.05-.315,1.937,1.937,0,0,0-1.093.315,2.118,2.118,0,0,0-.742.868,2.931,2.931,0,0,0-.265,1.282,2.843,2.843,0,0,0,.273,1.28,2.164,2.164,0,0,0,.749.868A1.929,1.929,0,0,0,427.611,75.644Zm2.044,1.037-.056-1.3v-8.5h1.316v9.8Z"/><path class="cls-5" d="M433.659,68.2a.755.755,0,0,1-.56-.245.787.787,0,0,1-.238-.567.76.76,0,0,1,.238-.567.795.795,0,0,1,1.358.567.8.8,0,0,1-.231.567A.752.752,0,0,1,433.659,68.2Zm-.672,8.485.028-7h1.316l-.014,7Z"/><path class="cls-5" d="M438.643,76.849a2.981,2.981,0,0,1-1.939-.568,1.923,1.923,0,0,1-.693-1.575,1.959,1.959,0,0,1,.721-1.644,3.168,3.168,0,0,1,2.009-.568h1.946v1.05h-1.582a2.3,2.3,0,0,0-1.358.3.993.993,0,0,0-.392.834.891.891,0,0,0,.371.762,1.7,1.7,0,0,0,1.028.273,1.782,1.782,0,0,0,.988-.266,1.844,1.844,0,0,0,.644-.707,2.093,2.093,0,0,0,.231-.986h.63a3.542,3.542,0,0,1-.659,2.26A2.327,2.327,0,0,1,438.643,76.849Zm2.044-.168-.07-1.219V73.026a4.025,4.025,0,0,0-.175-1.281,1.577,1.577,0,0,0-.532-.777,1.549,1.549,0,0,0-.946-.266,1.967,1.967,0,0,0-.959.225,1.72,1.72,0,0,0-.678.7l-1.2-.447a3.331,3.331,0,0,1,.644-.855,2.839,2.839,0,0,1,.944-.595,3.514,3.514,0,0,1,1.282-.216,3.286,3.286,0,0,1,1.645.377,2.33,2.33,0,0,1,.993,1.127,4.468,4.468,0,0,1,.316,1.855l-.014,3.809Z"/><path class="cls-5" d="M443.766,76.681v-7h1.246l.084,1.287v5.713Zm4.845-3.584a3.744,3.744,0,0,0-.218-1.45,1.332,1.332,0,0,0-.6-.693,2.054,2.054,0,0,0-.889-.21,1.6,1.6,0,0,0-1.33.6,2.661,2.661,0,0,0-.477,1.693h-.573a5.018,5.018,0,0,1,.321-1.9,2.62,2.62,0,0,1,.932-1.211,2.5,2.5,0,0,1,1.463-.42,2.566,2.566,0,0,1,1.98.776,3.414,3.414,0,0,1,.722,2.388Zm0,3.584V73.1l1.33-.42v4Z"/><path class="cls-5" d="M457.556,76.849a2.978,2.978,0,0,1-1.938-.568,1.923,1.923,0,0,1-.694-1.575,1.965,1.965,0,0,1,.721-1.644,3.169,3.169,0,0,1,2.01-.568H459.6v1.05h-1.582a2.3,2.3,0,0,0-1.357.3.991.991,0,0,0-.393.834.893.893,0,0,0,.371.762,1.707,1.707,0,0,0,1.029.273,1.782,1.782,0,0,0,.988-.266,1.849,1.849,0,0,0,.643-.707,2.082,2.082,0,0,0,.232-.986h.63a3.548,3.548,0,0,1-.659,2.26A2.327,2.327,0,0,1,457.556,76.849Zm2.044-.168-.069-1.219V73.026a4,4,0,0,0-.176-1.281,1.575,1.575,0,0,0-.531-.777,1.551,1.551,0,0,0-.946-.266,1.964,1.964,0,0,0-.959.225,1.714,1.714,0,0,0-.678.7l-1.2-.447a3.328,3.328,0,0,1,.643-.855,2.843,2.843,0,0,1,.945-.595,3.511,3.511,0,0,1,1.282-.216,3.285,3.285,0,0,1,1.644.377,2.332,2.332,0,0,1,.994,1.127,4.469,4.469,0,0,1,.315,1.855l-.014,3.809Z"/><path class="cls-5" d="M465.186,76.849a3.662,3.662,0,0,1-1.323-.225,2.927,2.927,0,0,1-.98-.6,2.43,2.43,0,0,1-.594-.854l1.147-.5a1.815,1.815,0,0,0,.672.714,1.836,1.836,0,0,0,.994.28,2,2,0,0,0,.994-.223.7.7,0,0,0,.392-.631.732.732,0,0,0-.294-.616,2.36,2.36,0,0,0-.854-.364l-.658-.168a3.361,3.361,0,0,1-1.518-.8,1.644,1.644,0,0,1-.539-1.2,1.965,1.965,0,0,1,.657-1.582,2.935,2.935,0,0,1,1.946-.559,3.515,3.515,0,0,1,1.155.181,2.562,2.562,0,0,1,.9.518,1.852,1.852,0,0,1,.525.8l-1.12.5a1.149,1.149,0,0,0-.574-.623,2.1,2.1,0,0,0-.952-.2,1.435,1.435,0,0,0-.882.245.8.8,0,0,0-.321.679.6.6,0,0,0,.272.455,2.206,2.206,0,0,0,.805.358l.757.181a3.031,3.031,0,0,1,1.133.511,2.373,2.373,0,0,1,.672.771,1.876,1.876,0,0,1,.224.888,1.81,1.81,0,0,1-.343,1.1,2.182,2.182,0,0,1-.938.722A3.436,3.436,0,0,1,465.186,76.849Z"/><path class="cls-5" d="M474.5,76.681l-2.38-7h1.343l2.311,7Zm.1,0,2.323-7h1.205l-2.3,7Zm4.718,0-2.3-7h1.218l2.309,7Zm0,0,2.366-7h1.33l-2.381,7Z"/><path class="cls-5" d="M487.124,76.849a3.452,3.452,0,0,1-1.806-.469,3.329,3.329,0,0,1-1.233-1.3,4.279,4.279,0,0,1,0-3.808,3.316,3.316,0,0,1,1.24-1.3,3.492,3.492,0,0,1,1.813-.468,3.005,3.005,0,0,1,1.687.482,3.21,3.21,0,0,1,1.148,1.372,4.931,4.931,0,0,1,.412,2.093h-1.329a4.122,4.122,0,0,0-.218-1.512,1.947,1.947,0,0,0-.671-.931,1.779,1.779,0,0,0-1.057-.315,2.079,2.079,0,0,0-1.134.3,1.983,1.983,0,0,0-.735.853,3.178,3.178,0,0,0-.259,1.352,2.635,2.635,0,0,0,.294,1.281,2.16,2.16,0,0,0,.8.84,2.191,2.191,0,0,0,1.148.3,1.934,1.934,0,0,0,1.141-.322,2.3,2.3,0,0,0,.72-.827l1.191.547a3.428,3.428,0,0,1-.729.959,3.1,3.1,0,0,1-1.056.637A3.944,3.944,0,0,1,487.124,76.849Zm-2.619-3.389.015-1.092h5.124V73.46Z"/><path class="cls-5" d="M491.841,76.681v-9.8h1.33v9.8Z"/><path class="cls-5" d="M495.16,76.681v-9.8h1.33v9.8Z"/><path class="cls-5" d="M504.273,76.849a2.981,2.981,0,0,1-1.939-.568,1.926,1.926,0,0,1-.693-1.575,1.962,1.962,0,0,1,.721-1.644,3.169,3.169,0,0,1,2.01-.568h1.945v1.05h-1.582a2.3,2.3,0,0,0-1.358.3.993.993,0,0,0-.392.834.893.893,0,0,0,.371.762,1.707,1.707,0,0,0,1.029.273,1.782,1.782,0,0,0,.988-.266,1.849,1.849,0,0,0,.643-.707,2.094,2.094,0,0,0,.232-.986h.629a3.548,3.548,0,0,1-.658,2.26A2.329,2.329,0,0,1,504.273,76.849Zm2.044-.168-.069-1.219V73.026a4,4,0,0,0-.176-1.281,1.575,1.575,0,0,0-.531-.777,1.551,1.551,0,0,0-.946-.266,1.964,1.964,0,0,0-.959.225,1.714,1.714,0,0,0-.678.7l-1.205-.447a3.331,3.331,0,0,1,.644-.855,2.843,2.843,0,0,1,.945-.595,3.507,3.507,0,0,1,1.282-.216,3.285,3.285,0,0,1,1.644.377,2.342,2.342,0,0,1,.994,1.127,4.485,4.485,0,0,1,.315,1.855l-.014,3.809Z"/><path class="cls-5" d="M511.9,76.849a3.662,3.662,0,0,1-1.323-.225,2.927,2.927,0,0,1-.98-.6,2.433,2.433,0,0,1-.6-.854l1.148-.5a1.815,1.815,0,0,0,.672.714,1.836,1.836,0,0,0,.994.28,2,2,0,0,0,.994-.223.7.7,0,0,0,.392-.631.732.732,0,0,0-.294-.616,2.368,2.368,0,0,0-.854-.364l-.658-.168a3.37,3.37,0,0,1-1.519-.8,1.648,1.648,0,0,1-.539-1.2A1.965,1.965,0,0,1,510,70.072a2.934,2.934,0,0,1,1.946-.559,3.515,3.515,0,0,1,1.155.181,2.562,2.562,0,0,1,.9.518,1.861,1.861,0,0,1,.525.8l-1.12.5a1.149,1.149,0,0,0-.574-.623,2.1,2.1,0,0,0-.952-.2,1.433,1.433,0,0,0-.882.245.806.806,0,0,0-.322.679.6.6,0,0,0,.273.455,2.2,2.2,0,0,0,.805.358l.756.181a3.044,3.044,0,0,1,1.134.511,2.373,2.373,0,0,1,.672.771,1.888,1.888,0,0,1,.224.888,1.817,1.817,0,0,1-.343,1.1,2.185,2.185,0,0,1-.939.722A3.428,3.428,0,0,1,511.9,76.849Z"/><path class="cls-5" d="M170.072,93.152V86.88h1.372v6.272Zm3.807,3.738a4.115,4.115,0,0,1-2-.469,3.336,3.336,0,0,1-1.337-1.317,3.914,3.914,0,0,1-.475-1.952h1.372a2.579,2.579,0,0,0,.314,1.288,2.216,2.216,0,0,0,.868.868,2.588,2.588,0,0,0,1.282.308,2.624,2.624,0,0,0,1.288-.308,2.165,2.165,0,0,0,.868-.868,2.63,2.63,0,0,0,.308-1.288h1.385a3.876,3.876,0,0,1-.482,1.952,3.351,3.351,0,0,1-1.358,1.317A4.26,4.26,0,0,1,173.879,96.89Zm2.493-3.738V86.88h1.385v6.272Z"/><path class="cls-5" d="M180.236,96.681v-9.8h1.33v9.8Zm.9-3.109-.406-1.456,5-5.236h1.75Zm4.83,3.109-3.99-4.985.939-.868,4.746,5.853Z"/><path class="cls-5" d="M194.6,96.849a2.978,2.978,0,0,1-1.938-.568,1.923,1.923,0,0,1-.694-1.575,1.965,1.965,0,0,1,.721-1.644,3.169,3.169,0,0,1,2.01-.568h1.945v1.05h-1.582a2.3,2.3,0,0,0-1.357.3.991.991,0,0,0-.393.834.893.893,0,0,0,.371.762,1.707,1.707,0,0,0,1.029.273,1.782,1.782,0,0,0,.988-.266,1.849,1.849,0,0,0,.643-.707,2.082,2.082,0,0,0,.232-.986h.63a3.548,3.548,0,0,1-.659,2.26A2.327,2.327,0,0,1,194.6,96.849Zm2.044-.168-.069-1.219V93.026a4,4,0,0,0-.176-1.281,1.575,1.575,0,0,0-.531-.777,1.551,1.551,0,0,0-.946-.266,1.964,1.964,0,0,0-.959.225,1.714,1.714,0,0,0-.678.7l-1.2-.447a3.328,3.328,0,0,1,.643-.855,2.843,2.843,0,0,1,.945-.595,3.511,3.511,0,0,1,1.282-.216,3.285,3.285,0,0,1,1.644.377,2.332,2.332,0,0,1,.994,1.127,4.469,4.469,0,0,1,.315,1.855l-.014,3.809Z"/><path class="cls-5" d="M202.916,96.849a3.662,3.662,0,0,1-1.863-.469,3.316,3.316,0,0,1-1.267-1.3,4.22,4.22,0,0,1,0-3.808,3.33,3.33,0,0,1,1.26-1.3,3.83,3.83,0,0,1,3.682.007,2.97,2.97,0,0,1,1.225,1.359l-1.2.5a1.977,1.977,0,0,0-.764-.813,2.208,2.208,0,0,0-1.141-.294,2.061,2.061,0,0,0-1.12.308,2.127,2.127,0,0,0-.77.861,2.765,2.765,0,0,0-.28,1.268,2.718,2.718,0,0,0,.28,1.259,2.163,2.163,0,0,0,.784.862,2.1,2.1,0,0,0,1.135.314,2.039,2.039,0,0,0,1.9-1.219l1.218.491a3.166,3.166,0,0,1-1.225,1.442A3.39,3.39,0,0,1,202.916,96.849Z"/><path class="cls-5" d="M206.765,90.828V89.681h4.508v1.147Zm3.388,6.021a2.284,2.284,0,0,1-1.624-.539,2.019,2.019,0,0,1-.573-1.547V87.5h1.329v7.07a1.106,1.106,0,0,0,.259.79.979.979,0,0,0,.749.274.964.964,0,0,0,.308-.056,1.675,1.675,0,0,0,.406-.223l.5,1.035a3.112,3.112,0,0,1-.693.35A2.042,2.042,0,0,1,210.153,96.849Z"/><path class="cls-5" d="M212.8,93.685v-4h1.33v3.584Zm1.33-.42a3.76,3.76,0,0,0,.218,1.441,1.325,1.325,0,0,0,.609.7,2.082,2.082,0,0,0,.881.21,1.6,1.6,0,0,0,1.331-.6,2.679,2.679,0,0,0,.476-1.7h.573a5.045,5.045,0,0,1-.321,1.9,2.634,2.634,0,0,1-.932,1.211,2.517,2.517,0,0,1-1.463.42,2.553,2.553,0,0,1-1.98-.786,3.408,3.408,0,0,1-.722-2.378Zm3.6,3.416-.084-1.289V89.681h1.315v7Z"/><path class="cls-5" d="M223.2,96.849a2.981,2.981,0,0,1-1.939-.568,1.923,1.923,0,0,1-.693-1.575,1.962,1.962,0,0,1,.721-1.644,3.168,3.168,0,0,1,2.009-.568h1.946v1.05h-1.582a2.3,2.3,0,0,0-1.358.3.99.99,0,0,0-.392.834.893.893,0,0,0,.371.762,1.707,1.707,0,0,0,1.029.273,1.776,1.776,0,0,0,.987-.266,1.844,1.844,0,0,0,.644-.707,2.093,2.093,0,0,0,.231-.986h.63a3.554,3.554,0,0,1-.658,2.26A2.33,2.33,0,0,1,223.2,96.849Zm2.044-.168-.07-1.219V93.026A4,4,0,0,0,225,91.745a1.577,1.577,0,0,0-.532-.777,1.546,1.546,0,0,0-.945-.266,1.961,1.961,0,0,0-.959.225,1.722,1.722,0,0,0-.679.7l-1.2-.447a3.331,3.331,0,0,1,.644-.855,2.833,2.833,0,0,1,.945-.595,3.505,3.505,0,0,1,1.281-.216,3.289,3.289,0,0,1,1.645.377,2.342,2.342,0,0,1,.994,1.127,4.47,4.47,0,0,1,.314,1.855l-.013,3.809Z"/><path class="cls-5" d="M228.325,96.681v-7h1.33v7Zm.811-3.767a3.511,3.511,0,0,1,.435-1.848A2.779,2.779,0,0,1,230.691,90a3.131,3.131,0,0,1,1.441-.35v1.26a3.782,3.782,0,0,0-1.2.189,2.014,2.014,0,0,0-.925.617,1.748,1.748,0,0,0-.356,1.154Z"/><path class="cls-5" d="M234.107,88.2a.761.761,0,0,1-.561-.245.791.791,0,0,1-.238-.567.763.763,0,0,1,.238-.567.782.782,0,0,1,.561-.231.791.791,0,0,1,.8.8.8.8,0,0,1-.232.567A.748.748,0,0,1,234.107,88.2Zm-.673,8.485.028-7h1.317l-.015,7Z"/><path class="cls-5" d="M239.09,96.849a2.978,2.978,0,0,1-1.938-.568,1.923,1.923,0,0,1-.694-1.575,1.965,1.965,0,0,1,.721-1.644,3.173,3.173,0,0,1,2.01-.568h1.945v1.05h-1.582a2.3,2.3,0,0,0-1.357.3.991.991,0,0,0-.393.834.893.893,0,0,0,.371.762,1.708,1.708,0,0,0,1.03.273,1.779,1.779,0,0,0,.987-.266,1.849,1.849,0,0,0,.643-.707,2.082,2.082,0,0,0,.232-.986h.63a3.554,3.554,0,0,1-.658,2.26A2.331,2.331,0,0,1,239.09,96.849Zm2.044-.168-.069-1.219V93.026a4,4,0,0,0-.176-1.281,1.575,1.575,0,0,0-.531-.777,1.548,1.548,0,0,0-.945-.266,1.959,1.959,0,0,0-.959.225,1.716,1.716,0,0,0-.679.7l-1.2-.447a3.35,3.35,0,0,1,.643-.855,2.848,2.848,0,0,1,.946-.595,3.505,3.505,0,0,1,1.281-.216,3.285,3.285,0,0,1,1.644.377,2.339,2.339,0,0,1,1,1.127,4.486,4.486,0,0,1,.314,1.855l-.014,3.809Z"/><path class="cls-5" d="M244.214,96.681v-9.8h1.33v9.8Z"/><path class="cls-5" d="M251.844,88.2a.757.757,0,0,1-.56-.245.788.788,0,0,1-.239-.567.761.761,0,0,1,.239-.567.795.795,0,0,1,1.358.567.8.8,0,0,1-.231.567A.752.752,0,0,1,251.844,88.2Zm-.673,8.485.029-7h1.316l-.015,7Z"/><path class="cls-5" d="M254.587,96.681v-7h1.246l.084,1.287v5.713Zm4.845-3.584a3.744,3.744,0,0,0-.218-1.45,1.328,1.328,0,0,0-.6-.693,2.054,2.054,0,0,0-.889-.21,1.6,1.6,0,0,0-1.33.6,2.667,2.667,0,0,0-.477,1.693h-.573a5.017,5.017,0,0,1,.322-1.9,2.612,2.612,0,0,1,.931-1.211,2.5,2.5,0,0,1,1.463-.42,2.569,2.569,0,0,1,1.981.776,3.419,3.419,0,0,1,.721,2.388Zm0,3.584V93.1l1.33-.42v4Z"/><path class="cls-5" d="M265.088,96.849a3.662,3.662,0,0,1-1.323-.225,2.918,2.918,0,0,1-.98-.6,2.459,2.459,0,0,1-.6-.854l1.148-.5a1.815,1.815,0,0,0,.672.714,1.833,1.833,0,0,0,.994.28,2,2,0,0,0,.994-.223.7.7,0,0,0,.392-.631.732.732,0,0,0-.294-.616,2.368,2.368,0,0,0-.854-.364l-.659-.168a3.366,3.366,0,0,1-1.518-.8,1.651,1.651,0,0,1-.539-1.2,1.969,1.969,0,0,1,.658-1.582,2.935,2.935,0,0,1,1.946-.559,3.515,3.515,0,0,1,1.155.181,2.571,2.571,0,0,1,.9.518,1.861,1.861,0,0,1,.525.8l-1.12.5a1.145,1.145,0,0,0-.574-.623,2.1,2.1,0,0,0-.952-.2,1.433,1.433,0,0,0-.882.245.806.806,0,0,0-.322.679.6.6,0,0,0,.273.455,2.213,2.213,0,0,0,.805.358l.756.181a3.044,3.044,0,0,1,1.134.511,2.373,2.373,0,0,1,.672.771,1.888,1.888,0,0,1,.224.888,1.81,1.81,0,0,1-.343,1.1,2.194,2.194,0,0,1-.938.722A3.436,3.436,0,0,1,265.088,96.849Z"/><path class="cls-5" d="M268.559,90.828V89.681h4.509v1.147Zm3.389,6.021a2.284,2.284,0,0,1-1.624-.539,2.019,2.019,0,0,1-.574-1.547V87.5h1.33v7.07a1.105,1.105,0,0,0,.258.79.98.98,0,0,0,.749.274.965.965,0,0,0,.309-.056,1.672,1.672,0,0,0,.4-.223l.5,1.035a3.106,3.106,0,0,1-.692.35A2.051,2.051,0,0,1,271.948,96.849Z"/><path class="cls-5" d="M275.518,88.2a.757.757,0,0,1-.56-.245.788.788,0,0,1-.239-.567.761.761,0,0,1,.239-.567.778.778,0,0,1,.56-.231.791.791,0,0,1,.8.8.8.8,0,0,1-.232.567A.748.748,0,0,1,275.518,88.2Zm-.673,8.485.029-7h1.316l-.015,7Z"/><path class="cls-5" d="M277.575,90.828V89.681h4.508v1.147Zm3.388,6.021a2.284,2.284,0,0,1-1.624-.539,2.023,2.023,0,0,1-.574-1.547V87.5h1.33v7.07a1.1,1.1,0,0,0,.259.79.98.98,0,0,0,.749.274.97.97,0,0,0,.309-.056,1.672,1.672,0,0,0,.405-.223l.5,1.035a3.112,3.112,0,0,1-.693.35A2.042,2.042,0,0,1,280.963,96.849Z"/><path class="cls-5" d="M283.609,93.685v-4h1.33v3.584Zm1.33-.42a3.741,3.741,0,0,0,.218,1.441,1.319,1.319,0,0,0,.608.7,2.091,2.091,0,0,0,.882.21,1.6,1.6,0,0,0,1.33-.6,2.679,2.679,0,0,0,.477-1.7h.573a5.065,5.065,0,0,1-.321,1.9,2.641,2.641,0,0,1-.932,1.211,2.519,2.519,0,0,1-1.463.42,2.551,2.551,0,0,1-1.98-.786,3.4,3.4,0,0,1-.722-2.378Zm3.6,3.416-.084-1.289V89.681h1.315v7Z"/><path class="cls-5" d="M291.084,90.828V89.681h4.509v1.147Zm3.389,6.021a2.284,2.284,0,0,1-1.624-.539,2.019,2.019,0,0,1-.574-1.547V87.5h1.33v7.07a1.1,1.1,0,0,0,.259.79.98.98,0,0,0,.749.274.959.959,0,0,0,.308-.056,1.675,1.675,0,0,0,.406-.223l.5,1.035a3.133,3.133,0,0,1-.693.35A2.047,2.047,0,0,1,294.473,96.849Z"/><path class="cls-5" d="M300.325,96.849a3.455,3.455,0,0,1-1.806-.469,3.327,3.327,0,0,1-1.232-1.3,4.27,4.27,0,0,1,0-3.808,3.313,3.313,0,0,1,1.239-1.3,3.492,3.492,0,0,1,1.813-.468,3,3,0,0,1,1.687.482,3.21,3.21,0,0,1,1.148,1.372,4.931,4.931,0,0,1,.412,2.093h-1.329a4.145,4.145,0,0,0-.217-1.512,1.949,1.949,0,0,0-.672-.931,1.779,1.779,0,0,0-1.057-.315,2.084,2.084,0,0,0-1.134.3,1.983,1.983,0,0,0-.735.853,3.178,3.178,0,0,0-.259,1.352,2.635,2.635,0,0,0,.294,1.281,2.16,2.16,0,0,0,.8.84,2.193,2.193,0,0,0,1.148.3,1.934,1.934,0,0,0,1.141-.322,2.315,2.315,0,0,0,.721-.827l1.19.547a3.424,3.424,0,0,1-.728.959,3.11,3.11,0,0,1-1.057.637A3.939,3.939,0,0,1,300.325,96.849Zm-2.618-3.389.014-1.092h5.124V93.46Z"/><path class="cls-5" d="M307.549,96.849a3.662,3.662,0,0,1-1.323-.225,2.918,2.918,0,0,1-.98-.6,2.459,2.459,0,0,1-.595-.854l1.148-.5a1.815,1.815,0,0,0,.672.714,1.833,1.833,0,0,0,.994.28,1.991,1.991,0,0,0,.993-.223.7.7,0,0,0,.393-.631.734.734,0,0,0-.294-.616,2.368,2.368,0,0,0-.854-.364l-.659-.168a3.366,3.366,0,0,1-1.518-.8,1.651,1.651,0,0,1-.539-1.2,1.969,1.969,0,0,1,.658-1.582,2.934,2.934,0,0,1,1.946-.559,3.515,3.515,0,0,1,1.155.181,2.571,2.571,0,0,1,.9.518,1.861,1.861,0,0,1,.525.8l-1.12.5a1.145,1.145,0,0,0-.574-.623,2.1,2.1,0,0,0-.952-.2,1.433,1.433,0,0,0-.882.245.806.806,0,0,0-.322.679.6.6,0,0,0,.273.455,2.213,2.213,0,0,0,.805.358l.756.181a3.044,3.044,0,0,1,1.134.511,2.384,2.384,0,0,1,.672.771,1.888,1.888,0,0,1,.224.888,1.81,1.81,0,0,1-.343,1.1,2.194,2.194,0,0,1-.938.722A3.436,3.436,0,0,1,307.549,96.849Z"/><path class="cls-5" d="M311.3,98.29l.813-3.052h1.441l-1.176,3.052Z"/><path class="cls-5" d="M320.289,96.681l-2.38-7h1.343l2.31,7Zm.1,0,2.324-7h1.205l-2.3,7Zm4.718,0-2.3-7h1.218l2.31,7Zm0,0,2.366-7h1.33l-2.38,7Z"/><path class="cls-5" d="M330.76,88.2a.757.757,0,0,1-.56-.245.792.792,0,0,1-.239-.567.764.764,0,0,1,.239-.567.795.795,0,0,1,1.358.567.8.8,0,0,1-.231.567A.752.752,0,0,1,330.76,88.2Zm-.673,8.485.029-7h1.316l-.015,7Z"/><path class="cls-5" d="M332.818,90.828V89.681h4.508v1.147Zm3.388,6.021a2.281,2.281,0,0,1-1.624-.539,2.019,2.019,0,0,1-.574-1.547V87.5h1.329v7.07a1.1,1.1,0,0,0,.26.79.979.979,0,0,0,.749.274.964.964,0,0,0,.308-.056,1.675,1.675,0,0,0,.406-.223l.5,1.035a3.133,3.133,0,0,1-.693.35A2.042,2.042,0,0,1,336.206,96.849Z"/><path class="cls-5" d="M339.034,96.681l-.015-9.955h1.33v9.955Zm4.843-3.584a3.693,3.693,0,0,0-.223-1.45,1.368,1.368,0,0,0-.61-.693,2.019,2.019,0,0,0-.875-.21,1.608,1.608,0,0,0-1.343.6,2.661,2.661,0,0,0-.477,1.693h-.559a5.017,5.017,0,0,1,.322-1.9,2.61,2.61,0,0,1,.93-1.211,2.485,2.485,0,0,1,1.45-.42,2.591,2.591,0,0,1,2,.776,3.375,3.375,0,0,1,.707,2.388Zm0,3.584V93.1l1.317-.42v4Z"/><path class="cls-5" d="M353.454,96.849a4,4,0,0,1-1.372-.225,2.982,2.982,0,0,1-1.037-.615,2.909,2.909,0,0,1-.644-.855l1.19-.546q.139.2.35.442a1.7,1.7,0,0,0,.56.412,2,2,0,0,0,.869.168,1.944,1.944,0,0,0,1.406-.5,1.689,1.689,0,0,0,.525-1.273,1.545,1.545,0,0,0-.307-.973,1.894,1.894,0,0,0-.9-.609,4.351,4.351,0,0,0-1.449-.211h-.349V91.024h.321a6.192,6.192,0,0,1,1.6.2,4.119,4.119,0,0,1,1.3.582,2.787,2.787,0,0,1,.868.929,2.506,2.506,0,0,1,.308,1.247,2.64,2.64,0,0,1-.44,1.519,2.893,2.893,0,0,1-1.177,1A3.71,3.71,0,0,1,353.454,96.849Zm-1.162-4.957V90.9h.349a3.454,3.454,0,0,0,1.792-.39,1.231,1.231,0,0,0,.645-1.107,1.315,1.315,0,0,0-.218-.735,1.591,1.591,0,0,0-.6-.531,1.933,1.933,0,0,0-.917-.2,2.077,2.077,0,0,0-.651.1,1.98,1.98,0,0,0-.581.308,1.894,1.894,0,0,0-.462.525l-1.147-.517a2.492,2.492,0,0,1,.671-.883,3.132,3.132,0,0,1,1.008-.56,3.737,3.737,0,0,1,1.218-.2,3.519,3.519,0,0,1,1.568.336,2.729,2.729,0,0,1,1.085.924,2.316,2.316,0,0,1,.4,1.33,2.058,2.058,0,0,1-.3,1.113,2.534,2.534,0,0,1-.833.813,4.228,4.228,0,0,1-1.225.5,6.316,6.316,0,0,1-1.491.168Z"/><path class="cls-5" d="M364.7,96.849a2.957,2.957,0,0,1-1.658-.463A3.117,3.117,0,0,1,361.93,95.1a4.84,4.84,0,0,1,0-3.844,3.125,3.125,0,0,1,1.107-1.281,2.956,2.956,0,0,1,1.658-.461,2.577,2.577,0,0,1,1.533.461,2.937,2.937,0,0,1,1,1.281,5.438,5.438,0,0,1,0,3.844,2.932,2.932,0,0,1-1,1.287A2.579,2.579,0,0,1,364.7,96.849Zm.308-1.2a1.76,1.76,0,0,0,1.037-.315,2.114,2.114,0,0,0,.7-.868,3.382,3.382,0,0,0,0-2.562,2.114,2.114,0,0,0-.7-.868,1.783,1.783,0,0,0-1.05-.315,1.935,1.935,0,0,0-1.093.315,2.118,2.118,0,0,0-.742.868,2.931,2.931,0,0,0-.266,1.282,2.843,2.843,0,0,0,.274,1.28,2.149,2.149,0,0,0,.749.868A1.926,1.926,0,0,0,365,95.644Zm2.044,1.037-.055-1.3v-8.5h1.315v9.8Z"/><path class="cls-5" d="M373.389,96.849a3.458,3.458,0,0,1-1.806-.469,3.334,3.334,0,0,1-1.232-1.3,4.279,4.279,0,0,1,0-3.808,3.32,3.32,0,0,1,1.239-1.3,3.5,3.5,0,0,1,1.814-.468A3,3,0,0,1,375.09,90a3.212,3.212,0,0,1,1.149,1.372,4.947,4.947,0,0,1,.412,2.093h-1.329a4.144,4.144,0,0,0-.218-1.512,1.942,1.942,0,0,0-.672-.931,1.777,1.777,0,0,0-1.057-.315,2.078,2.078,0,0,0-1.133.3,1.979,1.979,0,0,0-.736.853,3.179,3.179,0,0,0-.258,1.352,2.624,2.624,0,0,0,.294,1.281,2.157,2.157,0,0,0,.8.84,2.194,2.194,0,0,0,1.149.3,1.928,1.928,0,0,0,1.14-.322,2.315,2.315,0,0,0,.721-.827l1.191.547a3.428,3.428,0,0,1-.729.959,3.1,3.1,0,0,1-1.057.637A3.939,3.939,0,0,1,373.389,96.849Zm-2.618-3.389.015-1.092h5.124V93.46Z"/><path class="cls-5" d="M381.3,96.849a3.661,3.661,0,0,1-1.862-.469,3.326,3.326,0,0,1-1.268-1.3,4.22,4.22,0,0,1,0-3.808,3.34,3.34,0,0,1,1.261-1.3,3.83,3.83,0,0,1,3.682.007,2.963,2.963,0,0,1,1.224,1.359l-1.2.5a1.968,1.968,0,0,0-.763-.813,2.208,2.208,0,0,0-1.141-.294,2.061,2.061,0,0,0-1.12.308,2.137,2.137,0,0,0-.771.861,2.777,2.777,0,0,0-.279,1.268,2.73,2.73,0,0,0,.279,1.259,2.172,2.172,0,0,0,.785.862,2.1,2.1,0,0,0,1.134.314,2.039,2.039,0,0,0,1.9-1.219l1.217.491a3.158,3.158,0,0,1-1.224,1.442A3.391,3.391,0,0,1,381.3,96.849Z"/><path class="cls-5" d="M388.075,96.849a2.981,2.981,0,0,1-1.939-.568,1.923,1.923,0,0,1-.693-1.575,1.962,1.962,0,0,1,.721-1.644,3.168,3.168,0,0,1,2.009-.568h1.946v1.05h-1.582a2.3,2.3,0,0,0-1.358.3.99.99,0,0,0-.392.834.893.893,0,0,0,.371.762,1.707,1.707,0,0,0,1.029.273,1.776,1.776,0,0,0,.987-.266,1.844,1.844,0,0,0,.644-.707,2.093,2.093,0,0,0,.231-.986h.63a3.554,3.554,0,0,1-.658,2.26A2.329,2.329,0,0,1,388.075,96.849Zm2.044-.168-.07-1.219V93.026a4,4,0,0,0-.175-1.281,1.577,1.577,0,0,0-.532-.777,1.546,1.546,0,0,0-.945-.266,1.961,1.961,0,0,0-.959.225,1.722,1.722,0,0,0-.679.7l-1.2-.447a3.331,3.331,0,0,1,.644-.855,2.833,2.833,0,0,1,.945-.595,3.505,3.505,0,0,1,1.281-.216,3.289,3.289,0,0,1,1.645.377,2.342,2.342,0,0,1,.994,1.127,4.47,4.47,0,0,1,.314,1.855l-.013,3.809Z"/><path class="cls-5" d="M395.97,96.849a2.96,2.96,0,0,1-1.658-.463,3.108,3.108,0,0,1-1.106-1.287,4.829,4.829,0,0,1,0-3.844,3.115,3.115,0,0,1,1.106-1.281,2.959,2.959,0,0,1,1.658-.461,2.575,2.575,0,0,1,1.533.461,2.937,2.937,0,0,1,1,1.281,5.438,5.438,0,0,1,0,3.844,2.932,2.932,0,0,1-1,1.287A2.576,2.576,0,0,1,395.97,96.849Zm.309-1.2a1.759,1.759,0,0,0,1.036-.315,2.106,2.106,0,0,0,.7-.868,3.382,3.382,0,0,0,0-2.562,2.106,2.106,0,0,0-.7-.868,1.78,1.78,0,0,0-1.05-.315,1.937,1.937,0,0,0-1.093.315,2.118,2.118,0,0,0-.742.868,2.931,2.931,0,0,0-.265,1.282,2.843,2.843,0,0,0,.273,1.28,2.164,2.164,0,0,0,.749.868A1.929,1.929,0,0,0,396.279,95.644Zm2.044,1.037-.056-1.3v-8.5h1.316v9.8Z"/><path class="cls-5" d="M404.665,96.849a3.452,3.452,0,0,1-1.806-.469,3.329,3.329,0,0,1-1.233-1.3,4.279,4.279,0,0,1,0-3.808,3.316,3.316,0,0,1,1.24-1.3,3.492,3.492,0,0,1,1.813-.468,3.005,3.005,0,0,1,1.687.482,3.21,3.21,0,0,1,1.148,1.372,4.931,4.931,0,0,1,.412,2.093H406.6a4.122,4.122,0,0,0-.218-1.512,1.947,1.947,0,0,0-.671-.931,1.779,1.779,0,0,0-1.057-.315,2.079,2.079,0,0,0-1.134.3,1.983,1.983,0,0,0-.735.853,3.178,3.178,0,0,0-.259,1.352,2.635,2.635,0,0,0,.294,1.281,2.16,2.16,0,0,0,.8.84,2.191,2.191,0,0,0,1.148.3,1.934,1.934,0,0,0,1.141-.322,2.315,2.315,0,0,0,.721-.827l1.19.547a3.428,3.428,0,0,1-.729.959,3.1,3.1,0,0,1-1.056.637A3.944,3.944,0,0,1,404.665,96.849Zm-2.619-3.389.015-1.092h5.124V93.46Z"/><path class="cls-5" d="M411.889,96.849a3.662,3.662,0,0,1-1.323-.225,2.932,2.932,0,0,1-.981-.6,2.469,2.469,0,0,1-.594-.854l1.148-.5a1.815,1.815,0,0,0,.672.714,1.833,1.833,0,0,0,.994.28,1.991,1.991,0,0,0,.993-.223.7.7,0,0,0,.393-.631.734.734,0,0,0-.294-.616,2.366,2.366,0,0,0-.855-.364l-.658-.168a3.366,3.366,0,0,1-1.518-.8,1.648,1.648,0,0,1-.539-1.2,1.965,1.965,0,0,1,.658-1.582,2.934,2.934,0,0,1,1.946-.559,3.5,3.5,0,0,1,1.154.181,2.566,2.566,0,0,1,.9.518,1.85,1.85,0,0,1,.524.8l-1.119.5a1.149,1.149,0,0,0-.574-.623,2.1,2.1,0,0,0-.952-.2,1.433,1.433,0,0,0-.882.245.806.806,0,0,0-.322.679.6.6,0,0,0,.273.455,2.206,2.206,0,0,0,.805.358l.756.181a3.044,3.044,0,0,1,1.134.511,2.369,2.369,0,0,1,.671.771,1.877,1.877,0,0,1,.225.888,1.81,1.81,0,0,1-.343,1.1,2.194,2.194,0,0,1-.938.722A3.436,3.436,0,0,1,411.889,96.849Z"/><path class="cls-5" d="M422.766,96.849a3.586,3.586,0,0,1-1.848-.469,3.35,3.35,0,0,1-1.253-1.3,3.881,3.881,0,0,1-.455-1.9,3.931,3.931,0,0,1,.448-1.905,3.3,3.3,0,0,1,1.246-1.3,3.828,3.828,0,0,1,3.668,0,3.3,3.3,0,0,1,1.246,1.3,4.27,4.27,0,0,1,0,3.808,3.323,3.323,0,0,1-1.239,1.3A3.5,3.5,0,0,1,422.766,96.849Zm0-1.219a2.027,2.027,0,0,0,1.12-.315,2.147,2.147,0,0,0,.763-.861,3.109,3.109,0,0,0,0-2.548,2.1,2.1,0,0,0-1.911-1.177,2.041,2.041,0,0,0-1.134.317,2.187,2.187,0,0,0-.771.86,3.048,3.048,0,0,0,0,2.548,2.17,2.17,0,0,0,.785.861A2.119,2.119,0,0,0,422.766,95.63Z"/><path class="cls-5" d="M427.316,90.786V89.681h4.508v1.105Zm1.246,5.895V88.91a2.365,2.365,0,0,1,.531-1.673,2.11,2.11,0,0,1,1.611-.566,2.628,2.628,0,0,1,.7.1,4.9,4.9,0,0,1,.769.287l-.489,1.022a3.383,3.383,0,0,0-.512-.2,1.323,1.323,0,0,0-.371-.064.8.8,0,0,0-.685.3,1.557,1.557,0,0,0-.224.931v7.631Z"/><path class="cls-5" d="M439.916,96.849a3.452,3.452,0,0,1-1.806-.469,3.329,3.329,0,0,1-1.233-1.3,4.279,4.279,0,0,1,0-3.808,3.316,3.316,0,0,1,1.24-1.3,3.492,3.492,0,0,1,1.813-.468,3.005,3.005,0,0,1,1.687.482,3.21,3.21,0,0,1,1.148,1.372,4.931,4.931,0,0,1,.412,2.093h-1.329a4.122,4.122,0,0,0-.218-1.512,1.942,1.942,0,0,0-.672-.931A1.774,1.774,0,0,0,439.9,90.7a2.079,2.079,0,0,0-1.134.3,1.983,1.983,0,0,0-.735.853,3.178,3.178,0,0,0-.259,1.352,2.635,2.635,0,0,0,.294,1.281,2.16,2.16,0,0,0,.8.84,2.191,2.191,0,0,0,1.148.3,1.934,1.934,0,0,0,1.141-.322,2.3,2.3,0,0,0,.72-.827l1.191.547a3.428,3.428,0,0,1-.729.959,3.1,3.1,0,0,1-1.056.637A3.944,3.944,0,0,1,439.916,96.849ZM437.3,93.46l.015-1.092h5.124V93.46Z"/><path class="cls-5" d="M443.724,96.681l2.869-4.019,2-2.981h1.568l-2.7,3.821-2.141,3.179Zm5.026,0L446.635,93.5l-2.729-3.821h1.568l2.016,2.981,2.842,4.019Z"/><path class="cls-5" d="M451.606,99.479v-9.8h1.246l.084,1.287v8.511Zm3.626-2.63a2.579,2.579,0,0,1-1.533-.463,2.932,2.932,0,0,1-1-1.287,5.438,5.438,0,0,1,0-3.844,2.937,2.937,0,0,1,1-1.281,2.577,2.577,0,0,1,1.533-.461,2.968,2.968,0,0,1,1.651.461A3.1,3.1,0,0,1,458,91.255a4.829,4.829,0,0,1,0,3.844,3.1,3.1,0,0,1-1.114,1.287A2.969,2.969,0,0,1,455.232,96.849Zm-.322-1.2a1.954,1.954,0,0,0,1.1-.315,2.149,2.149,0,0,0,.749-.868,2.843,2.843,0,0,0,.274-1.28,2.931,2.931,0,0,0-.266-1.282,2.118,2.118,0,0,0-.742-.868,1.962,1.962,0,0,0-1.107-.315,1.763,1.763,0,0,0-1.028.315,2.063,2.063,0,0,0-.707.875,3.364,3.364,0,0,0,0,2.555,2.088,2.088,0,0,0,.7.868A1.736,1.736,0,0,0,454.91,95.644Z"/><path class="cls-5" d="M463.085,96.849a3.451,3.451,0,0,1-1.805-.469,3.329,3.329,0,0,1-1.233-1.3,4.279,4.279,0,0,1,0-3.808,3.316,3.316,0,0,1,1.24-1.3,3.49,3.49,0,0,1,1.813-.468,3.005,3.005,0,0,1,1.687.482,3.21,3.21,0,0,1,1.148,1.372,4.947,4.947,0,0,1,.412,2.093h-1.329a4.122,4.122,0,0,0-.218-1.512,1.942,1.942,0,0,0-.672-.931,1.776,1.776,0,0,0-1.056-.315,2.079,2.079,0,0,0-1.134.3,1.977,1.977,0,0,0-.735.853,3.178,3.178,0,0,0-.259,1.352,2.635,2.635,0,0,0,.294,1.281,2.16,2.16,0,0,0,.8.84,2.191,2.191,0,0,0,1.148.3,1.934,1.934,0,0,0,1.141-.322,2.313,2.313,0,0,0,.72-.827l1.191.547a3.428,3.428,0,0,1-.729.959,3.105,3.105,0,0,1-1.056.637A3.949,3.949,0,0,1,463.085,96.849Zm-2.618-3.389.015-1.092h5.124V93.46Z"/><path class="cls-5" d="M467.8,96.681v-7h1.33v7Zm.812-3.767a3.511,3.511,0,0,1,.434-1.848A2.779,2.779,0,0,1,470.169,90a3.135,3.135,0,0,1,1.442-.35v1.26a3.778,3.778,0,0,0-1.2.189,2.009,2.009,0,0,0-.925.617,1.743,1.743,0,0,0-.357,1.154Z"/><path class="cls-5" d="M473.585,88.2a.755.755,0,0,1-.559-.245.787.787,0,0,1-.238-.567.76.76,0,0,1,.238-.567.794.794,0,0,1,1.357.567.8.8,0,0,1-.23.567A.752.752,0,0,1,473.585,88.2Zm-.671,8.485.028-7h1.315l-.013,7Z"/><path class="cls-5" d="M479.423,96.849a3.455,3.455,0,0,1-1.806-.469,3.334,3.334,0,0,1-1.232-1.3,4.27,4.27,0,0,1,0-3.808,3.309,3.309,0,0,1,1.24-1.3,3.484,3.484,0,0,1,1.812-.468,3.006,3.006,0,0,1,1.688.482,3.215,3.215,0,0,1,1.147,1.372,4.931,4.931,0,0,1,.413,2.093h-1.33a4.145,4.145,0,0,0-.217-1.512,1.949,1.949,0,0,0-.672-.931,1.777,1.777,0,0,0-1.057-.315,2.081,2.081,0,0,0-1.134.3,1.977,1.977,0,0,0-.735.853,3.193,3.193,0,0,0-.259,1.352,2.635,2.635,0,0,0,.294,1.281,2.16,2.16,0,0,0,.8.84,2.191,2.191,0,0,0,1.148.3,1.931,1.931,0,0,0,1.141-.322,2.315,2.315,0,0,0,.721-.827l1.19.547a3.405,3.405,0,0,1-.728.959,3.11,3.11,0,0,1-1.057.637A3.939,3.939,0,0,1,479.423,96.849Zm-2.618-3.389.014-1.092h5.124V93.46Z"/><path class="cls-5" d="M484.141,96.681v-7h1.246l.084,1.287v5.713Zm4.844-3.584a3.766,3.766,0,0,0-.217-1.45,1.337,1.337,0,0,0-.6-.693,2.059,2.059,0,0,0-.89-.21,1.6,1.6,0,0,0-1.33.6,2.661,2.661,0,0,0-.476,1.693H484.9a5.017,5.017,0,0,1,.322-1.9,2.618,2.618,0,0,1,.931-1.211,2.5,2.5,0,0,1,1.463-.42,2.569,2.569,0,0,1,1.981.776,3.414,3.414,0,0,1,.721,2.388Zm0,3.584V93.1l1.33-.42v4Z"/><path class="cls-5" d="M495.327,96.849a3.665,3.665,0,0,1-1.863-.469,3.314,3.314,0,0,1-1.266-1.3,4.211,4.211,0,0,1,0-3.808,3.317,3.317,0,0,1,1.26-1.3,3.83,3.83,0,0,1,3.682.007,2.97,2.97,0,0,1,1.225,1.359l-1.2.5a1.975,1.975,0,0,0-.763-.813,2.212,2.212,0,0,0-1.142-.294,2.064,2.064,0,0,0-1.12.308,2.125,2.125,0,0,0-.769.861,2.765,2.765,0,0,0-.281,1.268,2.718,2.718,0,0,0,.281,1.259,2.156,2.156,0,0,0,.784.862,2.1,2.1,0,0,0,1.134.314,2.039,2.039,0,0,0,1.9-1.219l1.218.491a3.166,3.166,0,0,1-1.225,1.442A3.4,3.4,0,0,1,495.327,96.849Z"/><path class="cls-5" d="M502.957,96.849a3.452,3.452,0,0,1-1.806-.469,3.329,3.329,0,0,1-1.233-1.3,4.279,4.279,0,0,1,0-3.808,3.316,3.316,0,0,1,1.24-1.3,3.492,3.492,0,0,1,1.813-.468,3.005,3.005,0,0,1,1.687.482,3.21,3.21,0,0,1,1.148,1.372,4.931,4.931,0,0,1,.412,2.093h-1.329a4.122,4.122,0,0,0-.218-1.512,1.947,1.947,0,0,0-.671-.931,1.779,1.779,0,0,0-1.057-.315,2.079,2.079,0,0,0-1.134.3,1.983,1.983,0,0,0-.735.853,3.178,3.178,0,0,0-.259,1.352,2.635,2.635,0,0,0,.294,1.281,2.16,2.16,0,0,0,.8.84,2.191,2.191,0,0,0,1.148.3,1.934,1.934,0,0,0,1.141-.322,2.315,2.315,0,0,0,.721-.827l1.19.547a3.428,3.428,0,0,1-.729.959,3.1,3.1,0,0,1-1.056.637A3.944,3.944,0,0,1,502.957,96.849Zm-2.619-3.389.015-1.092h5.124V93.46Z"/><path class="cls-5" d="M508.277,96.876a.847.847,0,0,1-.61-.252.864.864,0,0,1,0-1.232.847.847,0,0,1,.61-.252.863.863,0,0,1,.623.252.862.862,0,0,1,0,1.232A.863.863,0,0,1,508.277,96.876Z"/><path class="cls-4" d="M170.334,42.8V30.2H172.8V42.8Zm2.178-4.176V36.356h2.646a1.822,1.822,0,0,0,1.359-.541,1.938,1.938,0,0,0,.531-1.421,1.878,1.878,0,0,0-1.007-1.71,2.124,2.124,0,0,0-1.081-.234h-2.448V30.2l2.5-.018a4.78,4.78,0,0,1,2.358.531,4.008,4.008,0,0,1,2.178,3.681,4.224,4.224,0,0,1-.558,2.177,4.04,4.04,0,0,1-1.53,1.5,4.507,4.507,0,0,1-2.25.549Z"/><path class="cls-4" d="M183.762,43.016a3.9,3.9,0,0,1-2.511-.72,2.468,2.468,0,0,1-.891-2.034,2.549,2.549,0,0,1,.963-2.169,4.4,4.4,0,0,1,2.709-.729h2.286v1.764H184.86a3.318,3.318,0,0,0-1.62.279.874.874,0,0,0-.449.783.7.7,0,0,0,.359.622,2.186,2.186,0,0,0,2.034-.055,2.087,2.087,0,0,0,.711-.721,1.756,1.756,0,0,0,.261-.908h.63a4.966,4.966,0,0,1-.711,2.861A2.611,2.611,0,0,1,183.762,43.016Zm2.484-.216-.09-1.819V38.245a4.6,4.6,0,0,0-.18-1.377,1.75,1.75,0,0,0-.549-.863,1.518,1.518,0,0,0-.981-.3,2.007,2.007,0,0,0-.972.234,1.953,1.953,0,0,0-.738.756l-2.16-.738a4.3,4.3,0,0,1,.738-1.125,3.666,3.666,0,0,1,1.269-.9,4.66,4.66,0,0,1,1.917-.351,4.749,4.749,0,0,1,2.259.485,3.084,3.084,0,0,1,1.359,1.432,5.2,5.2,0,0,1,.432,2.312L188.5,42.8Z"/><path class="cls-4" d="M194.2,43.016a3.942,3.942,0,0,1-2.151-.576,3.825,3.825,0,0,1-1.413-1.638,6.487,6.487,0,0,1,0-5.014,3.847,3.847,0,0,1,1.413-1.629,3.941,3.941,0,0,1,2.151-.575,3.152,3.152,0,0,1,1.917.575,3.6,3.6,0,0,1,1.2,1.629,7.8,7.8,0,0,1,0,5.014,3.587,3.587,0,0,1-1.2,1.638A3.152,3.152,0,0,1,194.2,43.016Zm.612-2.178a1.9,1.9,0,0,0,1.089-.324,2.175,2.175,0,0,0,.747-.9,3.335,3.335,0,0,0,0-2.629,2.12,2.12,0,0,0-.747-.89,1.965,1.965,0,0,0-1.107-.315,2.038,2.038,0,0,0-1.134.315,2.221,2.221,0,0,0-.774.89,3.144,3.144,0,0,0,0,2.629,2.244,2.244,0,0,0,.783.9A2.045,2.045,0,0,0,194.814,40.838Zm2.214,1.962-.126-1.674V30.2h2.376V42.8Z"/><path class="cls-4" d="M201.509,42.8v-9h2.233l.143,1.656V42.8Zm5.958-4.608a3.836,3.836,0,0,0-.207-1.421,1.445,1.445,0,0,0-.585-.73,1.975,1.975,0,0,0-2.3.333,2.56,2.56,0,0,0-.5,1.71h-.792a6.248,6.248,0,0,1,.424-2.438,3.457,3.457,0,0,1,1.179-1.532,3.025,3.025,0,0,1,1.782-.53,3.156,3.156,0,0,1,2.511,1,4.507,4.507,0,0,1,.854,3.068Zm0,4.608V38.192l2.376-.541V42.8Zm5.977-4.608a3.71,3.71,0,0,0-.216-1.421,1.526,1.526,0,0,0-.585-.73,1.693,1.693,0,0,0-.892-.226,1.714,1.714,0,0,0-1.413.559,2.56,2.56,0,0,0-.5,1.71h-.792a6.248,6.248,0,0,1,.424-2.438,3.431,3.431,0,0,1,1.188-1.532,3.067,3.067,0,0,1,1.791-.53,3.131,3.131,0,0,1,2.5,1,4.6,4.6,0,0,1,.864,3.068Zm0,4.608V38.192l2.376-.541V42.8Z"/><path class="cls-4" d="M220.805,43.016a3.9,3.9,0,0,1-2.511-.72,2.47,2.47,0,0,1-.89-2.034,2.547,2.547,0,0,1,.963-2.169,4.4,4.4,0,0,1,2.709-.729h2.286v1.764H221.9a3.315,3.315,0,0,0-1.62.279.875.875,0,0,0-.451.783.7.7,0,0,0,.361.622,2.184,2.184,0,0,0,2.033-.055,2.1,2.1,0,0,0,.712-.721,1.756,1.756,0,0,0,.261-.908h.63a4.973,4.973,0,0,1-.711,2.861A2.613,2.613,0,0,1,220.805,43.016Zm2.485-.216-.09-1.819V38.245a4.6,4.6,0,0,0-.181-1.377,1.743,1.743,0,0,0-.549-.863,1.517,1.517,0,0,0-.98-.3,2.009,2.009,0,0,0-.973.234,1.958,1.958,0,0,0-.737.756l-2.16-.738a4.3,4.3,0,0,1,.738-1.125,3.662,3.662,0,0,1,1.268-.9,4.666,4.666,0,0,1,1.917-.351,4.744,4.744,0,0,1,2.259.485,3.081,3.081,0,0,1,1.36,1.432,5.2,5.2,0,0,1,.431,2.312L225.54,42.8Z"/><path class="cls-4" d="M227.484,46.67a3.788,3.788,0,0,1-1.963-.558l.954-1.963a4.119,4.119,0,0,0,.531.226,1.367,1.367,0,0,0,.423.081q.864,0,.864-1.135V33.8h2.376v9.683a2.887,2.887,0,0,1-3.185,3.187Zm2-14.274a1.415,1.415,0,1,1,.989-.415A1.345,1.345,0,0,1,229.482,32.4Z"/><path class="cls-4" d="M236,43.016a3.9,3.9,0,0,1-2.511-.72,2.468,2.468,0,0,1-.891-2.034,2.549,2.549,0,0,1,.963-2.169,4.4,4.4,0,0,1,2.709-.729h2.286v1.764H237.1a3.318,3.318,0,0,0-1.62.279.875.875,0,0,0-.45.783.7.7,0,0,0,.36.622,2.184,2.184,0,0,0,2.033-.055,2.09,2.09,0,0,0,.712-.721,1.756,1.756,0,0,0,.261-.908h.63a4.966,4.966,0,0,1-.711,2.861A2.613,2.613,0,0,1,236,43.016Zm2.484-.216-.09-1.819V38.245a4.565,4.565,0,0,0-.181-1.377,1.742,1.742,0,0,0-.548-.863,1.52,1.52,0,0,0-.981-.3,2.014,2.014,0,0,0-.973.234,1.958,1.958,0,0,0-.737.756l-2.16-.738a4.3,4.3,0,0,1,.738-1.125,3.666,3.666,0,0,1,1.269-.9,4.66,4.66,0,0,1,1.917-.351,4.749,4.749,0,0,1,2.259.485,3.084,3.084,0,0,1,1.359,1.432,5.2,5.2,0,0,1,.432,2.312l-.054,4.987Z"/><path class="cls-4" d="M247.661,42.8V30.2h2.465V42.8Zm2.177-4.464v-2.25h2.521a2.1,2.1,0,0,0,1-.234,1.841,1.841,0,0,0,.7-.648,1.718,1.718,0,0,0,.261-.936,1.655,1.655,0,0,0-.585-1.314,2.224,2.224,0,0,0-1.5-.5h-2.4V30.2l2.5-.018a4.922,4.922,0,0,1,2.359.512,4.041,4.041,0,0,1,1.6,1.45,3.9,3.9,0,0,1,.576,2.124,3.8,3.8,0,0,1-.6,2.115,4.047,4.047,0,0,1-1.648,1.44,5.318,5.318,0,0,1-2.376.513ZM254.59,42.8l-2.916-5.059,1.891-1.349L257.38,42.8Z"/><g class="cls-6"><image width="1069" height="1280" transform="translate(28.323 18.119) scale(0.118)" xlink:href="../Links/Padmaja-Mam.jpg"/></g></g></g></svg>