<svg xmlns="http://www.w3.org/2000/svg" viewBox="0 0 51.633 51.633"><defs><style>.cls-1{fill:#034e91;}.cls-2{fill:#f4ae35;}.cls-3{fill:#fff;}</style></defs><g id="Layer_2" data-name="Layer 2"><g id="Home"><circle class="cls-1" cx="25.817" cy="25.817" r="25.817"/><path class="cls-2" d="M44.846,17.777a20.553,20.553,0,0,0-4.1-6.229l-.8,2.986h0L36,29.279,33.119,18.354H29.2L25.207,33.236h3.016L31.15,22.312l2.878,10.924h3.924l4.115-15.358A18.086,18.086,0,0,1,10.386,35.253H7.44A20.658,20.658,0,0,0,44.846,17.777Z"/><path class="cls-3" d="M18.8,30.324H8.3A18.082,18.082,0,0,1,38.334,12.767l.746-2.782A20.659,20.659,0,0,0,6.537,33.236H18.8A5.65,5.65,0,0,0,24,29.165a3.9,3.9,0,0,0-.588-3.416,3.736,3.736,0,0,0-3.009-1.41H15.573a.864.864,0,0,1-.7-.27,1.037,1.037,0,0,1-.086-.889,2.732,2.732,0,0,1,2.388-1.913H26.4l.781-2.913h-10a5.651,5.651,0,0,0-5.2,4.072,3.9,3.9,0,0,0,.588,3.416,3.734,3.734,0,0,0,3.009,1.41h4.833a.861.861,0,0,1,.7.27,1.036,1.036,0,0,1,.086.889A2.732,2.732,0,0,1,18.8,30.324Z"/></g></g></svg>