<svg xmlns="http://www.w3.org/2000/svg" viewBox="0 0 278.776 51.633"><defs><style>.cls-1{fill:#034e91;}.cls-2{fill:#f4ae35;}.cls-3{fill:#fff;}</style></defs><g id="Layer_2" data-name="Layer 2"><g id="Home"><circle class="cls-1" cx="25.817" cy="25.817" r="25.817"/><path class="cls-2" d="M44.846,17.777a20.553,20.553,0,0,0-4.1-6.229l-.8,2.986h0L36,29.279,33.119,18.354H29.2L25.207,33.236h3.016L31.15,22.312l2.878,10.924h3.924l4.115-15.358A18.086,18.086,0,0,1,10.386,35.253H7.44A20.658,20.658,0,0,0,44.846,17.777Z"/><path class="cls-3" d="M18.8,30.324H8.3A18.082,18.082,0,0,1,38.334,12.767l.746-2.782A20.659,20.659,0,0,0,6.537,33.236H18.8A5.65,5.65,0,0,0,24,29.165a3.9,3.9,0,0,0-.588-3.416,3.736,3.736,0,0,0-3.009-1.41H15.573a.864.864,0,0,1-.7-.27,1.037,1.037,0,0,1-.086-.889,2.732,2.732,0,0,1,2.388-1.913H26.4l.781-2.913h-10a5.651,5.651,0,0,0-5.2,4.072,3.9,3.9,0,0,0,.588,3.416,3.734,3.734,0,0,0,3.009,1.41h4.833a.861.861,0,0,1,.7.27,1.036,1.036,0,0,1,.086.889A2.732,2.732,0,0,1,18.8,30.324Z"/><path class="cls-1" d="M70.63,24.2a5.262,5.262,0,0,0,1.276-.129,2.343,2.343,0,0,0,.807-.35,1.177,1.177,0,0,0,.421-.527,1.879,1.879,0,0,0,.117-.679,1.57,1.57,0,0,0-.749-1.322,10.707,10.707,0,0,0-2.574-1.135q-.8-.281-1.591-.643A5.862,5.862,0,0,1,66.91,18.5a4.336,4.336,0,0,1-1.03-1.333,4.172,4.172,0,0,1-.4-1.908,4.734,4.734,0,0,1,.421-2.024A4.336,4.336,0,0,1,67.1,11.7a5.464,5.464,0,0,1,1.872-.971,8.408,8.408,0,0,1,2.48-.339,9.925,9.925,0,0,1,4.8,1.123L75.193,14.4a9.9,9.9,0,0,0-1.509-.621,6.551,6.551,0,0,0-2-.269,3.673,3.673,0,0,0-1.884.363,1.225,1.225,0,0,0-.573,1.112,1.276,1.276,0,0,0,.211.748,2.036,2.036,0,0,0,.6.55,5.225,5.225,0,0,0,.889.445q.5.2,1.111.409,1.263.468,2.2.925a5.892,5.892,0,0,1,1.556,1.064,3.868,3.868,0,0,1,.924,1.428,5.729,5.729,0,0,1,.305,1.989,4.226,4.226,0,0,1-1.592,3.522,7.675,7.675,0,0,1-4.8,1.252,13.261,13.261,0,0,1-1.942-.129,12.563,12.563,0,0,1-1.533-.316,8.8,8.8,0,0,1-1.146-.4,8.384,8.384,0,0,1-.808-.4l1.03-2.9a9.135,9.135,0,0,0,1.79.713A9.273,9.273,0,0,0,70.63,24.2Z"/><path class="cls-1" d="M77.837,20.924a7.536,7.536,0,0,1,.5-2.866,6.134,6.134,0,0,1,1.323-2.048,5.488,5.488,0,0,1,1.883-1.24,5.894,5.894,0,0,1,2.188-.421,5.437,5.437,0,0,1,4.142,1.6A6.6,6.6,0,0,1,89.4,20.667q0,.3-.023.667t-.047.643h-7.91a2.323,2.323,0,0,0,1.007,1.709,4.046,4.046,0,0,0,2.387.631,10.071,10.071,0,0,0,1.883-.175,7.1,7.1,0,0,0,1.51-.433l.468,2.831a4.747,4.747,0,0,1-.749.281,9.62,9.62,0,0,1-1.042.246q-.573.105-1.228.175a12.247,12.247,0,0,1-1.31.071,7.744,7.744,0,0,1-2.89-.492,5.612,5.612,0,0,1-2.036-1.345,5.339,5.339,0,0,1-1.194-2.025A8.027,8.027,0,0,1,77.837,20.924Zm8.19-1.334a3.55,3.55,0,0,0-.152-.865,2.149,2.149,0,0,0-.4-.749,2.112,2.112,0,0,0-.679-.538,2.2,2.2,0,0,0-1.018-.211,2.347,2.347,0,0,0-1.006.2,2.084,2.084,0,0,0-.7.526,2.356,2.356,0,0,0-.433.761,4.97,4.97,0,0,0-.223.877Z"/><path class="cls-1" d="M90.333,20.924a7.536,7.536,0,0,1,.5-2.866,6.134,6.134,0,0,1,1.323-2.048,5.5,5.5,0,0,1,1.883-1.24,5.894,5.894,0,0,1,2.188-.421,5.437,5.437,0,0,1,4.142,1.6,6.6,6.6,0,0,1,1.521,4.715q0,.3-.023.667t-.047.643H93.914a2.318,2.318,0,0,0,1.006,1.709,4.046,4.046,0,0,0,2.387.631,10.071,10.071,0,0,0,1.883-.175,7.08,7.08,0,0,0,1.51-.433l.468,2.831a4.747,4.747,0,0,1-.749.281,9.62,9.62,0,0,1-1.042.246q-.573.105-1.228.175a12.247,12.247,0,0,1-1.31.071,7.748,7.748,0,0,1-2.89-.492,5.612,5.612,0,0,1-2.036-1.345,5.352,5.352,0,0,1-1.194-2.025A8.027,8.027,0,0,1,90.333,20.924Zm8.19-1.334a3.6,3.6,0,0,0-.151-.865,2.168,2.168,0,0,0-.4-.749,2.112,2.112,0,0,0-.679-.538,2.2,2.2,0,0,0-1.018-.211,2.347,2.347,0,0,0-1.006.2,2.084,2.084,0,0,0-.7.526,2.356,2.356,0,0,0-.433.761,4.881,4.881,0,0,0-.222.877Z"/><path class="cls-1" d="M114.529,26.985q-1.567-2.784-3.393-5.5a55.869,55.869,0,0,0-3.885-5.125V26.985h-3.6V10.768h2.972q.773.772,1.708,1.9t1.907,2.4q.971,1.275,1.931,2.644t1.8,2.632V10.768H117.6V26.985Z"/><path class="cls-1" d="M119.35,20.924a7.536,7.536,0,0,1,.5-2.866,6.132,6.132,0,0,1,1.322-2.048,5.5,5.5,0,0,1,1.884-1.24,5.894,5.894,0,0,1,2.188-.421,5.437,5.437,0,0,1,4.142,1.6,6.6,6.6,0,0,1,1.521,4.715q0,.3-.024.667t-.047.643H122.93a2.316,2.316,0,0,0,1.007,1.709,4.042,4.042,0,0,0,2.386.631,10.082,10.082,0,0,0,1.884-.175,7.087,7.087,0,0,0,1.509-.433l.469,2.831a4.747,4.747,0,0,1-.749.281,9.676,9.676,0,0,1-1.042.246q-.573.105-1.228.175a12.252,12.252,0,0,1-1.311.071,7.751,7.751,0,0,1-2.89-.492,5.62,5.62,0,0,1-2.036-1.345,5.35,5.35,0,0,1-1.193-2.025A8.027,8.027,0,0,1,119.35,20.924Zm8.19-1.334a3.6,3.6,0,0,0-.152-.865,2.168,2.168,0,0,0-.4-.749,2.108,2.108,0,0,0-.678-.538,2.207,2.207,0,0,0-1.019-.211,2.339,2.339,0,0,0-1.005.2,2.089,2.089,0,0,0-.7.526,2.375,2.375,0,0,0-.433.761,5.056,5.056,0,0,0-.222.877Z"/><path class="cls-1" d="M131.846,20.924a7.517,7.517,0,0,1,.5-2.866,6.132,6.132,0,0,1,1.322-2.048,5.492,5.492,0,0,1,1.884-1.24,5.89,5.89,0,0,1,2.188-.421,5.436,5.436,0,0,1,4.141,1.6,6.6,6.6,0,0,1,1.521,4.715q0,.3-.023.667c-.016.242-.031.456-.047.643h-7.909a2.318,2.318,0,0,0,1.006,1.709,4.046,4.046,0,0,0,2.387.631,10.09,10.09,0,0,0,1.884-.175,7.087,7.087,0,0,0,1.509-.433l.468,2.831a4.709,4.709,0,0,1-.749.281,9.655,9.655,0,0,1-1.041.246q-.574.105-1.229.175a12.219,12.219,0,0,1-1.31.071,7.748,7.748,0,0,1-2.89-.492,5.612,5.612,0,0,1-2.036-1.345,5.352,5.352,0,0,1-1.194-2.025A8.027,8.027,0,0,1,131.846,20.924Zm8.19-1.334a3.648,3.648,0,0,0-.152-.865,2.168,2.168,0,0,0-.4-.749,2.112,2.112,0,0,0-.679-.538,2.2,2.2,0,0,0-1.018-.211,2.347,2.347,0,0,0-1.006.2,2.084,2.084,0,0,0-.7.526,2.375,2.375,0,0,0-.433.761,4.967,4.967,0,0,0-.222.877Z"/><path class="cls-1" d="M149.841,27.219a8.72,8.72,0,0,1-2.469-.328,3.636,3.636,0,0,1-1.5-.854,2.831,2.831,0,0,1-.75-1.334,7.22,7.22,0,0,1-.2-1.766V9.388l3.486-.562V22.234a4.661,4.661,0,0,0,.07.843,1.464,1.464,0,0,0,.269.632,1.425,1.425,0,0,0,.574.421,3.137,3.137,0,0,0,1.006.211Z"/><path class="cls-1" d="M163.226,27.313a7.88,7.88,0,0,1-6.026-2.2,8.764,8.764,0,0,1-2.071-6.248,9.614,9.614,0,0,1,.632-3.592,7.733,7.733,0,0,1,1.732-2.668,7.233,7.233,0,0,1,2.62-1.649,9.442,9.442,0,0,1,3.3-.562,10.62,10.62,0,0,1,1.872.152,12.334,12.334,0,0,1,1.474.351,7.266,7.266,0,0,1,1.053.41c.281.14.483.249.608.327l-1.052,2.949a8.8,8.8,0,0,0-1.744-.679,8.328,8.328,0,0,0-2.258-.281,4.993,4.993,0,0,0-1.65.281,3.73,3.73,0,0,0-1.427.9,4.471,4.471,0,0,0-.995,1.6,6.717,6.717,0,0,0-.374,2.387,8.5,8.5,0,0,0,.246,2.094,4.448,4.448,0,0,0,.8,1.673,3.822,3.822,0,0,0,1.439,1.112,5.125,5.125,0,0,0,2.153.409,9.859,9.859,0,0,0,1.427-.093,10.686,10.686,0,0,0,1.124-.223,5.833,5.833,0,0,0,.866-.292c.249-.109.475-.211.678-.3l1.007,2.925a8.532,8.532,0,0,1-2.176.842A12.675,12.675,0,0,1,163.226,27.313Z"/><path class="cls-1" d="M180.823,20.807a7.994,7.994,0,0,1-.421,2.656,5.783,5.783,0,0,1-1.217,2.06,5.471,5.471,0,0,1-1.907,1.321,6.794,6.794,0,0,1-4.961,0,5.461,5.461,0,0,1-1.907-1.321,6.059,6.059,0,0,1-1.241-2.06,7.626,7.626,0,0,1-.444-2.656,7.355,7.355,0,0,1,.456-2.644,6,6,0,0,1,1.264-2.036,5.681,5.681,0,0,1,1.919-1.31,6.173,6.173,0,0,1,2.422-.468,6.238,6.238,0,0,1,2.445.468,5.565,5.565,0,0,1,1.907,1.31,5.948,5.948,0,0,1,1.24,2.036A7.511,7.511,0,0,1,180.823,20.807Zm-3.557,0a4.394,4.394,0,0,0-.643-2.539,2.107,2.107,0,0,0-1.837-.924,2.135,2.135,0,0,0-1.849.924,4.325,4.325,0,0,0-.655,2.539,4.439,4.439,0,0,0,.655,2.563,2.117,2.117,0,0,0,1.849.947,2.09,2.09,0,0,0,1.837-.947A4.51,4.51,0,0,0,177.266,20.807Z"/><path class="cls-1" d="M182.344,15.1a19.538,19.538,0,0,1,2.293-.479,18.869,18.869,0,0,1,2.948-.222,7.182,7.182,0,0,1,2.609.409,3.919,3.919,0,0,1,1.65,1.158,4.517,4.517,0,0,1,.866,1.779,9.485,9.485,0,0,1,.257,2.293v6.95h-3.486V20.456a4.694,4.694,0,0,0-.445-2.387,1.813,1.813,0,0,0-1.661-.7q-.375,0-.8.035t-.749.082v9.5h-3.486Z"/><path class="cls-1" d="M198.49,24.481a3.478,3.478,0,0,0,1.357-.187.725.725,0,0,0,.4-.726.891.891,0,0,0-.515-.737,9.824,9.824,0,0,0-1.568-.713,16.006,16.006,0,0,1-1.486-.632,4.368,4.368,0,0,1-1.134-.784,3.149,3.149,0,0,1-.726-1.088,4.023,4.023,0,0,1-.257-1.521,3.288,3.288,0,0,1,1.287-2.738,5.6,5.6,0,0,1,3.533-1.006,11.386,11.386,0,0,1,2.153.2,10.066,10.066,0,0,1,1.638.434l-.608,2.714a12.882,12.882,0,0,0-1.323-.375,7.257,7.257,0,0,0-1.6-.163q-1.639,0-1.638.912a.939.939,0,0,0,.07.375.8.8,0,0,0,.281.316,3.91,3.91,0,0,0,.573.328q.363.178.924.39a14.315,14.315,0,0,1,1.9.838,4.522,4.522,0,0,1,1.181.891,2.749,2.749,0,0,1,.609,1.062,4.718,4.718,0,0,1,.175,1.354,3.12,3.12,0,0,1-1.369,2.756,6.829,6.829,0,0,1-3.873.934,10.931,10.931,0,0,1-4.235-.749l.585-2.831a11.479,11.479,0,0,0,1.825.549A8.848,8.848,0,0,0,198.49,24.481Z"/><path class="cls-1" d="M215.642,26.564a19.512,19.512,0,0,1-2.293.48,18.873,18.873,0,0,1-2.949.222,6.975,6.975,0,0,1-2.609-.422,3.957,3.957,0,0,1-1.65-1.181,4.615,4.615,0,0,1-.866-1.814,9.783,9.783,0,0,1-.257-2.316V14.676h3.487v6.435a5,5,0,0,0,.444,2.434,1.768,1.768,0,0,0,1.662.749q.374,0,.8-.035t.749-.082v-9.5h3.487Z"/><path class="cls-1" d="M222.662,27.219a8.72,8.72,0,0,1-2.469-.328,3.642,3.642,0,0,1-1.5-.854,2.821,2.821,0,0,1-.749-1.334,7.169,7.169,0,0,1-.2-1.766V9.388l3.486-.562V22.234a4.567,4.567,0,0,0,.071.843,1.452,1.452,0,0,0,.269.632,1.415,1.415,0,0,0,.573.421,3.137,3.137,0,0,0,1.006.211Z"/><path class="cls-1" d="M223.855,11.611l3.487-.562v3.627h4.189v2.9h-4.189v4.329a3.433,3.433,0,0,0,.387,1.755,1.655,1.655,0,0,0,1.556.655,6.682,6.682,0,0,0,1.158-.105,5.942,5.942,0,0,0,1.088-.292l.491,2.714a9.877,9.877,0,0,1-1.4.445,8.216,8.216,0,0,1-1.895.187,6.228,6.228,0,0,1-2.364-.387,3.691,3.691,0,0,1-1.5-1.076,4,4,0,0,1-.784-1.673,9.821,9.821,0,0,1-.223-2.176Z"/><path class="cls-1" d="M237.146,14.349a8.054,8.054,0,0,1,2.575.351,4,4,0,0,1,1.65,1.006,3.706,3.706,0,0,1,.877,1.591,7.879,7.879,0,0,1,.257,2.083v7.254q-.748.163-2.082.386a20.044,20.044,0,0,1-3.23.222,10.263,10.263,0,0,1-2.164-.21,4.7,4.7,0,0,1-1.673-.691,3.157,3.157,0,0,1-1.077-1.252,4.325,4.325,0,0,1-.374-1.895,3.588,3.588,0,0,1,.433-1.825,3.339,3.339,0,0,1,1.158-1.194,5.251,5.251,0,0,1,1.662-.643,9.35,9.35,0,0,1,1.942-.2,11.02,11.02,0,0,1,1.205.059,5.423,5.423,0,0,1,.854.152v-.328a1.932,1.932,0,0,0-.538-1.427,2.606,2.606,0,0,0-1.872-.539,12.026,12.026,0,0,0-1.755.129,7.546,7.546,0,0,0-1.5.363l-.444-2.808c.2-.062.456-.129.76-.2s.636-.133.995-.188.737-.1,1.134-.14S236.741,14.349,237.146,14.349Zm.282,10.2c.343,0,.67-.007.982-.023a7,7,0,0,0,.749-.07V21.814a6.1,6.1,0,0,0-.632-.094,7.074,7.074,0,0,0-.772-.047,6.9,6.9,0,0,0-.924.059,2.425,2.425,0,0,0-.761.222,1.293,1.293,0,0,0-.514.445,1.227,1.227,0,0,0-.188.7,1.193,1.193,0,0,0,.55,1.134A3.037,3.037,0,0,0,237.428,24.551Z"/><path class="cls-1" d="M244.5,15.1a19.493,19.493,0,0,1,2.293-.479,18.869,18.869,0,0,1,2.948-.222,7.182,7.182,0,0,1,2.609.409A3.919,3.919,0,0,1,254,15.963a4.531,4.531,0,0,1,.866,1.779,9.485,9.485,0,0,1,.257,2.293v6.95h-3.486V20.456a4.7,4.7,0,0,0-.445-2.387,1.814,1.814,0,0,0-1.662-.7q-.374,0-.8.035t-.749.082v9.5H244.5Z"/><path class="cls-1" d="M256.522,20.831a7.274,7.274,0,0,1,.433-2.516,5.892,5.892,0,0,1,3.241-3.452,6.583,6.583,0,0,1,2.668-.514,8.614,8.614,0,0,1,1.8.175,8.83,8.83,0,0,1,1.591.5l-.725,2.785a8.853,8.853,0,0,0-1.077-.328,5.659,5.659,0,0,0-1.31-.14,2.763,2.763,0,0,0-2.305.959,3.954,3.954,0,0,0-.761,2.528,4.091,4.091,0,0,0,.714,2.574,2.99,2.99,0,0,0,2.492.912,8.544,8.544,0,0,0,1.357-.117,5.766,5.766,0,0,0,1.334-.374l.491,2.855a8.211,8.211,0,0,1-1.521.445,10.087,10.087,0,0,1-2.012.187,7.584,7.584,0,0,1-2.9-.5,5.47,5.47,0,0,1-2-1.369,5.332,5.332,0,0,1-1.147-2.048A8.683,8.683,0,0,1,256.522,20.831Z"/><path class="cls-1" d="M278.776,14.676q-1.056,3.558-2.2,6.669t-2.51,6.038a13.753,13.753,0,0,1-.985,1.79A5.535,5.535,0,0,1,272,30.39a3.827,3.827,0,0,1-1.324.7,6,6,0,0,1-1.722.222,7.06,7.06,0,0,1-1.512-.152,6.842,6.842,0,0,1-1.136-.339l.608-2.785a5.959,5.959,0,0,0,.96.258,5.49,5.49,0,0,0,.89.07,1.944,1.944,0,0,0,1.439-.5,4.027,4.027,0,0,0,.855-1.392q-1.194-2.34-2.389-5.253a65.889,65.889,0,0,1-2.247-6.541h3.7q.234.914.552,1.977t.67,2.153q.353,1.089.717,2.118t.693,1.872q.306-.843.635-1.872t.646-2.118q.317-1.088.611-2.153t.528-1.977Z"/><path class="cls-1" d="M70.7,42.627q-.164-.48-.34-.948t-.34-.959H66.6q-.163.49-.334.965t-.334.942H64.394q.454-1.3.865-2.4t.8-2.083q.39-.983.777-1.872t.8-1.755h1.407q.409.865.8,1.755t.778,1.872q.393.983.807,2.083t.872,2.4Zm-2.392-6.54q-.27.619-.615,1.509t-.719,1.93h2.668q-.375-1.041-.726-1.942T68.308,36.087Z"/><path class="cls-1" d="M72.619,39.573A3.738,3.738,0,0,1,72.83,38.3a2.991,2.991,0,0,1,.6-1.024,2.758,2.758,0,0,1,.953-.679,3.134,3.134,0,0,1,1.263-.245,4.3,4.3,0,0,1,1.639.315l-.3,1.159a3.236,3.236,0,0,0-.555-.176,3.045,3.045,0,0,0-.661-.07A1.551,1.551,0,0,0,74.5,38.1a2.233,2.233,0,0,0-.433,1.468,2.318,2.318,0,0,0,.409,1.445,1.637,1.637,0,0,0,1.381.532,3.693,3.693,0,0,0,.714-.069,3.365,3.365,0,0,0,.608-.176l.2,1.17a2.971,2.971,0,0,1-.708.211,5.058,5.058,0,0,1-.977.093,3.547,3.547,0,0,1-1.363-.24,2.579,2.579,0,0,1-.959-.667,2.735,2.735,0,0,1-.567-1.017A4.217,4.217,0,0,1,72.619,39.573Z"/><path class="cls-1" d="M78.293,34.893l1.416-.234v1.849h2.177V37.69H79.709v2.492a1.807,1.807,0,0,0,.234,1.052.927.927,0,0,0,.8.316,2.567,2.567,0,0,0,.684-.081,4.852,4.852,0,0,0,.474-.152l.234,1.123a5.349,5.349,0,0,1-.643.216,3.46,3.46,0,0,1-.936.112,2.959,2.959,0,0,1-1.094-.176,1.615,1.615,0,0,1-.7-.509,2.016,2.016,0,0,1-.363-.808,5.015,5.015,0,0,1-.106-1.082Z"/><path class="cls-1" d="M88.157,42.44q-.409.105-1.065.216a8.527,8.527,0,0,1-1.439.112,3.178,3.178,0,0,1-1.234-.211,1.962,1.962,0,0,1-.8-.585,2.293,2.293,0,0,1-.428-.9,4.738,4.738,0,0,1-.129-1.141V36.508h1.416v3.2a2.589,2.589,0,0,0,.287,1.405,1.121,1.121,0,0,0,1,.421c.171,0,.352-.008.543-.023a2.826,2.826,0,0,0,.427-.059V36.508h1.416Z"/><path class="cls-1" d="M91.878,36.356a3.471,3.471,0,0,1,1.182.175,1.887,1.887,0,0,1,.766.492,1.839,1.839,0,0,1,.409.766,3.744,3.744,0,0,1,.123.988v3.709c-.218.047-.548.1-.988.17a10.137,10.137,0,0,1-1.492.1,4.425,4.425,0,0,1-1.006-.106,2.114,2.114,0,0,1-.779-.339,1.609,1.609,0,0,1-.5-.608,2.113,2.113,0,0,1-.181-.925,1.779,1.779,0,0,1,.2-.889,1.689,1.689,0,0,1,.555-.591,2.4,2.4,0,0,1,.813-.327,4.54,4.54,0,0,1,.966-.1,4.46,4.46,0,0,1,.491.029,4.638,4.638,0,0,1,.55.1v-.234a1.83,1.83,0,0,0-.058-.468.977.977,0,0,0-.2-.392.957.957,0,0,0-.386-.263,1.66,1.66,0,0,0-.6-.094,5.334,5.334,0,0,0-.9.07,4.03,4.03,0,0,0-.667.164l-.175-1.147a5.718,5.718,0,0,1,.784-.187A6.187,6.187,0,0,1,91.878,36.356ZM92,41.632a5.245,5.245,0,0,0,.994-.07V39.995a2.728,2.728,0,0,0-.339-.071,3.22,3.22,0,0,0-.491-.035,3.308,3.308,0,0,0-.474.035,1.5,1.5,0,0,0-.433.129.78.78,0,0,0-.31.263.736.736,0,0,0-.117.427.749.749,0,0,0,.316.7A1.635,1.635,0,0,0,92,41.632Z"/><path class="cls-1" d="M99.459,37.783a4.56,4.56,0,0,0-.485-.123,3.573,3.573,0,0,0-.72-.064,3.509,3.509,0,0,0-.865.129v4.9H95.973V36.8A7.884,7.884,0,0,1,97,36.514a6.349,6.349,0,0,1,1.362-.135c.094,0,.2.006.328.018s.25.027.375.046.245.043.362.071.211.053.281.075Z"/><path class="cls-1" d="M102.15,34.718a.816.816,0,0,1-.257.632.879.879,0,0,1-.608.234.891.891,0,0,1-.62-.234.813.813,0,0,1-.258-.632.826.826,0,0,1,.258-.644.886.886,0,0,1,.62-.234.874.874,0,0,1,.608.234A.829.829,0,0,1,102.15,34.718ZM102,42.627h-1.415V36.508H102Z"/><path class="cls-1" d="M103.344,39.6a3.868,3.868,0,0,1,.239-1.416,2.988,2.988,0,0,1,.638-1.012,2.634,2.634,0,0,1,.913-.608,2.815,2.815,0,0,1,1.053-.2,2.521,2.521,0,0,1,1.972.784,3.394,3.394,0,0,1,.707,2.34c0,.078,0,.166-.006.263s-.009.185-.017.263h-4.037a1.614,1.614,0,0,0,.521,1.141,1.979,1.979,0,0,0,1.34.4,4.357,4.357,0,0,0,.941-.093,3.834,3.834,0,0,0,.673-.2l.188,1.159a2.2,2.2,0,0,1-.322.122,4.559,4.559,0,0,1-.468.117q-.264.054-.568.088a5.27,5.27,0,0,1-.62.035,3.752,3.752,0,0,1-1.4-.24,2.616,2.616,0,0,1-.983-.667,2.735,2.735,0,0,1-.573-1.006A4.1,4.1,0,0,1,103.344,39.6Zm4.107-.632a1.884,1.884,0,0,0-.082-.556,1.359,1.359,0,0,0-.24-.456,1.136,1.136,0,0,0-.386-.3,1.22,1.22,0,0,0-.544-.112,1.267,1.267,0,0,0-.574.123,1.313,1.313,0,0,0-.415.322,1.468,1.468,0,0,0-.263.457,2.407,2.407,0,0,0-.129.526Z"/><path class="cls-1" d="M111.779,41.609a1.856,1.856,0,0,0,.819-.134.479.479,0,0,0,.258-.463.6.6,0,0,0-.275-.5,4.13,4.13,0,0,0-.907-.433,7.188,7.188,0,0,1-.708-.3,2.352,2.352,0,0,1-.555-.369,1.486,1.486,0,0,1-.369-.509,1.764,1.764,0,0,1-.135-.731,1.6,1.6,0,0,1,.62-1.328,2.669,2.669,0,0,1,1.685-.485,5.61,5.61,0,0,1,1.767.292l-.257,1.147a3.471,3.471,0,0,0-.6-.193,3.581,3.581,0,0,0-.842-.088,1.47,1.47,0,0,0-.7.146.48.48,0,0,0-.269.451.652.652,0,0,0,.052.269.572.572,0,0,0,.181.216,1.8,1.8,0,0,0,.34.2,5.271,5.271,0,0,0,.514.2,7.719,7.719,0,0,1,.854.369,2.277,2.277,0,0,1,.58.409,1.4,1.4,0,0,1,.333.521,2.084,2.084,0,0,1,.105.7,1.513,1.513,0,0,1-.649,1.328,3.234,3.234,0,0,1-1.854.45,5.106,5.106,0,0,1-1.3-.134,6.58,6.58,0,0,1-.69-.217l.245-1.182a6.341,6.341,0,0,0,.755.246A3.889,3.889,0,0,0,111.779,41.609Z"/><path class="cls-1" d="M120.122,36.356a3.465,3.465,0,0,1,1.181.175,1.88,1.88,0,0,1,.766.492,1.841,1.841,0,0,1,.41.766,3.744,3.744,0,0,1,.123.988v3.709c-.219.047-.548.1-.989.17a10.133,10.133,0,0,1-1.491.1,4.428,4.428,0,0,1-1.007-.106,2.109,2.109,0,0,1-.778-.339,1.609,1.609,0,0,1-.5-.608,2.112,2.112,0,0,1-.182-.925,1.79,1.79,0,0,1,.2-.889,1.692,1.692,0,0,1,.556-.591,2.4,2.4,0,0,1,.813-.327,4.531,4.531,0,0,1,.965-.1,4.478,4.478,0,0,1,.492.029,4.675,4.675,0,0,1,.55.1v-.234a1.83,1.83,0,0,0-.059-.468.975.975,0,0,0-.2-.392.961.961,0,0,0-.387-.263,1.654,1.654,0,0,0-.6-.094,5.325,5.325,0,0,0-.9.07,4,4,0,0,0-.667.164l-.175-1.147a5.7,5.7,0,0,1,.783-.187A6.2,6.2,0,0,1,120.122,36.356Zm.116,5.276a5.265,5.265,0,0,0,1-.07V39.995a2.728,2.728,0,0,0-.339-.071,3.224,3.224,0,0,0-.492-.035,3.33,3.33,0,0,0-.474.035,1.5,1.5,0,0,0-.432.129.773.773,0,0,0-.31.263.729.729,0,0,0-.118.427.751.751,0,0,0,.316.7A1.637,1.637,0,0,0,120.238,41.632Z"/><path class="cls-1" d="M124.217,36.707a9.644,9.644,0,0,1,1.065-.223,9.192,9.192,0,0,1,1.45-.105,3.326,3.326,0,0,1,1.252.205,1.944,1.944,0,0,1,.8.573,2.191,2.191,0,0,1,.421.889,4.971,4.971,0,0,1,.123,1.141v3.44h-1.416V39.409a4.638,4.638,0,0,0-.064-.836,1.483,1.483,0,0,0-.211-.562.844.844,0,0,0-.4-.316,1.677,1.677,0,0,0-.614-.1,4.814,4.814,0,0,0-.562.035c-.194.023-.339.043-.432.059v4.937h-1.416Z"/><path class="cls-1" d="M136.116,42.44a8.33,8.33,0,0,1-1.059.234,8.234,8.234,0,0,1-1.34.105,3.578,3.578,0,0,1-1.3-.222,2.713,2.713,0,0,1-.977-.638,2.818,2.818,0,0,1-.62-1.006,3.85,3.85,0,0,1-.216-1.328,4.473,4.473,0,0,1,.182-1.316,2.87,2.87,0,0,1,.532-1.013,2.374,2.374,0,0,1,.854-.649,2.78,2.78,0,0,1,1.158-.228,2.657,2.657,0,0,1,.784.105,3.574,3.574,0,0,1,.585.234V33.782l1.416-.235Zm-4.06-2.89a2.224,2.224,0,0,0,.444,1.468,1.516,1.516,0,0,0,1.229.532,5.022,5.022,0,0,0,.579-.028,3.827,3.827,0,0,0,.392-.065v-3.51a2.175,2.175,0,0,0-.5-.24,1.948,1.948,0,0,0-.661-.111,1.265,1.265,0,0,0-1.129.527A2.505,2.505,0,0,0,132.056,39.55Z"/><path class="cls-1" d="M144.083,42.8a4.507,4.507,0,0,1-1.637-.28,3.229,3.229,0,0,1-1.229-.825,3.676,3.676,0,0,1-.772-1.328,5.526,5.526,0,0,1-.269-1.8,4.868,4.868,0,0,1,.31-1.8,3.9,3.9,0,0,1,.848-1.328,3.561,3.561,0,0,1,1.264-.825,4.273,4.273,0,0,1,1.556-.28,4.987,4.987,0,0,1,.912.076,6.664,6.664,0,0,1,.714.169,3.007,3.007,0,0,1,.5.2c.133.07.226.121.281.152l-.433,1.205a3.421,3.421,0,0,0-.8-.333,3.856,3.856,0,0,0-1.129-.158,2.635,2.635,0,0,0-.983.181,2.137,2.137,0,0,0-.79.544,2.551,2.551,0,0,0-.521.913,3.981,3.981,0,0,0-.187,1.275,4.518,4.518,0,0,0,.146,1.182,2.618,2.618,0,0,0,.451.93,2.04,2.04,0,0,0,.772.608,2.647,2.647,0,0,0,1.123.217,4.244,4.244,0,0,0,1.276-.158,5.1,5.1,0,0,0,.76-.3l.4,1.2a2.067,2.067,0,0,1-.38.187,5.2,5.2,0,0,1-.568.181,5.528,5.528,0,0,1-.737.141A6.912,6.912,0,0,1,144.083,42.8Z"/><path class="cls-1" d="M153.139,39.562a3.959,3.959,0,0,1-.21,1.322,2.938,2.938,0,0,1-.6,1.017,2.675,2.675,0,0,1-.93.656,3.006,3.006,0,0,1-1.2.234,2.965,2.965,0,0,1-1.194-.234,2.689,2.689,0,0,1-.924-.656,2.982,2.982,0,0,1-.6-1.017,3.859,3.859,0,0,1-.216-1.322,3.814,3.814,0,0,1,.216-1.317,2.956,2.956,0,0,1,.609-1.012,2.679,2.679,0,0,1,.93-.649,2.994,2.994,0,0,1,1.182-.228,3.044,3.044,0,0,1,1.187.228,2.607,2.607,0,0,1,.93.649,3.023,3.023,0,0,1,.6,1.012A3.814,3.814,0,0,1,153.139,39.562Zm-1.451,0a2.382,2.382,0,0,0-.392-1.445,1.389,1.389,0,0,0-2.188,0,2.389,2.389,0,0,0-.391,1.445,2.436,2.436,0,0,0,.391,1.462,1.381,1.381,0,0,0,2.188,0A2.429,2.429,0,0,0,151.688,39.562Z"/><path class="cls-1" d="M154.485,36.707a9.644,9.644,0,0,1,1.065-.223,9.192,9.192,0,0,1,1.45-.105,3.322,3.322,0,0,1,1.252.205,1.944,1.944,0,0,1,.8.573,2.191,2.191,0,0,1,.421.889,4.971,4.971,0,0,1,.123,1.141v3.44h-1.416V39.409a4.638,4.638,0,0,0-.064-.836,1.483,1.483,0,0,0-.211-.562.844.844,0,0,0-.4-.316,1.677,1.677,0,0,0-.614-.1,4.814,4.814,0,0,0-.562.035c-.194.023-.339.043-.432.059v4.937h-1.416Z"/><path class="cls-1" d="M162.745,41.609a1.856,1.856,0,0,0,.819-.134.479.479,0,0,0,.258-.463.6.6,0,0,0-.275-.5,4.13,4.13,0,0,0-.907-.433,6.989,6.989,0,0,1-.708-.3,2.38,2.38,0,0,1-.556-.369,1.5,1.5,0,0,1-.368-.509,1.764,1.764,0,0,1-.135-.731,1.6,1.6,0,0,1,.62-1.328,2.669,2.669,0,0,1,1.685-.485,5.61,5.61,0,0,1,1.767.292l-.258,1.147a3.428,3.428,0,0,0-.6-.193,3.581,3.581,0,0,0-.842-.088,1.474,1.474,0,0,0-.7.146.482.482,0,0,0-.269.451.652.652,0,0,0,.053.269.572.572,0,0,0,.181.216,1.8,1.8,0,0,0,.34.2,5.271,5.271,0,0,0,.514.2,7.8,7.8,0,0,1,.854.369,2.3,2.3,0,0,1,.58.409,1.4,1.4,0,0,1,.333.521,2.084,2.084,0,0,1,.1.7,1.513,1.513,0,0,1-.649,1.328,3.236,3.236,0,0,1-1.855.45,5.1,5.1,0,0,1-1.3-.134,6.58,6.58,0,0,1-.69-.217l.245-1.182a6.341,6.341,0,0,0,.755.246A3.889,3.889,0,0,0,162.745,41.609Z"/><path class="cls-1" d="M171.462,42.44q-.409.105-1.065.216a8.535,8.535,0,0,1-1.439.112,3.178,3.178,0,0,1-1.234-.211,1.973,1.973,0,0,1-.8-.585,2.291,2.291,0,0,1-.427-.9,4.738,4.738,0,0,1-.129-1.141V36.508h1.416v3.2a2.58,2.58,0,0,0,.287,1.405,1.121,1.121,0,0,0,1,.421c.172,0,.353-.008.544-.023a2.826,2.826,0,0,0,.427-.059V36.508h1.416Z"/><path class="cls-1" d="M175.276,42.744a3.837,3.837,0,0,1-1.047-.14,1.606,1.606,0,0,1-.661-.369,1.3,1.3,0,0,1-.345-.6,3.006,3.006,0,0,1-.1-.813V33.782l1.416-.235v7.009a1.9,1.9,0,0,0,.041.433.684.684,0,0,0,.146.3.658.658,0,0,0,.287.188,2.281,2.281,0,0,0,.462.1Z"/><path class="cls-1" d="M176.434,34.893l1.416-.234v1.849h2.176V37.69H177.85v2.492a1.807,1.807,0,0,0,.234,1.052.925.925,0,0,0,.795.316,2.58,2.58,0,0,0,.685-.081,4.944,4.944,0,0,0,.474-.152l.234,1.123a5.312,5.312,0,0,1-.644.216,3.46,3.46,0,0,1-.936.112,2.954,2.954,0,0,1-1.093-.176,1.618,1.618,0,0,1-.7-.509,2.015,2.015,0,0,1-.362-.808,4.952,4.952,0,0,1-.106-1.082Z"/><path class="cls-1" d="M183.314,36.356a3.471,3.471,0,0,1,1.182.175,1.887,1.887,0,0,1,.766.492,1.839,1.839,0,0,1,.409.766,3.744,3.744,0,0,1,.123.988v3.709c-.218.047-.548.1-.988.17a10.137,10.137,0,0,1-1.492.1,4.425,4.425,0,0,1-1.006-.106,2.114,2.114,0,0,1-.779-.339,1.609,1.609,0,0,1-.5-.608,2.113,2.113,0,0,1-.181-.925,1.779,1.779,0,0,1,.205-.889,1.689,1.689,0,0,1,.555-.591,2.4,2.4,0,0,1,.813-.327,4.54,4.54,0,0,1,.966-.1,4.46,4.46,0,0,1,.491.029,4.638,4.638,0,0,1,.55.1v-.234a1.83,1.83,0,0,0-.058-.468.977.977,0,0,0-.2-.392.957.957,0,0,0-.386-.263,1.66,1.66,0,0,0-.6-.094,5.334,5.334,0,0,0-.9.07,4.056,4.056,0,0,0-.667.164l-.175-1.147a5.718,5.718,0,0,1,.784-.187A6.187,6.187,0,0,1,183.314,36.356Zm.117,5.276a5.245,5.245,0,0,0,.994-.07V39.995a2.728,2.728,0,0,0-.339-.071,3.22,3.22,0,0,0-.491-.035,3.308,3.308,0,0,0-.474.035,1.5,1.5,0,0,0-.433.129.78.78,0,0,0-.31.263.736.736,0,0,0-.117.427.749.749,0,0,0,.316.7A1.635,1.635,0,0,0,183.431,41.632Z"/><path class="cls-1" d="M187.409,36.707a9.644,9.644,0,0,1,1.065-.223,9.2,9.2,0,0,1,1.451-.105,3.33,3.33,0,0,1,1.252.205,1.947,1.947,0,0,1,.8.573,2.191,2.191,0,0,1,.421.889,4.971,4.971,0,0,1,.123,1.141v3.44h-1.416V39.409a4.638,4.638,0,0,0-.064-.836,1.5,1.5,0,0,0-.21-.562.848.848,0,0,0-.4-.316,1.687,1.687,0,0,0-.615-.1,4.8,4.8,0,0,0-.561.035c-.2.023-.34.043-.433.059v4.937h-1.416Z"/><path class="cls-1" d="M194.066,34.893l1.416-.234v1.849h2.177V37.69h-2.177v2.492a1.807,1.807,0,0,0,.234,1.052.927.927,0,0,0,.8.316,2.567,2.567,0,0,0,.684-.081,4.852,4.852,0,0,0,.474-.152l.234,1.123a5.349,5.349,0,0,1-.643.216,3.46,3.46,0,0,1-.936.112,2.959,2.959,0,0,1-1.094-.176,1.609,1.609,0,0,1-.7-.509,2.016,2.016,0,0,1-.363-.808,5.015,5.015,0,0,1-.106-1.082Z"/><path class="cls-1" d="M200.443,41.609a1.862,1.862,0,0,0,.819-.134.479.479,0,0,0,.258-.463.6.6,0,0,0-.275-.5,4.119,4.119,0,0,0-.908-.433,7.065,7.065,0,0,1-.707-.3,2.38,2.38,0,0,1-.556-.369,1.5,1.5,0,0,1-.368-.509,1.764,1.764,0,0,1-.135-.731,1.6,1.6,0,0,1,.62-1.328,2.667,2.667,0,0,1,1.685-.485,5.625,5.625,0,0,1,1.767.292l-.258,1.147a3.457,3.457,0,0,0-.6-.193,3.59,3.59,0,0,0-.843-.088,1.47,1.47,0,0,0-.7.146.48.48,0,0,0-.269.451.669.669,0,0,0,.052.269.576.576,0,0,0,.182.216,1.785,1.785,0,0,0,.339.2,5.2,5.2,0,0,0,.515.2,7.889,7.889,0,0,1,.854.369,2.313,2.313,0,0,1,.58.409,1.411,1.411,0,0,1,.333.521,2.084,2.084,0,0,1,.1.7,1.513,1.513,0,0,1-.649,1.328,3.238,3.238,0,0,1-1.855.45,5.117,5.117,0,0,1-1.3-.134,6.744,6.744,0,0,1-.69-.217l.246-1.182a6.32,6.32,0,0,0,.754.246A3.9,3.9,0,0,0,200.443,41.609Z"/></g></g></svg>