<svg xmlns="http://www.w3.org/2000/svg" viewBox="0 0 165.15 51.633"><defs><style>.cls-1{fill:#fff;}.cls-2{fill:#f4ae35;}.cls-3{fill:#034e91;}</style></defs><g id="Layer_2" data-name="Layer 2"><g id="Home"><path class="cls-1" d="M71.357,29.207a6.2,6.2,0,0,0,1.5-.151,2.784,2.784,0,0,0,.95-.413,1.4,1.4,0,0,0,.5-.62,2.225,2.225,0,0,0,.137-.8,1.846,1.846,0,0,0-.881-1.555,12.626,12.626,0,0,0-3.029-1.336q-.936-.33-1.873-.757A6.914,6.914,0,0,1,66.979,22.5a5.128,5.128,0,0,1-1.212-1.57,4.9,4.9,0,0,1-.468-2.244,5.565,5.565,0,0,1,.495-2.382A5.093,5.093,0,0,1,67.2,14.5a6.436,6.436,0,0,1,2.2-1.143,9.888,9.888,0,0,1,2.919-.4,11.665,11.665,0,0,1,5.645,1.322l-1.239,3.387a11.818,11.818,0,0,0-1.776-.73,7.7,7.7,0,0,0-2.355-.316,4.328,4.328,0,0,0-2.217.426,1.44,1.44,0,0,0-.674,1.308,1.5,1.5,0,0,0,.248.881,2.4,2.4,0,0,0,.7.648,6.218,6.218,0,0,0,1.046.523q.593.234,1.308.482,1.488.55,2.589,1.088a6.91,6.91,0,0,1,1.831,1.253,4.548,4.548,0,0,1,1.088,1.679,6.768,6.768,0,0,1,.358,2.341A4.973,4.973,0,0,1,77,31.4Q75.13,32.87,71.357,32.87a15.63,15.63,0,0,1-2.286-.152,14.92,14.92,0,0,1-1.8-.371,10.091,10.091,0,0,1-2.3-.937L66.18,28a10.678,10.678,0,0,0,2.107.84A10.913,10.913,0,0,0,71.357,29.207Z"/><path class="cls-1" d="M79.838,25.352a8.848,8.848,0,0,1,.592-3.373,7.235,7.235,0,0,1,1.556-2.41,6.488,6.488,0,0,1,2.217-1.46,6.946,6.946,0,0,1,2.575-.5A6.4,6.4,0,0,1,91.652,19.5a7.776,7.776,0,0,1,1.79,5.549c0,.239-.01.5-.028.785s-.037.537-.055.757H84.051a2.726,2.726,0,0,0,1.184,2.01,4.758,4.758,0,0,0,2.809.744,11.83,11.83,0,0,0,2.217-.207,8.328,8.328,0,0,0,1.776-.509l.551,3.332a5.662,5.662,0,0,1-.881.33,11.494,11.494,0,0,1-1.225.29c-.451.082-.932.151-1.446.206a14.5,14.5,0,0,1-1.542.083,9.114,9.114,0,0,1-3.4-.579,6.614,6.614,0,0,1-2.4-1.583,6.275,6.275,0,0,1-1.4-2.382A9.432,9.432,0,0,1,79.838,25.352Zm9.638-1.57a4.229,4.229,0,0,0-.179-1.019,2.549,2.549,0,0,0-.468-.881,2.488,2.488,0,0,0-.8-.633,2.608,2.608,0,0,0-1.2-.248,2.759,2.759,0,0,0-1.185.234,2.458,2.458,0,0,0-.826.62,2.766,2.766,0,0,0-.509.895,5.828,5.828,0,0,0-.262,1.032Z"/><path class="cls-1" d="M94.543,25.352a8.848,8.848,0,0,1,.592-3.373,7.235,7.235,0,0,1,1.556-2.41,6.5,6.5,0,0,1,2.217-1.46,6.95,6.95,0,0,1,2.575-.5,6.4,6.4,0,0,1,4.874,1.886,7.776,7.776,0,0,1,1.79,5.549c0,.239-.009.5-.027.785s-.037.537-.056.757H98.757a2.72,2.72,0,0,0,1.184,2.01,4.756,4.756,0,0,0,2.809.744,11.827,11.827,0,0,0,2.216-.207,8.339,8.339,0,0,0,1.777-.509l.55,3.332a5.662,5.662,0,0,1-.881.33,11.436,11.436,0,0,1-1.225.29q-.675.123-1.446.206a14.484,14.484,0,0,1-1.542.083,9.118,9.118,0,0,1-3.4-.579,6.614,6.614,0,0,1-2.4-1.583A6.288,6.288,0,0,1,95,28.326,9.432,9.432,0,0,1,94.543,25.352Zm9.638-1.57A4.229,4.229,0,0,0,104,22.763a2.549,2.549,0,0,0-.468-.881,2.488,2.488,0,0,0-.8-.633,2.608,2.608,0,0,0-1.2-.248,2.751,2.751,0,0,0-1.184.234,2.439,2.439,0,0,0-.826.62,2.769,2.769,0,0,0-.51.895,5.913,5.913,0,0,0-.261,1.032Z"/><path class="cls-1" d="M123.017,32.484q-1.845-3.276-3.993-6.471a65.827,65.827,0,0,0-4.571-6.031v12.5h-4.241V13.4h3.5q.908.908,2.01,2.23t2.244,2.823q1.143,1.5,2.272,3.111t2.12,3.1V13.4h4.269V32.484Z"/><path class="cls-1" d="M128.69,25.352a8.848,8.848,0,0,1,.592-3.373,7.235,7.235,0,0,1,1.556-2.41,6.488,6.488,0,0,1,2.217-1.46,6.946,6.946,0,0,1,2.575-.5A6.4,6.4,0,0,1,140.5,19.5a7.776,7.776,0,0,1,1.79,5.549c0,.239-.01.5-.028.785s-.037.537-.055.757H132.9a2.723,2.723,0,0,0,1.184,2.01,4.758,4.758,0,0,0,2.809.744,11.83,11.83,0,0,0,2.217-.207,8.328,8.328,0,0,0,1.776-.509l.551,3.332a5.662,5.662,0,0,1-.881.33,11.494,11.494,0,0,1-1.225.29c-.451.082-.932.151-1.446.206a14.5,14.5,0,0,1-1.542.083,9.114,9.114,0,0,1-3.4-.579,6.614,6.614,0,0,1-2.4-1.583,6.29,6.29,0,0,1-1.405-2.382A9.461,9.461,0,0,1,128.69,25.352Zm9.638-1.57a4.229,4.229,0,0,0-.179-1.019,2.549,2.549,0,0,0-.468-.881,2.488,2.488,0,0,0-.8-.633,2.608,2.608,0,0,0-1.2-.248,2.759,2.759,0,0,0-1.185.234,2.458,2.458,0,0,0-.826.62,2.766,2.766,0,0,0-.509.895,5.828,5.828,0,0,0-.262,1.032Z"/><path class="cls-1" d="M143.4,25.352a8.848,8.848,0,0,1,.592-3.373,7.235,7.235,0,0,1,1.556-2.41,6.488,6.488,0,0,1,2.217-1.46,6.946,6.946,0,0,1,2.575-.5,6.4,6.4,0,0,1,4.874,1.886A7.776,7.776,0,0,1,157,25.049c0,.239-.01.5-.028.785s-.037.537-.055.757h-9.308a2.726,2.726,0,0,0,1.184,2.01,4.758,4.758,0,0,0,2.809.744,11.83,11.83,0,0,0,2.217-.207,8.356,8.356,0,0,0,1.777-.509l.55,3.332a5.662,5.662,0,0,1-.881.33,11.436,11.436,0,0,1-1.225.29q-.675.123-1.446.206a14.512,14.512,0,0,1-1.542.083,9.114,9.114,0,0,1-3.4-.579,6.614,6.614,0,0,1-2.4-1.583,6.288,6.288,0,0,1-1.4-2.382A9.432,9.432,0,0,1,143.4,25.352Zm9.638-1.57a4.229,4.229,0,0,0-.179-1.019,2.549,2.549,0,0,0-.468-.881,2.488,2.488,0,0,0-.8-.633,2.608,2.608,0,0,0-1.2-.248,2.751,2.751,0,0,0-1.184.234,2.452,2.452,0,0,0-.827.62,2.766,2.766,0,0,0-.509.895,5.828,5.828,0,0,0-.262,1.032Z"/><path class="cls-1" d="M164.572,32.76a10.3,10.3,0,0,1-2.906-.386,4.288,4.288,0,0,1-1.762-1.005,3.323,3.323,0,0,1-.881-1.57,8.471,8.471,0,0,1-.234-2.079V11.776l4.1-.661V26.894a5.408,5.408,0,0,0,.082.991,1.712,1.712,0,0,0,.317.744,1.685,1.685,0,0,0,.675.5,3.687,3.687,0,0,0,1.184.247Z"/><path class="cls-1" d="M67.016,41.513a2.61,2.61,0,0,1-1.994-.728,2.9,2.9,0,0,1-.685-2.068,3.171,3.171,0,0,1,.209-1.189,2.555,2.555,0,0,1,.573-.883,2.388,2.388,0,0,1,.867-.546,3.13,3.13,0,0,1,1.092-.186,3.463,3.463,0,0,1,.62.051,3.918,3.918,0,0,1,.488.116,2.5,2.5,0,0,1,.348.135c.093.047.16.083.2.109l-.349.976a2.893,2.893,0,0,0-.577-.225,2.746,2.746,0,0,0-.747-.093,1.649,1.649,0,0,0-.546.093,1.237,1.237,0,0,0-.473.3,1.491,1.491,0,0,0-.329.531,2.239,2.239,0,0,0-.124.79,2.784,2.784,0,0,0,.082.693,1.475,1.475,0,0,0,.263.554,1.268,1.268,0,0,0,.476.368,1.7,1.7,0,0,0,.713.135,3.194,3.194,0,0,0,.472-.031,3.443,3.443,0,0,0,.372-.074,1.872,1.872,0,0,0,.286-.1c.083-.036.158-.07.225-.1l.333.968a2.843,2.843,0,0,1-.72.279A4.229,4.229,0,0,1,67.016,41.513Z"/><path class="cls-1" d="M73.081,39.36a2.648,2.648,0,0,1-.14.879,1.911,1.911,0,0,1-.4.682,1.8,1.8,0,0,1-.631.437,2.252,2.252,0,0,1-1.642,0,1.819,1.819,0,0,1-.631-.437,2,2,0,0,1-.41-.682,2.5,2.5,0,0,1-.147-.879,2.424,2.424,0,0,1,.151-.875,1.971,1.971,0,0,1,.418-.674,1.874,1.874,0,0,1,.635-.434,2.048,2.048,0,0,1,.8-.155,2.072,2.072,0,0,1,.809.155,1.829,1.829,0,0,1,.631.434,1.955,1.955,0,0,1,.41.674A2.468,2.468,0,0,1,73.081,39.36Zm-1.178,0a1.448,1.448,0,0,0-.213-.84.7.7,0,0,0-.607-.306.705.705,0,0,0-.612.306,1.425,1.425,0,0,0-.217.84,1.465,1.465,0,0,0,.217.848.7.7,0,0,0,.612.314.691.691,0,0,0,.607-.314A1.489,1.489,0,0,0,71.9,39.36Z"/><path class="cls-1" d="M73.824,37.47a6.357,6.357,0,0,1,.759-.159,6.246,6.246,0,0,1,.976-.073,2.389,2.389,0,0,1,.864.135,1.307,1.307,0,0,1,.546.384,1.5,1.5,0,0,1,.286.588,3.131,3.131,0,0,1,.085.759v2.3H76.186V39.244a1.557,1.557,0,0,0-.147-.79.6.6,0,0,0-.55-.233c-.082,0-.17,0-.263.012s-.176.017-.248.027v3.145H73.824Z"/><path class="cls-1" d="M79.408,40.576a1.153,1.153,0,0,0,.449-.062.24.24,0,0,0,.132-.24.3.3,0,0,0-.17-.244,3.18,3.18,0,0,0-.519-.236,5.31,5.31,0,0,1-.492-.21,1.43,1.43,0,0,1-.376-.259,1.062,1.062,0,0,1-.24-.36,1.327,1.327,0,0,1-.085-.5,1.09,1.09,0,0,1,.426-.907,1.854,1.854,0,0,1,1.17-.333,3.74,3.74,0,0,1,.712.066,3.393,3.393,0,0,1,.542.143l-.2.9a4.033,4.033,0,0,0-.438-.124,2.381,2.381,0,0,0-.53-.054c-.362,0-.542.1-.542.3a.308.308,0,0,0,.023.124.253.253,0,0,0,.093.1,1.241,1.241,0,0,0,.189.109c.081.039.182.082.306.129a4.82,4.82,0,0,1,.628.277,1.5,1.5,0,0,1,.391.295.91.91,0,0,1,.2.352,1.551,1.551,0,0,1,.058.448,1.033,1.033,0,0,1-.453.912,2.259,2.259,0,0,1-1.282.309,3.609,3.609,0,0,1-1.4-.248l.193-.937a3.853,3.853,0,0,0,.6.182A2.938,2.938,0,0,0,79.408,40.576Z"/><path class="cls-1" d="M85.325,41.265a6.357,6.357,0,0,1-.759.159,6.244,6.244,0,0,1-.976.074,2.313,2.313,0,0,1-.863-.14,1.306,1.306,0,0,1-.546-.391,1.522,1.522,0,0,1-.287-.6,3.223,3.223,0,0,1-.085-.767V37.331h1.154V39.46a1.653,1.653,0,0,0,.147.806.587.587,0,0,0,.55.248c.082,0,.171,0,.263-.012s.176-.016.248-.027V37.331h1.154Z"/><path class="cls-1" d="M87.889,41.482a2.88,2.88,0,0,1-.817-.108,1.218,1.218,0,0,1-.5-.283.944.944,0,0,1-.248-.441,2.389,2.389,0,0,1-.066-.585V35.58l1.154-.185v4.437a1.465,1.465,0,0,0,.024.279.441.441,0,0,0,.278.349,1.042,1.042,0,0,0,.333.069Z"/><path class="cls-1" d="M88.524,36.316l1.154-.186v1.2h1.386v.96H89.678v1.433a1.143,1.143,0,0,0,.128.581.546.546,0,0,0,.515.217,2.218,2.218,0,0,0,.383-.035,2.046,2.046,0,0,0,.36-.1l.163.9a3.223,3.223,0,0,1-.465.147,2.658,2.658,0,0,1-.627.063,2.065,2.065,0,0,1-.782-.128,1.228,1.228,0,0,1-.5-.357,1.338,1.338,0,0,1-.26-.553,3.277,3.277,0,0,1-.073-.721Z"/><path class="cls-1" d="M93.163,37.222a2.684,2.684,0,0,1,.852.116,1.328,1.328,0,0,1,.546.334,1.221,1.221,0,0,1,.29.526,2.588,2.588,0,0,1,.086.689v2.4c-.166.036-.395.079-.69.128a6.613,6.613,0,0,1-1.068.074,3.418,3.418,0,0,1-.717-.07,1.565,1.565,0,0,1-.554-.228,1.053,1.053,0,0,1-.356-.415,1.421,1.421,0,0,1-.124-.627,1.194,1.194,0,0,1,.143-.6,1.11,1.11,0,0,1,.384-.395,1.733,1.733,0,0,1,.55-.213,3.066,3.066,0,0,1,.642-.066,3.631,3.631,0,0,1,.4.019,1.849,1.849,0,0,1,.283.05v-.108a.637.637,0,0,0-.178-.472.862.862,0,0,0-.62-.178,4,4,0,0,0-.581.042,2.566,2.566,0,0,0-.5.12l-.147-.929c.067-.021.151-.043.251-.066s.211-.044.329-.062.245-.034.376-.046S93.029,37.222,93.163,37.222Zm.093,3.377c.113,0,.222,0,.325-.008a2.089,2.089,0,0,0,.248-.023v-.875a2.1,2.1,0,0,0-.209-.031,2.4,2.4,0,0,0-.256-.015,2.285,2.285,0,0,0-.306.019.8.8,0,0,0-.251.073.441.441,0,0,0-.171.147.417.417,0,0,0-.062.233.4.4,0,0,0,.182.376A1.017,1.017,0,0,0,93.256,40.6Z"/><path class="cls-1" d="M95.835,37.47a6.357,6.357,0,0,1,.759-.159,6.246,6.246,0,0,1,.976-.073,2.379,2.379,0,0,1,.863.135,1.3,1.3,0,0,1,.547.384,1.5,1.5,0,0,1,.286.588,3.131,3.131,0,0,1,.085.759v2.3H98.2V39.244a1.557,1.557,0,0,0-.147-.79.6.6,0,0,0-.55-.233c-.082,0-.17,0-.263.012s-.176.017-.248.027v3.145H95.835Z"/><path class="cls-1" d="M100.056,39.368a2.414,2.414,0,0,1,.143-.833,1.983,1.983,0,0,1,.415-.681,1.957,1.957,0,0,1,.658-.461,2.163,2.163,0,0,1,.883-.171,2.9,2.9,0,0,1,.6.058,2.961,2.961,0,0,1,.527.167l-.24.921a3,3,0,0,0-.356-.108,1.87,1.87,0,0,0-.434-.046.916.916,0,0,0-.763.317,1.308,1.308,0,0,0-.252.837,1.354,1.354,0,0,0,.237.852.989.989,0,0,0,.824.3,2.814,2.814,0,0,0,.45-.039,1.916,1.916,0,0,0,.441-.124l.163.945a2.68,2.68,0,0,1-.5.147,3.337,3.337,0,0,1-.666.062,2.5,2.5,0,0,1-.96-.166,1.819,1.819,0,0,1-.662-.454,1.76,1.76,0,0,1-.38-.678A2.871,2.871,0,0,1,100.056,39.368Z"/><path class="cls-1" d="M107.662,37.331q-.35,1.176-.73,2.207t-.831,2a4.632,4.632,0,0,1-.326.593,1.861,1.861,0,0,1-.357.4,1.264,1.264,0,0,1-.438.232,1.988,1.988,0,0,1-.57.073,2.372,2.372,0,0,1-.877-.162l.2-.922a1.947,1.947,0,0,0,.317.085,1.747,1.747,0,0,0,.295.023.643.643,0,0,0,.476-.166,1.334,1.334,0,0,0,.283-.461q-.394-.774-.79-1.739a21.691,21.691,0,0,1-.744-2.164H104.8q.078.3.183.654c.07.235.144.472.221.713s.157.473.238.7.157.433.229.619c.068-.186.137-.392.21-.619s.144-.461.214-.7.137-.478.2-.713.123-.453.175-.654Z"/><path class="cls-1" d="M113.5,40.367v1.038h-3.586V36.037h1.208v4.33Z"/><path class="cls-1" d="M117.714,40.367v1.038h-3.586V36.037h1.209v4.33Z"/><path class="cls-1" d="M119.953,35.975a3.362,3.362,0,0,1,1.843.422,1.533,1.533,0,0,1,.643,1.383,1.552,1.552,0,0,1-.651,1.4,3.363,3.363,0,0,1-1.859.43h-.379v1.8h-1.208v-5.29a6.821,6.821,0,0,1,.836-.109C119.472,35.986,119.731,35.975,119.953,35.975Zm.077,1.03c-.088,0-.174,0-.259.008s-.159.011-.221.016v1.549h.379a2.05,2.05,0,0,0,.945-.171.654.654,0,0,0,.318-.635.756.756,0,0,0-.082-.372.618.618,0,0,0-.232-.236,1.07,1.07,0,0,0-.368-.124A3.054,3.054,0,0,0,120.03,37.005Z"/><circle class="cls-1" cx="25.817" cy="25.817" r="25.817"/><path class="cls-2" d="M44.846,17.777a20.553,20.553,0,0,0-4.1-6.229l-.8,2.986h0L36,29.279,33.119,18.354H29.2L25.207,33.236h3.016L31.15,22.312l2.878,10.924h3.924l4.115-15.358A18.086,18.086,0,0,1,10.386,35.253H7.44A20.658,20.658,0,0,0,44.846,17.777Z"/><path class="cls-3" d="M18.8,30.324H8.3A18.082,18.082,0,0,1,38.334,12.767l.746-2.782A20.659,20.659,0,0,0,6.537,33.236H18.8A5.65,5.65,0,0,0,24,29.165a3.9,3.9,0,0,0-.588-3.416,3.736,3.736,0,0,0-3.009-1.41H15.573a.864.864,0,0,1-.7-.27,1.037,1.037,0,0,1-.086-.889,2.732,2.732,0,0,1,2.388-1.913H26.4l.781-2.913h-10a5.651,5.651,0,0,0-5.2,4.072,3.9,3.9,0,0,0,.588,3.416,3.734,3.734,0,0,0,3.009,1.41h4.833a.861.861,0,0,1,.7.27,1.036,1.036,0,0,1,.086.889A2.732,2.732,0,0,1,18.8,30.324Z"/></g></g></svg>