<svg xmlns="http://www.w3.org/2000/svg" viewBox="0 0 165.455 160"><defs><style>.cls-1{fill:#fff;}.cls-2{fill:#034e91;}.cls-3{fill:none;}</style></defs><g id="Layer_2" data-name="Layer 2"><g id="Home"><rect class="cls-1" width="165.455" height="160" rx="80"/><path class="cls-2" d="M67.727,50V72.5H78.948l3.779,5.22,3.78-5.22h11.22V50Zm19.146,4.976,3.535,3.535L81.419,67.5l-6.49-6.489,3.536-3.535,2.954,2.954ZM70.227,77.5a9.928,9.928,0,0,0-7.5,3.184,10.526,10.526,0,0,0,0,13.632,9.3,9.3,0,0,0,2.388,1.719A14.94,14.94,0,0,0,55.227,110h5a10,10,0,1,1,20,0h.225a14.582,14.582,0,0,0-.225,2.5h5a10,10,0,0,1,20,0h5a14.915,14.915,0,0,0-10.073-14,36.2,36.2,0,0,0,4.336-2.72c2.735-1.966,4.907-3.921,4.907-3.921L111.472,90,109.4,88.14s-2.172-1.955-4.907-3.921a35.806,35.806,0,0,0-4.419-2.769A10.419,10.419,0,0,0,95.227,80a10.038,10.038,0,0,0-10,10A9.9,9.9,0,0,0,90.3,98.5a15.34,15.34,0,0,0-6.719,4.756,15.234,15.234,0,0,0-8.242-7.222,9.3,9.3,0,0,0,2.387-1.719,10.526,10.526,0,0,0,0-13.632A9.928,9.928,0,0,0,70.227,77.5Zm0,5A4.6,4.6,0,0,1,73.982,84a5.531,5.531,0,0,1,0,6.992,5.44,5.44,0,0,1-7.51,0,5.531,5.531,0,0,1,0-6.992A4.6,4.6,0,0,1,70.227,82.5Zm25,2.5a8.065,8.065,0,0,1,2.559.894,31.82,31.82,0,0,1,3.784,2.387c1.19.856,1.351,1.057,2.153,1.719-.8.662-.963.863-2.153,1.719a31.82,31.82,0,0,1-3.784,2.387A8.065,8.065,0,0,1,95.227,95a5,5,0,0,1,0-10Z"/><rect class="cls-3" x="42.727" y="40" width="80" height="80"/></g></g></svg>