<svg xmlns="http://www.w3.org/2000/svg" xmlns:xlink="http://www.w3.org/1999/xlink" viewBox="0 0 401 401"><defs><style>.cls-1,.cls-4{fill:none;}.cls-1{stroke-miterlimit:10;stroke-dasharray:5.984 5.984;stroke:url(#linear-gradient);}.cls-2{fill:#f4ae35;}.cls-3{fill:#034e91;}</style><linearGradient id="linear-gradient" x1="58.725" y1="342.275" x2="342.275" y2="58.725" gradientUnits="userSpaceOnUse"><stop offset="0.15" stop-color="#034e91" stop-opacity="0"/><stop offset="1" stop-color="#034e91"/></linearGradient></defs><g id="Layer_2" data-name="Layer 2"><g id="Process"><circle class="cls-1" cx="200.5" cy="200.5" r="200"/><circle class="cls-2" cx="200.5" cy="200.5" r="180"/><path class="cls-3" d="M166.75,133v50.625H192l8.5,11.744,8.5-11.744H234.25V133ZM209.827,144.2l7.955,7.954-20.226,20.226-14.6-14.6,7.954-7.954,6.647,6.647Zm-37.452,50.68a22.341,22.341,0,0,0-16.864,7.163,23.686,23.686,0,0,0,0,30.674,20.966,20.966,0,0,0,5.372,3.867A33.613,33.613,0,0,0,138.625,268h11.25a22.5,22.5,0,0,1,45,0h.5a32.942,32.942,0,0,0-.5,5.625h11.25a22.5,22.5,0,0,1,45,0h11.25a33.559,33.559,0,0,0-22.665-31.5,81.434,81.434,0,0,0,9.756-6.119c6.153-4.425,11.041-8.822,11.041-8.822l4.67-4.186-4.67-4.186s-4.888-4.4-11.041-8.822a80.615,80.615,0,0,0-9.943-6.229c-3.459-1.781-6.87-3.263-10.9-3.263a22.586,22.586,0,0,0-22.5,22.5,22.264,22.264,0,0,0,11.4,19.127,34.524,34.524,0,0,0-15.117,10.7,34.267,34.267,0,0,0-18.545-16.249,20.966,20.966,0,0,0,5.372-3.867,23.686,23.686,0,0,0,0-30.674A22.341,22.341,0,0,0,172.375,194.875Zm0,11.25c4.219,0,6.667,1.379,8.448,3.384a12.442,12.442,0,0,1,0,15.732c-1.781,2-4.229,3.384-8.448,3.384s-6.667-1.379-8.448-3.384a12.442,12.442,0,0,1,0-15.732C165.708,207.5,168.156,206.125,172.375,206.125Zm56.25,5.625a18.153,18.153,0,0,1,5.757,2.01,71.535,71.535,0,0,1,8.514,5.373c2.678,1.926,3.039,2.377,4.845,3.867-1.806,1.49-2.167,1.941-4.845,3.867a71.522,71.522,0,0,1-8.514,5.372,18.138,18.138,0,0,1-5.757,2.011,11.25,11.25,0,0,1,0-22.5Z"/><rect class="cls-4" x="110.5" y="110.5" width="180" height="180"/></g></g></svg>